<svg width="191" height="800" viewBox="0 0 191 972" fill="none" xmlns="http://www.w3.org/2000/svg">
<path d="M181.952 851.597C182.476 868.134 152.551 893.335 152.551 897.273C152.551 901.211 161.214 901.999 161.214 901.999C123.413 941.637 107.662 929.298 107.662 929.298C104.21 922.739 102.915 865.101 102.432 826.396H143.857C146.016 828.582 149.012 829.939 152.326 829.939C158.902 829.939 164.233 824.609 164.233 818.032C164.233 811.456 158.903 806.125 152.326 806.125C148.426 806.125 144.973 808.01 142.802 810.909H102.269C102.192 802.183 102.165 795.664 102.155 792.812C117.012 789.565 128.138 776.34 128.138 760.507C128.138 742.24 113.329 727.432 95.0617 727.432C76.7951 727.432 61.9863 742.24 61.9863 760.507C61.9863 776.34 73.1119 789.565 87.9688 792.812C87.9584 795.665 87.9311 802.183 87.8549 810.909H45.1668C42.9949 808.01 39.5426 806.125 35.643 806.125C29.0664 806.125 23.7357 811.456 23.7357 818.032C23.7357 824.609 29.0656 829.939 35.643 829.939C38.9582 829.939 41.9535 828.582 44.1117 826.396H87.6914C87.2087 865.101 85.9123 922.739 82.4609 929.298C82.4609 929.298 66.7109 941.637 28.9093 901.999C28.9093 901.999 37.5728 901.211 37.5728 897.273C37.5728 893.335 7.64743 868.134 8.17176 851.597C8.17176 851.597 -8.10415 888.348 5.28394 906.985C5.28394 906.985 8.95908 909.61 16.0464 906.198C16.0464 906.198 37.9584 948.966 94.7682 971.601C94.7786 971.744 95.3431 971.744 95.3527 971.601C152.163 948.966 174.075 906.198 174.075 906.198C181.162 909.61 184.837 906.985 184.837 906.985C198.227 888.348 181.952 851.597 181.952 851.597ZM95.0617 780.196C84.1878 780.196 75.3736 771.381 75.3736 760.507C75.3736 749.634 84.1878 740.819 95.0617 740.819C105.936 740.819 114.751 749.634 114.751 760.507C114.751 771.381 105.936 780.196 95.0617 780.196Z" fill="#2069B6"/>
<path opacity="0.5" d="M181.951 851.597C182.476 868.134 152.55 893.335 152.55 897.273C152.55 901.21 161.214 901.998 161.214 901.998C123.413 941.637 107.662 929.298 107.662 929.298C104.21 922.739 102.915 865.1 102.432 826.396H143.857C146.016 828.582 149.012 829.939 152.326 829.939C158.902 829.939 164.233 824.608 164.233 818.032C164.233 811.456 158.903 806.125 152.326 806.125C148.426 806.125 144.973 808.01 142.802 810.908H102.269C102.192 802.182 102.165 795.664 102.155 792.812C117.012 789.565 128.138 776.339 128.138 760.507C128.138 742.277 113.389 727.495 95.1738 727.435V740.822C105.996 740.882 114.75 749.671 114.75 760.507C114.75 771.343 105.996 780.131 95.1738 780.192V971.7C95.2724 971.686 95.3518 971.654 95.355 971.601C152.166 948.965 174.077 906.198 174.077 906.198C181.164 909.61 184.839 906.985 184.839 906.985C198.227 888.347 181.951 851.597 181.951 851.597Z" fill="#104B8B"/>
<path d="M91.2495 734.477L91.2495 -961.983H99.0983L99.0983 734.477H91.2495Z" fill="#114F91"/>
<path d="M89.5161 748.244V720.707H100.832V748.244H89.5161Z" fill="#114F91"/>
</svg>
