<svg width="152" height="73" viewBox="0 0 152 73" fill="none" xmlns="http://www.w3.org/2000/svg">
<rect width="151.507" height="73" rx="16" fill="#114F91"/>
<g filter="url(#filter0_i_380_47093)">
<rect x="6" y="6" width="114" height="61" rx="10" fill="white"/>
<!-- <path d="M71.5272 36.612C71.5272 38.7 71.3712 40.56 71.0592 42.192C70.7472 43.824 70.2432 45.216 69.5472 46.368C68.8752 47.496 67.9872 48.36 66.8832 48.96C65.8032 49.56 64.4952 49.86 62.9592 49.86C61.0392 49.86 59.4432 49.332 58.1712 48.276C56.9232 47.22 55.9872 45.708 55.3632 43.74C54.7632 41.748 54.4632 39.372 54.4632 36.612C54.4632 33.828 54.7392 31.452 55.2912 29.484C55.8672 27.516 56.7792 26.016 58.0272 24.984C59.2752 23.928 60.9192 23.4 62.9592 23.4C64.8792 23.4 66.4752 23.928 67.7472 24.984C69.0192 26.016 69.9672 27.516 70.5912 29.484C71.2152 31.452 71.5272 33.828 71.5272 36.612ZM57.6312 36.612C57.6312 38.964 57.7992 40.92 58.1352 42.48C58.4952 44.04 59.0592 45.216 59.8272 46.008C60.6192 46.776 61.6632 47.16 62.9592 47.16C64.2552 47.16 65.2872 46.776 66.0552 46.008C66.8472 45.24 67.4232 44.076 67.7832 42.516C68.1432 40.932 68.3232 38.964 68.3232 36.612C68.3232 34.26 68.1432 32.316 67.7832 30.78C67.4232 29.22 66.8472 28.056 66.0552 27.288C65.2872 26.496 64.2552 26.1 62.9592 26.1C61.6632 26.1 60.6192 26.496 59.8272 27.288C59.0592 28.056 58.4952 29.22 58.1352 30.78C57.7992 32.316 57.6312 34.26 57.6312 36.612Z" fill="black"/> -->
</g>
<path d="M134.692 57.9316C134.776 57.9808 134.854 58.0301 134.945 58.0653C134.994 58.0864 135.044 58.0934 135.093 58.1146C135.177 58.1427 135.255 58.1709 135.339 58.192C135.473 58.2201 135.614 58.2342 135.755 58.2342C135.895 58.2342 136.036 58.2201 136.17 58.192C136.254 58.1779 136.339 58.1427 136.423 58.1146C136.472 58.1005 136.522 58.0864 136.564 58.0723C136.655 58.0301 136.747 57.9808 136.831 57.9316C136.86 57.9105 136.895 57.8964 136.93 57.8823C137.042 57.8049 137.155 57.7134 137.254 57.6219L144.89 49.9647C145.713 49.1412 145.713 47.804 144.89 46.9806C144.066 46.1572 142.729 46.1572 141.906 46.9806L137.866 51.0204L137.866 21.9724L141.906 26.0122C142.729 26.8356 144.066 26.8356 144.89 26.0122C145.713 25.1888 145.713 23.8516 144.89 23.0281L137.247 15.385C136.852 14.9908 136.318 14.7656 135.755 14.7656C135.192 14.7656 134.657 14.9908 134.263 15.385L126.619 23.0281C126.204 23.4434 126 23.9782 126 24.5202C126 25.0621 126.204 25.604 126.619 26.0122C127.443 26.8356 128.78 26.8356 129.603 26.0122L133.643 21.9724L133.643 51.0204L129.603 46.9806C128.78 46.1572 127.443 46.1572 126.619 46.9806C126.204 47.3958 126 47.9307 126 48.4726C126 49.0146 126.204 49.5565 126.619 49.9647L134.263 57.6078C134.361 57.7064 134.467 57.7908 134.579 57.8682C134.614 57.8964 134.657 57.9105 134.692 57.9316Z" fill="white"/>
<defs>
<filter id="filter0_i_380_47093" x="6" y="6" width="114" height="67" filterUnits="userSpaceOnUse" color-interpolation-filters="sRGB">
<feFlood flood-opacity="0" result="BackgroundImageFix"/>
<feBlend mode="normal" in="SourceGraphic" in2="BackgroundImageFix" result="shape"/>
<!-- <feColorMatrix in="SourceAlpha" type="matrix" values="0 0 0 0 0 0 0 0 0 0 0 0 0 0 0 0 0 0 127 0" result="hardAlpha"/> -->
<feOffset dy="6"/>
<!-- <feGaussianBlur stdDeviation="6"/> -->
<feComposite in2="hardAlpha" operator="arithmetic" k2="-1" k3="1"/>
<!-- <feColorMatrix type="matrix" values="0 0 0 0 0 0 0 0 0 0 0 0 0 0 0 0 0 0 0.16 0"/> -->
<feBlend mode="normal" in2="shape" result="effect1_innerShadow_380_47093"/>
</filter>
</defs>
</svg>
