<svg width="508" height="221" viewBox="0 0 508 221" fill="none" xmlns="http://www.w3.org/2000/svg">
<circle cx="23.6498" cy="23.6498" r="23.6498" transform="matrix(-0.946631 0.32232 0.32232 0.946631 254.727 170.369)" fill="#5CA25E"/>
<circle cx="291.483" cy="291.483" r="293.351" transform="matrix(-0.946631 0.32232 0.32232 0.946631 551.859 8.23242)" stroke="black" stroke-width="3.73477" stroke-dasharray="7.47 12.45"/>
<rect width="58.8449" height="58.8449" transform="matrix(-0.847233 0.531222 0.531222 0.847233 132.445 179.527)" fill="#1F63AB"/>
<rect width="37.1773" height="47.3495" transform="matrix(-0.847233 0.531222 0.531222 0.847233 299.383 0)" fill="#1F63AB"/>
<path d="M525.817 95.2065L492.731 152.889L586.755 121.825L525.817 95.2065Z" fill="#A72608"/>
<circle cx="15.6139" cy="15.6139" r="15.6139" transform="matrix(-0.946631 0.32232 0.32232 0.946631 158.797 82.8516)" fill="#E5BE34"/>
<path d="M258.734 76.1152L233.204 78.287L212.652 155.653L265.121 151.189L258.734 76.1152Z" fill="#F08648"/>
<path d="M576.922 80.5488L577.762 63.0847L494.35 40.6021L492.624 76.4941L576.922 80.5488Z" fill="#5CA25E"/>
</svg>
