<svg width="176" height="73" viewBox="0 0 176 73" fill="none" xmlns="http://www.w3.org/2000/svg">
<rect width="175.469" height="73" rx="16" fill="#114F91"/>
<g filter="url(#filter0_i_408_5400)">
<rect x="6" y="6" width="114" height="61" rx="10" fill="white"/>
</g>
<path d="M126.303 35.4379C126.254 35.5224 126.204 35.5998 126.169 35.6913C126.148 35.7406 126.141 35.7898 126.12 35.8391C126.092 35.9235 126.064 36.001 126.042 36.0854C126.014 36.2191 126 36.3599 126 36.5006C126 36.6414 126.014 36.7822 126.042 36.9159C126.056 37.0003 126.092 37.0848 126.12 37.1692C126.134 37.2185 126.148 37.2678 126.162 37.31C126.204 37.4015 126.254 37.493 126.303 37.5774C126.324 37.6056 126.338 37.6408 126.352 37.676C126.429 37.7886 126.521 37.9012 126.612 37.9997L134.27 45.6358C135.093 46.4593 136.43 46.4593 137.254 45.6358C138.077 44.8124 138.077 43.4752 137.254 42.6518L133.214 38.612L162.262 38.612L158.222 42.6517C157.399 43.4752 157.399 44.8124 158.222 45.6358C159.046 46.4592 160.383 46.4592 161.206 45.6358L168.849 37.9927C169.244 37.5985 169.469 37.0637 169.469 36.5006C169.469 35.9376 169.244 35.4027 168.849 35.0086L161.206 27.3654C160.791 26.9502 160.256 26.7461 159.714 26.7461C159.172 26.7461 158.63 26.9502 158.222 27.3654C157.399 28.1889 157.399 29.5261 158.222 30.3495L162.262 34.3893L133.214 34.3893L137.254 30.3495C138.077 29.5261 138.077 28.1889 137.254 27.3655C136.839 26.9502 136.304 26.7461 135.762 26.7461C135.22 26.7461 134.678 26.9502 134.27 27.3655L126.627 35.0086C126.528 35.1071 126.444 35.2127 126.366 35.3253C126.338 35.3605 126.324 35.4027 126.303 35.4379Z" fill="white"/>
<defs>
<filter id="filter0_i_408_5400" x="6" y="6" width="114" height="67" filterUnits="userSpaceOnUse" color-interpolation-filters="sRGB">
<feFlood flood-opacity="0" result="BackgroundImageFix"/>
<feBlend mode="normal" in="SourceGraphic" in2="BackgroundImageFix" result="shape"/>
<feColorMatrix in="SourceAlpha" type="matrix" values="0 0 0 0 0 0 0 0 0 0 0 0 0 0 0 0 0 0 127 0" result="hardAlpha"/>
<feOffset dy="6"/>
<feGaussianBlur stdDeviation="6"/>
<feComposite in2="hardAlpha" operator="arithmetic" k2="-1" k3="1"/>
<feColorMatrix type="matrix" values="0 0 0 0 0 0 0 0 0 0 0 0 0 0 0 0 0 0 0.16 0"/>
<feBlend mode="normal" in2="shape" result="effect1_innerShadow_408_5400"/>
</filter>
</defs>
</svg>
