<svg width="235" height="258" viewBox="0 0 235 258" fill="none" xmlns="http://www.w3.org/2000/svg">
<path d="M94.5698 34.285C93.3347 33.9451 92.0469 33.5701 91.1195 32.6851C90.8192 32.3994 90.5496 31.9892 90.6771 31.5951C90.847 31.0706 91.5473 30.9871 92.0967 31.0296C97.9878 31.4794 105 35.0395 109.884 38.2408C104.736 37.265 99.6214 35.6783 94.5698 34.285Z" fill="#E5BE34"/>
<path d="M142.944 135.576L82.4976 36.7326L43.7197 24.187C43.7197 24.187 33.4553 43.576 30.0343 54.6008C26.6133 65.6255 27.3737 75.5105 24.7116 78.1711C22.051 80.8317 0 99.8412 0 99.8412C4.30589 108.263 11.2284 114.458 20.4907 116.378C21.1485 122.295 21.2291 128.311 21.339 134.323C23.9146 135.405 29.5581 137.964 29.5581 139.627C29.5581 141.237 24.2062 141.042 21.5016 140.84C21.6965 146.421 22.1023 151.969 23.2143 157.397C24.5021 163.682 27.1583 170.414 32.9352 173.204C35.6895 174.534 38.8278 174.788 41.8839 174.892C52.2436 175.245 62.6501 174.127 72.6976 171.579L105.573 230.092L171.077 184.617L142.944 135.576Z" fill="#E48B73"/>
<path d="M191.285 48.5436C197.413 68.4772 192.562 68.2026 191.285 78.9739C191.184 79.8295 190.873 80.8844 190.02 81.0075C189.581 81.0719 189.156 80.8434 188.788 80.5943C186.747 79.2098 185.378 76.8803 185.156 74.4248C186.734 84.1457 184.9 94.1932 181.31 103.365C177.721 112.536 172.432 120.937 166.898 129.084C164.367 132.811 161.753 136.546 160.138 140.752C158.524 144.958 157.992 149.768 159.689 153.942C157.523 154.093 155.314 153.03 154.082 151.244C155.586 153.222 156.975 156.351 154.99 157.847C153.679 158.836 151.818 158.239 150.303 157.607C146.255 155.92 142.147 154.199 138.722 151.459C134.231 147.867 131.221 142.77 128.638 137.633C122.708 125.846 118.493 113.198 116.165 100.212C110.342 99.5174 103.84 99.0749 98.0159 98.3805C98.1038 90.825 98.2034 83.0556 99.0678 75.55C94.8088 75.3639 90.497 71.8902 88.6144 68.0664C86.7318 64.241 86.2791 59.8941 85.8747 55.6497C81.2655 55.7303 76.104 54.485 72.9145 51.1578C69.7236 47.8306 68.0006 43.1438 68.2731 38.5434C64.0244 41.0282 58.6812 40.9886 54.1072 39.1675C49.5347 37.3464 45.8895 33.3364 44.5123 28.6101C41.4825 31.4304 38.5084 34.9437 36.2654 38.4203C36.1203 38.6445 36.1863 38.4936 36.05 38.7236C32.6935 33.6398 33.3792 26.6029 36.6082 21.4385C37.8385 11.6326 67.5873 0.850656 88.6144 0.353748C109.641 -0.143161 124.471 -1.13678 147.397 5.81825C170.324 12.7733 185.156 28.6101 191.285 48.5436Z" fill="#131324"/>
<path d="M145.322 91.5976C144.802 100.312 140.38 108.719 133.496 114.085C131.341 115.764 128.889 117.181 126.189 117.6C120.1 118.545 114.151 113.984 111.802 108.289C109.452 102.592 110.007 96.1115 111.383 90.1061C113.159 82.3426 117.11 74.0209 124.691 71.5757C136.912 67.6331 145.967 80.8043 145.322 91.5976Z" fill="#E48B73"/>
<path d="M118.372 110.72C120.983 109.685 123.293 107.905 124.957 105.643C125.291 105.189 125.611 104.688 125.656 104.127C125.744 103.051 124.842 102.181 124.017 101.487C122.349 100.08 120.682 98.6736 119.013 97.2671C118.681 96.9858 118.335 96.6869 118.181 96.2796C118.014 95.8299 118.111 95.3317 118.211 94.8629C119.476 88.8897 121.024 82.4389 125.763 78.5887C127.042 77.55 128.56 76.7339 130.199 76.5669C132.634 76.3193 135.036 77.5485 136.753 79.2919C138.471 81.0354 139.613 83.2521 140.684 85.4512C140.684 85.4512 143.003 97.8238 134.958 106.052C126.913 114.28 118.372 110.72 118.372 110.72Z" fill="#E48B73"/>
<path d="M140.684 85.4525C139.318 83.3223 137.972 81.1437 136.126 79.6083C134.338 78.0729 131.972 77.1924 129.922 77.6729C127.864 78.1725 125.983 79.7533 124.598 81.5905C123.183 83.4278 122.156 85.6005 121.406 87.9051C120.596 90.1921 120.046 92.6124 119.482 95.0562C119.406 95.3638 119.356 95.5997 119.35 95.7286C119.355 95.8781 119.328 95.8107 119.369 95.9C119.447 96.0671 120.076 96.5813 120.515 96.9813C121.464 97.8135 122.398 98.6632 123.324 99.5203L124.723 100.805C125.208 101.261 125.74 101.763 126.125 102.5C126.544 103.201 126.614 104.327 126.207 105.061C125.83 105.801 125.382 106.247 124.94 106.74C123.12 108.651 120.829 110.066 118.369 110.721C120.597 109.508 122.516 107.868 123.913 105.889C124.255 105.401 124.636 104.871 124.771 104.452C124.902 104.03 124.828 103.76 124.582 103.388C124.084 102.675 122.931 101.929 121.957 101.141C120.955 100.372 119.96 99.595 118.98 98.8009C118.486 98.3585 118.038 98.168 117.345 97.327C117.008 96.9066 116.807 96.2004 116.825 95.7184C116.822 95.2144 116.91 94.8305 116.964 94.5214C117.457 92.0352 118.002 89.5167 118.833 87.0275C119.695 84.5617 120.849 82.0945 122.594 79.9848C123.464 78.9285 124.484 78.0069 125.615 77.2055C126.755 76.4144 128.088 75.7976 129.55 75.5954C131.017 75.3844 132.507 75.6525 133.771 76.24C135.041 76.8275 136.139 77.6685 137.046 78.6589C138.839 80.6705 139.85 83.0674 140.684 85.4525Z" fill="#131324"/>
<path d="M72.3344 171.784C84.8169 165.298 95.8475 156.037 104.399 144.867C98.4949 158.887 89.5081 171.904 78.5068 182.412" fill="#131324"/>
<path d="M234.425 260.732C234.425 260.732 183.584 182.308 166.637 176.305C149.691 170.303 114.737 196.783 91.7874 215.496C78.6708 226.191 64.2854 241.168 54.3664 252.039C46.0328 261.172 39.7733 271.938 35.4051 283.505L18.0236 329.529L234.425 260.732Z" fill="#2B264C"/>
</svg>
