<svg width="467" height="547" viewBox="0 0 467 547" fill="none" xmlns="http://www.w3.org/2000/svg">
<path d="M295.022 265.069C295.022 265.069 297.857 276.078 301.026 279.533C304.195 282.987 306.864 279.101 306.864 279.101C306.864 279.101 313.867 304.574 322.708 335.013C331.547 365.451 327.544 370.416 322.874 379.915C318.204 389.414 310.701 390.061 314.369 393.085C318.038 396.108 331.713 400.426 342.053 389.414C352.394 378.405 345.056 348.398 337.217 317.094C329.38 285.792 318.538 260.103 318.538 260.103C321.039 256.864 318.204 253.196 318.204 253.196C318.204 253.196 324.875 252.333 328.878 244.561C332.88 236.79 335.881 235.925 345.888 233.767C355.894 231.609 358.229 229.018 369.569 221.679C380.909 214.34 384.58 215.635 391.249 210.022C397.921 204.41 405.592 208.296 409.929 201.818C414.265 195.343 417.6 197.932 424.937 192.751C432.275 187.57 433.944 178.071 442.949 170.732C451.954 163.394 452.287 154.327 454.957 143.099C457.626 131.874 465.963 136.623 466.964 126.693C467.966 116.763 447.619 96.0389 438.278 80.0644C428.938 64.09 428.272 59.3406 422.602 48.5471C416.932 37.7537 398.921 23.937 382.91 14.8697C366.9 5.80236 360.562 2.34756 348.889 3.64466C337.215 4.93928 337.883 2.78158 325.541 0.621398C313.199 -1.5363 304.529 2.34756 298.525 5.80236C292.521 9.25716 292.187 13.1435 284.516 18.3245C276.845 23.5054 279.845 32.1412 279.845 32.1412C276.511 27.8233 268.172 26.5287 254.163 26.9602C240.154 27.3918 239.152 25.2341 233.482 25.2341H233.518C227.848 25.2341 226.846 27.3918 212.837 26.9602C198.828 26.5287 190.489 27.8233 187.154 32.1412C187.154 32.1412 190.157 23.5054 182.484 18.3245C174.813 13.1435 174.479 9.25716 168.475 5.80236C162.471 2.34756 153.798 -1.5363 141.459 0.621398C129.117 2.7791 129.785 4.93928 118.111 3.64466C106.437 2.35004 100.1 5.80236 84.0894 14.8697C68.0791 23.937 50.0676 37.7537 44.3976 48.5471C38.7277 59.3406 38.0599 64.09 28.7213 80.0644C19.3827 96.0389 -0.963993 116.763 0.035528 126.693C1.03729 136.623 9.37411 131.874 12.0432 143.099C14.7124 154.324 15.0463 163.391 24.0509 170.732C33.0556 178.074 34.7252 187.57 42.0625 192.751C49.3997 197.932 52.7367 195.343 57.0732 201.818C61.4097 208.294 69.0809 204.407 75.7526 210.022C82.4243 215.635 86.0929 214.34 97.4328 221.679C108.773 229.018 111.108 231.609 121.114 233.767C131.121 235.925 134.122 236.79 138.124 244.561C142.127 252.333 148.798 253.196 148.798 253.196C148.798 253.196 145.963 256.867 148.464 260.103C148.464 260.103 137.624 285.792 129.785 317.094C121.948 348.395 114.608 378.402 124.949 389.414C135.289 400.423 148.964 396.105 152.633 393.085C156.301 390.061 148.796 389.414 144.128 379.915C139.457 370.416 135.455 365.451 144.294 335.013C153.133 304.574 160.138 279.101 160.138 279.101C160.138 279.101 162.807 282.987 165.976 279.533C169.145 276.078 171.98 265.069 171.98 265.069C171.98 265.069 176.151 278.238 187.074 314.073C197.999 349.908 204.24 407.764 208.142 446.191C212.044 484.618 217.115 510.092 236.622 532.973C256.128 555.857 284.22 545.061 298.655 539.88C313.09 534.699 322.843 516.565 320.503 498.433C318.163 480.298 309.97 466.915 292.023 472.959C274.077 479.003 276.809 495.412 279.928 505.342C279.928 505.342 268.613 503.616 266.273 470.802C263.934 437.987 267.833 384.451 278.758 342.138C289.681 299.825 295.681 274.352 295.022 265.069Z" fill="black"/>
</svg>
