<svg width="106" height="106" viewBox="0 0 106 106" fill="none" xmlns="http://www.w3.org/2000/svg">
<circle cx="53" cy="53" r="53" fill="white"/>
<circle cx="52.7602" cy="52.7568" r="41.643" stroke="#5199D3" stroke-width="4"/>
<path d="M40.4071 38.1782C40.4071 37.7166 40.781 37.3428 41.2425 37.3428H53.817C54.2783 37.3428 54.6525 37.7165 54.6525 38.1782C54.6525 38.6394 54.2784 39.0135 53.817 39.0135H41.2424C40.781 39.0135 40.4071 38.6394 40.4071 38.1782ZM38.3028 46.5428H62.8428C63.3043 46.5428 63.6779 46.1685 63.6779 45.7073C63.6779 45.2459 63.3043 44.8718 62.8428 44.8718H38.3028C37.8415 44.8718 37.4673 45.2458 37.4673 45.7073C37.4673 46.1684 37.8415 46.5428 38.3028 46.5428ZM38.3028 54.0718H45.2642C45.7255 54.0718 46.0996 53.6978 46.0996 53.2361C46.0996 52.7748 45.7256 52.401 45.2642 52.401H38.3028C37.8415 52.401 37.4673 52.7747 37.4673 53.2361C37.4673 53.6977 37.8415 54.0718 38.3028 54.0718ZM38.3028 61.6006H43.8391C44.3009 61.6006 44.6746 61.2271 44.6746 60.7655C44.6746 60.3038 44.301 59.9301 43.8391 59.9301H38.3028C37.8415 59.9301 37.4673 60.3037 37.4673 60.7655C37.4673 61.2272 37.8415 61.6006 38.3028 61.6006ZM47.0228 67.4589H38.3028C37.8415 67.4589 37.4673 67.8331 37.4673 68.2946C37.4673 68.7561 37.8414 69.1299 38.3028 69.1299H47.0228C47.484 69.1299 47.8582 68.7562 47.8582 68.2946C47.8582 67.8332 47.484 67.4589 47.0228 67.4589ZM73.2925 78.4277C72.8622 78.7876 72.3166 78.9855 71.7543 78.9855C71.0407 78.9855 70.3698 78.6733 69.9136 78.1289L69.6611 77.8273V78.2958C69.6611 78.7576 69.2871 79.1315 68.8257 79.1315L32.32 79.1318C32.0985 79.1318 31.886 79.0439 31.729 78.8873C31.5724 78.7301 31.4844 78.5178 31.4844 78.2964V28.1767C31.4844 27.7151 31.8586 27.3413 32.3201 27.3413H58.8461C59.0677 27.3413 59.2802 27.4294 59.4368 27.5863L69.4165 37.5656C69.5733 37.7223 69.6613 37.9346 69.6613 38.156V70.3588L73.5903 75.0484C74.4394 76.0621 74.306 77.5779 73.2925 78.4277ZM67.9905 65.6275C67.6013 66.2968 67.1456 66.9354 66.6224 67.5316L67.6829 68.7976C67.7831 68.7663 67.8876 68.7561 67.9905 68.7633V65.6275ZM65.5153 52.6382C63.4955 50.2274 60.5311 48.8446 57.3827 48.8446C54.9011 48.8446 52.4855 49.7237 50.5802 51.3204C48.4096 53.1392 47.0769 55.6943 46.8283 58.5152C46.5792 61.336 47.4439 64.085 49.2626 66.2554C51.2823 68.6664 54.2339 69.8206 57.3826 69.8206C59.8638 69.8206 62.2927 69.1699 64.198 67.5731C68.6784 63.8185 69.2692 57.1188 65.5153 52.6382ZM66.3607 69.8206L65.4316 68.712C65.3775 68.759 65.3256 68.808 65.271 68.8535C65.2163 68.8997 65.1563 68.9392 65.1004 68.9841L66.0322 70.0961L66.3607 69.8206ZM67.9926 75.8362L64.8941 72.1394C64.752 71.9691 64.6831 71.75 64.7029 71.5291C64.7121 71.4193 64.7435 71.3142 64.793 71.2184L63.7266 69.946C61.8236 71.0935 59.634 71.7194 57.3949 71.7194C53.751 71.7194 50.32 70.1191 47.9823 67.3288C45.8767 64.8156 44.8759 61.634 45.1638 58.3682C45.4518 55.103 46.9944 52.1456 49.5071 50.0402C51.7122 48.1924 54.5095 47.1743 57.3826 47.1743C61.0265 47.1743 64.4575 48.7747 66.7957 51.5649C67.2499 52.107 67.6458 52.6782 67.9904 53.2692V38.502L59.6817 30.1935V37.3207H63.8098C64.2712 37.3207 64.645 37.6944 64.645 38.1562C64.645 38.6174 64.2713 38.9912 63.8098 38.9912H58.8463C58.3851 38.9912 58.0109 38.6175 58.0109 38.1562V29.012H33.155V77.4608L67.9905 77.4604V75.8566C67.9905 75.8496 67.992 75.8431 67.9926 75.8362ZM72.3097 76.122L67.8277 70.7715L66.7118 71.7064L71.1946 77.0564C71.3321 77.2208 71.5359 77.3151 71.7543 77.3151C71.875 77.3151 72.0536 77.286 72.2195 77.1471C72.5271 76.8892 72.5676 76.4295 72.3097 76.122Z" fill="#5199D3"/>
</svg>
