<svg width="106" height="106" viewBox="0 0 106 106" fill="none" xmlns="http://www.w3.org/2000/svg">
<circle cx="53" cy="53" r="53" fill="white"/>
<circle cx="52.7602" cy="52.7568" r="41.643" stroke="#5199D3" stroke-width="4"/>
<mask id="mask0_984_5068" style="mask-type:luminance" maskUnits="userSpaceOnUse" x="27" y="27" width="52" height="51">
<path d="M78.1035 77.8047V27.1221H27.4209V77.8047H78.1035Z" fill="white" stroke="white" stroke-width="0.15387"/>
</mask>
<g mask="url(#mask0_984_5068)">
<path d="M62.4471 72.6767C62.5902 72.9601 62.7264 73.2473 62.8533 73.5397L64.1712 76.5749C64.3815 77.0593 64.9749 77.2412 65.4205 76.9579L73.9547 71.5343C74.3636 71.2746 74.477 70.7284 74.2056 70.3274C72.8755 68.3621 69.3287 63.1213 69.3287 63.1213C67.7924 60.7775 68.6219 57.6963 68.7801 55.1184C68.962 52.1548 68.0336 49.2429 66.7632 46.5906C66.1132 45.2336 65.345 43.9352 64.5237 42.6756C62.924 40.2217 61.105 37.9237 59.3298 35.5968C58.8775 35.0038 58.0502 34.81 57.4065 35.1864C56.8039 35.5387 56.5407 36.2552 56.7516 36.9031C57.6151 39.578 58.6473 42.2356 59.4259 44.93C60.176 47.5261 60.0698 50.502 59.1144 53.0542C57.414 57.5971 57.215 63.1936 59.5161 67.6035C59.8847 68.3101 60.2934 68.9936 60.7078 69.6736" stroke="#5199D3" stroke-width="2.30805" stroke-miterlimit="10" stroke-linecap="round" stroke-linejoin="round"/>
<path d="M59.6172 51.3549L60.3468 48.1992C60.5504 47.3384 61.319 46.7305 62.2036 46.7305C63.1065 46.7305 63.8889 47.3622 64.0711 48.2465C64.4547 50.109 64.7858 53.7609 63.629 59.6054C63.629 59.6054 62.9663 62.0668 63.629 63.3921" stroke="#5199D3" stroke-width="2.30805" stroke-miterlimit="10" stroke-linecap="round" stroke-linejoin="round"/>
<path d="M57.8824 58.5894C58.5611 50.7905 55.2369 41.6337 54.3625 38.463C54.1774 37.7916 54.5199 37.0877 55.1619 36.8179C55.9397 36.4912 56.8265 36.9295 57.0394 37.746L57.7509 39.8394" stroke="#5199D3" stroke-width="2.30805" stroke-miterlimit="10" stroke-linecap="round" stroke-linejoin="round"/>
<path d="M42.3971 40.6276C43.6184 38.92 44.9143 37.2659 46.1876 35.5968C46.6399 35.0038 47.4672 34.81 48.1109 35.1864C48.7135 35.5387 48.9768 36.2552 48.7659 36.9031C47.9022 39.578 46.8701 42.2356 46.0915 44.93C45.3413 47.5262 45.4477 50.502 46.4031 53.0542C48.1035 57.5971 48.3025 63.1936 46.0013 67.6036C44.9497 69.6189 43.5728 71.4471 42.6641 73.5398L41.3462 76.5749C41.1359 77.0593 40.5425 77.2412 40.0969 76.9579L31.5626 71.5343C31.1539 71.2746 31.0404 70.7284 31.3118 70.3274C32.6419 68.3621 36.1888 63.1213 36.1888 63.1213C37.725 60.7775 36.8955 57.6963 36.7373 55.1184C36.5554 52.1549 37.4839 49.243 38.7543 46.5907C39.256 45.5428 39.8284 44.5302 40.4412 43.543" stroke="#5199D3" stroke-width="2.30805" stroke-miterlimit="10" stroke-linecap="round" stroke-linejoin="round"/>
<path d="M45.905 51.3549L45.1754 48.1992C44.9718 47.3384 44.2032 46.7305 43.3186 46.7305C42.4157 46.7305 41.6333 47.3622 41.4511 48.2465C41.0675 50.109 40.7364 53.7609 41.8932 59.6054C41.8932 59.6054 42.5559 62.0668 41.8932 63.3921" stroke="#5199D3" stroke-width="2.30805" stroke-miterlimit="10" stroke-linecap="round" stroke-linejoin="round"/>
<path d="M47.6376 58.5894C46.9588 50.7905 50.2831 41.6337 51.1575 38.463C51.3425 37.7916 51.0001 37.0877 50.3581 36.8179C49.5802 36.4912 48.6935 36.9295 48.4806 37.746L47.7691 39.8394" stroke="#5199D3" stroke-width="2.30805" stroke-miterlimit="10" stroke-linecap="round" stroke-linejoin="round"/>
<path d="M52.7578 27.8338V30.2026" stroke="#5199D3" stroke-width="2.30805" stroke-miterlimit="10" stroke-linecap="round" stroke-linejoin="round"/>
<path d="M40.4453 31.2913L42.1204 32.9663" stroke="#5199D3" stroke-width="2.30805" stroke-miterlimit="10" stroke-linecap="round" stroke-linejoin="round"/>
<path d="M36.9844 39.6382H39.3532" stroke="#5199D3" stroke-width="2.30805" stroke-miterlimit="10" stroke-linecap="round" stroke-linejoin="round"/>
<path d="M66.1641 39.6382H68.5328" stroke="#5199D3" stroke-width="2.30805" stroke-miterlimit="10" stroke-linecap="round" stroke-linejoin="round"/>
<path d="M63.3984 32.9663L65.0735 31.2913" stroke="#5199D3" stroke-width="2.30805" stroke-miterlimit="10" stroke-linecap="round" stroke-linejoin="round"/>
</g>
</svg>
