<svg width="106" height="106" viewBox="0 0 106 106" fill="none" xmlns="http://www.w3.org/2000/svg">
<circle cx="53" cy="53" r="53" fill="white"/>
<circle cx="53.5883" cy="52.7568" r="41.643" stroke="#5199D3" stroke-width="4"/>
<path d="M53.4606 33.0429C53.0276 33.0429 52.6124 32.8709 52.3063 32.5648C52.0001 32.2587 51.8281 31.8434 51.8281 31.4105V28.1456C51.8281 27.7127 52.0001 27.2975 52.3063 26.9913C52.6124 26.6852 53.0276 26.5132 53.4606 26.5132C53.8935 26.5132 54.3087 26.6852 54.6149 26.9913C54.921 27.2975 55.093 27.7127 55.093 28.1456V31.4105C55.093 31.8434 54.921 32.2587 54.6149 32.5648C54.3087 32.8709 53.8935 33.0429 53.4606 33.0429Z" fill="#5199D3"/>
<path d="M38.4562 39.2581C38.2416 39.2582 38.029 39.2161 37.8307 39.134C37.6324 39.0519 37.4522 38.9316 37.3004 38.7798L34.9938 36.4699C34.7085 36.1599 34.5541 35.7517 34.5629 35.3306C34.5716 34.9094 34.7428 34.5079 35.0406 34.2101C35.3385 33.9122 35.74 33.741 36.1611 33.7323C36.5823 33.7236 36.9905 33.878 37.3004 34.1632L39.6103 36.4699C39.8386 36.6982 39.994 36.989 40.0569 37.3056C40.1199 37.6222 40.0876 37.9504 39.9641 38.2487C39.8405 38.5469 39.6313 38.8018 39.363 38.9812C39.0946 39.1606 38.779 39.258 38.4562 39.2581Z" fill="#5199D3"/>
<path d="M32.2411 54.2629H28.9762C28.5432 54.2629 28.128 54.0909 27.8219 53.7848C27.5157 53.4786 27.3438 53.0634 27.3438 52.6305C27.3438 52.1975 27.5157 51.7823 27.8219 51.4762C28.128 51.17 28.5432 50.998 28.9762 50.998H32.2411C32.674 50.998 33.0892 51.17 33.3954 51.4762C33.7015 51.7823 33.8735 52.1975 33.8735 52.6305C33.8735 53.0634 33.7015 53.4786 33.3954 53.7848C33.0892 54.0909 32.674 54.2629 32.2411 54.2629Z" fill="#5199D3"/>
<path d="M77.952 54.2629H74.6871C74.2542 54.2629 73.839 54.0909 73.5328 53.7848C73.2267 53.4786 73.0547 53.0634 73.0547 52.6305C73.0547 52.1975 73.2267 51.7823 73.5328 51.4762C73.839 51.17 74.2542 50.998 74.6871 50.998H77.952C78.3849 50.998 78.8002 51.17 79.1063 51.4762C79.4124 51.7823 79.5844 52.1975 79.5844 52.6305C79.5844 53.0634 79.4124 53.4786 79.1063 53.7848C78.8002 54.0909 78.3849 54.2629 77.952 54.2629Z" fill="#5199D3"/>
<path d="M68.4697 39.258C68.1465 39.2582 67.8306 39.1626 67.5618 38.9831C67.2931 38.8037 67.0836 38.5485 66.9601 38.2499C66.8365 37.9513 66.8043 37.6228 66.8675 37.3059C66.9308 36.989 67.0867 36.698 67.3155 36.4698L69.6254 34.1632C69.7745 34.0012 69.9547 33.8711 70.1553 33.7806C70.3559 33.6901 70.5727 33.6411 70.7927 33.6366C71.0128 33.632 71.2314 33.672 71.4356 33.7541C71.6398 33.8362 71.8252 33.9587 71.9809 34.1144C72.1365 34.27 72.259 34.4554 72.3411 34.6596C72.4232 34.8638 72.4632 35.0825 72.4586 35.3025C72.4541 35.5225 72.4051 35.7393 72.3146 35.9399C72.2241 36.1405 72.094 36.3208 71.9321 36.4698L69.6254 38.7797C69.4737 38.9315 69.2935 39.0519 69.0952 39.1339C68.8969 39.216 68.6843 39.2582 68.4697 39.258Z" fill="#5199D3"/>
<path d="M53.4593 78.7506C51.7275 78.7506 50.0667 78.0627 48.8421 76.8381C47.6175 75.6135 46.9296 73.9527 46.9296 72.2209V68.6001C46.9237 68.2923 46.8327 67.9922 46.6667 67.7329C46.5008 67.4736 46.2663 67.2652 45.9893 67.1309C43.2367 65.7311 40.9416 63.5736 39.3743 60.9128C37.807 58.252 37.0329 55.1987 37.1431 52.1125C37.3225 47.9725 39.0499 44.0507 41.9833 41.1236C44.9167 38.1966 48.8422 36.4777 52.9827 36.3073C56.3744 36.1942 59.7152 37.1545 62.5291 39.0514C62.7114 39.1688 62.8684 39.3213 62.9911 39.5C63.1137 39.6788 63.1996 39.8801 63.2436 40.0924C63.2876 40.3046 63.2889 40.5235 63.2474 40.7363C63.2059 40.949 63.1224 41.1514 63.0019 41.3316C62.8813 41.5117 62.7261 41.6661 62.5453 41.7856C62.3645 41.9051 62.1616 41.9874 61.9487 42.0278C61.7357 42.0681 61.5168 42.0655 61.3048 42.0203C61.0928 41.9752 60.8919 41.8882 60.7139 41.7645C58.4579 40.2569 55.7878 39.4905 53.0757 39.5722C49.7626 39.7062 46.6208 41.0801 44.2731 43.4216C41.9253 45.763 40.5429 48.9011 40.3998 52.2138C40.3118 54.683 40.9313 57.126 42.1854 59.2549C43.4394 61.3838 45.2758 63.11 47.4781 64.2301C48.2902 64.6367 48.9738 65.2603 49.4533 66.0316C49.9328 66.8029 50.1893 67.6919 50.1945 68.6001V72.2209C50.1945 73.0868 50.5384 73.9172 51.1507 74.5295C51.763 75.1418 52.5934 75.4858 53.4593 75.4858C54.3252 75.4858 55.1557 75.1418 55.7679 74.5295C56.3802 73.9172 56.7242 73.0868 56.7242 72.2209V68.6018C56.7294 67.6929 56.9859 66.8033 57.4653 66.0312C57.9447 65.259 58.6283 64.6346 59.4406 64.2268C61.0754 63.3858 62.514 62.2088 63.6621 60.7729C64.8102 59.337 65.6418 57.6747 66.1025 55.8949C66.5632 54.1152 66.6426 52.2581 66.3354 50.4455C66.0282 48.6329 65.3413 46.9057 64.3199 45.3771C64.079 45.0173 63.9908 44.5766 64.0749 44.1518C64.1589 43.727 64.4082 43.353 64.768 43.1121C65.1278 42.8712 65.5686 42.783 65.9933 42.8671C66.4181 42.9511 66.7921 43.2004 67.033 43.5602C68.3103 45.471 69.1694 47.6302 69.5539 49.8963C69.9384 52.1623 69.8396 54.4841 69.2641 56.7093C68.6886 58.9345 67.6492 61.0129 66.2143 62.8084C64.7793 64.6038 62.9811 66.0758 60.9375 67.1277C60.6599 67.262 60.4245 67.4701 60.2573 67.7293C60.09 67.9884 59.9972 68.2886 59.9891 68.5969V72.2209C59.9891 73.9527 59.3011 75.6135 58.0766 76.8381C56.852 78.0627 55.1911 78.7506 53.4593 78.7506Z" fill="#5199D3"/>
<path d="M50.1972 59.162C49.7643 59.1619 49.3491 58.9898 49.043 58.6837L44.1457 53.7864C43.8484 53.4785 43.6838 53.0661 43.6876 52.6381C43.6913 52.2101 43.863 51.8007 44.1656 51.498C44.4683 51.1953 44.8777 51.0236 45.3058 51.0199C45.7338 51.0162 46.1461 51.1807 46.454 51.4781L50.1972 55.2213L58.8377 46.5808C59.1455 46.2834 59.5579 46.1189 59.9859 46.1226C60.4139 46.1263 60.8234 46.298 61.126 46.6007C61.4287 46.9034 61.6004 47.3128 61.6041 47.7408C61.6078 48.1688 61.4433 48.5812 61.1459 48.8891L51.3513 58.6837C51.0452 58.9898 50.6301 59.1619 50.1972 59.162Z" fill="#5199D3"/>
</svg>
