<svg width="106" height="106" viewBox="0 0 106 106" fill="none" xmlns="http://www.w3.org/2000/svg">
<circle cx="53" cy="53" r="53" fill="white"/>
<circle cx="53.5883" cy="52.7568" r="41.643" stroke="#5199D3" stroke-width="4"/>
<path fill-rule="evenodd" clip-rule="evenodd" d="M51.6008 54.8387L64.5644 68.1245L67.8047 64.8037L56.4613 53.1782L67.8047 41.5528L64.5644 38.2319L51.6008 51.5178C51.1712 51.9582 50.9298 52.5555 50.9298 53.1782C50.9298 53.801 51.1712 54.3983 51.6008 54.8387Z" fill="#5199D3"/>
<path fill-rule="evenodd" clip-rule="evenodd" d="M39.0383 54.719L52.0019 68.0049L55.2422 64.684L43.8988 53.0586L55.2422 41.4332L52.0019 38.1123L39.0383 51.3982C38.6087 51.8386 38.3673 52.4358 38.3673 53.0586C38.3673 53.6814 38.6087 54.2786 39.0383 54.719Z" fill="#5199D3"/>
</svg>
