<svg width="118" height="118" viewBox="0 0 118 118" fill="none" xmlns="http://www.w3.org/2000/svg">
<rect x="1" y="1" width="116" height="116" rx="58" stroke="#F08648" stroke-width="2"/>
<path d="M54.7446 68.3727C54.4283 66.3652 54.2152 64.3427 54.1062 62.3132C53.9065 60.4054 54.0347 58.4774 54.4853 56.6128C56.0085 51.8939 57.1373 47.0567 57.8599 42.151C58.2521 39.8644 58.0819 37.5167 57.364 35.3105C56.2479 32.3292 54.2831 29.7401 51.712 27.863C49.3705 26.0186 46.4793 25.0105 43.4986 24.9991C40.5179 24.9878 37.6191 25.9738 35.2635 27.8003C33.437 29.2637 31.9908 31.1466 31.048 33.2888C30.1052 35.431 29.6935 37.7691 29.8482 40.1045C30.0159 43.035 30.4849 45.9404 31.2476 48.7748C31.4186 49.4874 31.6153 50.1999 31.8176 50.9096C32.2199 52.2452 32.5341 53.6058 32.7582 54.9825C33.315 59.0309 33.6244 63.1095 33.6845 67.1956C33.847 73.6085 38.1308 80.2438 45.0198 80.2438C46.7033 80.297 48.3735 79.9296 49.8794 79.175C51.6983 78.0886 53.14 76.4704 54.0101 74.5387C54.8801 72.6069 55.1365 70.4548 54.7446 68.3727ZM48.8219 77.1542C47.6398 77.7395 46.3291 78.017 45.0112 77.9608C39.516 77.9608 36.0901 72.4599 35.9533 67.0674C35.8919 62.9114 35.5749 58.7632 35.0042 54.6462C34.7664 53.1784 34.4342 51.7275 34.0094 50.3025C33.8213 49.6156 33.6304 48.9287 33.4594 48.219C32.7316 45.5294 32.2827 42.7721 32.1198 39.9905C31.9874 38.0176 32.3327 36.0418 33.1266 34.2308C33.9205 32.4197 35.1395 30.8269 36.6801 29.5873C38.5838 28.086 40.9393 27.2724 43.3638 27.2787C45.8927 27.2881 48.3473 28.1351 50.3439 29.6871C52.5574 31.297 54.2516 33.5193 55.2178 36.0801C55.8122 37.9364 55.9442 39.9099 55.6025 41.8289C54.8966 46.6099 53.7955 51.3241 52.3106 55.9231C51.7671 58.0457 51.604 60.2478 51.8289 62.4272C51.9391 64.5275 52.1598 66.6206 52.4901 68.6977V68.7148C52.8125 70.3277 52.6338 72.0006 51.9782 73.5091C51.3225 75.0176 50.2212 76.2895 48.8219 77.1542Z" fill="#F08648"/>
<path d="M48.5449 33.5605C47.5224 32.8169 46.3298 32.3416 45.0762 32.1782V30.6904C45.0762 30.388 44.956 30.098 44.7422 29.8842C44.5284 29.6704 44.2385 29.5503 43.9361 29.5503C43.6337 29.5503 43.3437 29.6704 43.1299 29.8842C42.9161 30.098 42.796 30.388 42.796 30.6904V32.1867C42.5708 32.2181 42.3428 32.2181 42.1177 32.2694C41.111 32.5009 40.1636 32.9397 39.3359 33.5577C37.8997 34.7806 36.7789 36.331 36.0681 38.0782C35.3572 39.8253 35.0771 41.7179 35.2515 43.596C35.4342 46.0493 35.9127 48.4715 36.6766 50.8099C36.9388 51.759 37.1897 52.6711 37.3806 53.4891C37.4391 53.7393 37.5804 53.9625 37.7817 54.1224C37.983 54.2823 38.2323 54.3694 38.4894 54.3698C38.5775 54.3687 38.6653 54.3592 38.7516 54.3413C38.8979 54.3077 39.0361 54.2455 39.1584 54.1584C39.2806 54.0712 39.3844 53.9608 39.4639 53.8334C39.5433 53.706 39.5968 53.5642 39.6213 53.4161C39.6458 53.268 39.6408 53.1165 39.6066 52.9703C39.41 52.1153 39.1506 51.1833 38.8798 50.2028C38.1805 48.0596 37.7319 45.8425 37.5431 43.596C37.3757 42.0739 37.5754 40.5339 38.1253 39.1048C38.6752 37.6757 39.5594 36.3991 40.704 35.3818C41.2806 34.9554 41.9397 34.6535 42.6392 34.4954C43.4153 34.3072 44.2229 34.2897 45.0063 34.4442C45.7898 34.5988 46.5303 34.9216 47.1768 35.3903C48.32 36.4067 49.2035 37.682 49.7534 39.1095C50.3032 40.537 50.5036 42.0753 50.3376 43.596C50.1535 45.831 49.7126 48.0373 49.0237 50.1714C48.7387 51.1547 48.4907 52.101 48.2912 52.9504C48.2228 53.2452 48.2743 53.5551 48.4344 53.8119C48.5945 54.0688 48.85 54.2515 49.1448 54.3199C49.4396 54.3883 49.7495 54.3368 50.0064 54.1767C50.2632 54.0166 50.4459 53.7611 50.5143 53.4663C50.7025 52.6454 50.9561 51.7305 51.2212 50.7785C51.9785 48.447 52.4513 46.0325 52.6292 43.5875C52.8019 41.7112 52.5211 39.8208 51.8102 38.0757C51.0994 36.3307 49.9795 34.7821 48.5449 33.5605Z" fill="#F08648"/>
<path d="M82.7304 67.4418C84.4092 65.0239 85.8343 62.4393 86.9829 59.7291C87.9145 57.5811 88.3133 55.2398 88.1456 52.9045C87.9779 50.5692 87.2485 48.309 86.0196 46.3161C84.4219 43.8052 82.03 41.901 79.2249 40.9067C76.4197 39.9124 73.3625 39.8852 70.5401 40.8295C67.47 41.7329 64.732 43.5165 62.6651 45.9599C61.2523 47.7961 60.3065 49.9479 59.9089 52.2303C58.9451 57.0733 58.3827 61.9875 58.2273 66.923C58.0213 68.8588 57.4864 70.7452 56.6454 72.5008C55.8674 74.3593 54.9922 76.1755 54.0233 77.9419C52.9511 79.771 52.4666 81.8853 52.6354 83.9988C52.8041 86.1122 53.6179 88.1229 54.9667 89.7588C56.1308 90.9796 57.5819 91.8899 59.1878 92.4066C60.2699 92.7978 61.4118 92.9984 62.5624 92.9994C65.2007 92.7887 67.7191 91.8081 69.805 90.1791C71.891 88.5501 73.4528 86.3446 74.2967 83.8361C75.7179 80.0325 77.3723 76.3202 79.2504 72.7203C79.9238 71.5061 80.6739 70.3361 81.4963 69.2174C81.921 68.636 82.3428 68.0346 82.7304 67.4418ZM79.6323 67.9263C78.7537 69.1188 77.9549 70.368 77.241 71.6657C75.3025 75.3781 73.5948 79.2066 72.1277 83.1292C70.2095 88.0942 65.1362 92.1244 59.9545 90.2718C58.6959 89.8806 57.5567 89.1777 56.6426 88.2282C55.6154 86.9418 55.0063 85.3719 54.8973 83.7293C54.7883 82.0867 55.1845 80.4501 56.0326 79.0392C57.0385 77.2076 57.9462 75.3239 58.7517 73.3958C59.7086 71.3958 60.3031 69.2419 60.5075 67.0342C60.653 62.2196 61.1974 57.4253 62.1349 52.7006C62.4548 50.7802 63.2374 48.9666 64.4151 47.4163C66.1971 45.3149 68.5567 43.7828 71.2014 43.0099C72.3509 42.6348 73.5521 42.4424 74.7613 42.4399C76.6191 42.4245 78.4501 42.8834 80.081 43.7732C81.7119 44.663 83.0888 45.9542 84.0814 47.5246C85.1162 49.2096 85.7289 51.1195 85.8673 53.0919C86.0058 55.0644 85.6659 57.0411 84.8766 58.8541C83.782 61.4256 82.4268 63.8782 80.8322 66.1734C80.4503 66.7634 80.0399 67.3448 79.6323 67.9263Z" fill="#F08648"/>
<path d="M78.0624 48.2205C77.8686 48.0951 77.6548 48.021 77.4525 47.9156L77.9569 46.5076C78.0075 46.3664 78.0297 46.2168 78.0224 46.0671C78.0151 45.9174 77.9783 45.7706 77.9143 45.6351C77.8503 45.4996 77.7601 45.378 77.6491 45.2773C77.5381 45.1766 77.4083 45.0988 77.2672 45.0483C76.9822 44.9462 76.6684 44.9616 76.3947 45.0909C76.121 45.2203 75.9099 45.453 75.8079 45.738L75.3063 47.1375C74.0721 46.8674 72.7898 46.9134 71.5782 47.2714C69.8161 47.941 68.2407 49.0243 66.9848 50.43C65.7288 51.8358 64.8292 53.5227 64.3615 55.3489C63.7068 57.7101 63.3402 60.1419 63.2699 62.5912C63.1958 63.5774 63.1274 64.5293 63.0305 65.3673C63.0087 65.6607 63.1013 65.9511 63.2887 66.1778C63.4761 66.4046 63.744 66.5501 64.0362 66.5839C64.3284 66.6178 64.6224 66.5374 64.8568 66.3595C65.0911 66.1816 65.2476 65.9201 65.2935 65.6295C65.3961 64.7744 65.4674 63.7797 65.5415 62.7594C65.6086 60.5149 65.9337 58.2857 66.5106 56.1156C66.866 54.627 67.5726 53.245 68.5712 52.0853C69.5699 50.9255 70.8315 50.0216 72.2508 49.449C73.0177 49.2261 73.8237 49.1722 74.6135 49.2908C75.4032 49.4093 76.1578 49.6976 76.8254 50.1359C77.4324 50.5217 77.9519 51.0305 78.3503 51.6294C79.0859 52.9722 79.4894 54.4716 79.5271 56.0023C79.5647 57.533 79.2355 59.0505 78.5669 60.4279C77.6326 62.4824 76.4639 64.4221 75.0839 66.2081C74.4997 67.0375 73.9439 67.8355 73.4707 68.5623C73.3828 68.688 73.3212 68.8301 73.2894 68.9802C73.2577 69.1302 73.2566 69.2852 73.2862 69.4356C73.3158 69.5861 73.3754 69.7291 73.4615 69.856C73.5476 69.9829 73.6585 70.0912 73.7874 70.1742C73.9163 70.2573 74.0607 70.3135 74.2118 70.3395C74.363 70.3655 74.5178 70.3607 74.6671 70.3254C74.8163 70.2901 74.9569 70.2251 75.0805 70.1342C75.204 70.0433 75.308 69.9285 75.3861 69.7965C75.8392 69.0925 76.3836 68.3229 76.948 67.5163C78.4535 65.5672 79.7186 63.4437 80.7159 61.1917C81.5119 59.4813 81.8851 57.6046 81.8043 55.7197C81.7234 53.8349 81.1908 51.997 80.2514 50.361C79.6776 49.5038 78.9322 48.775 78.0624 48.2205Z" fill="#F08648"/>
<path d="M38.6183 82.6631C38.0863 82.6631 37.5662 82.8208 37.1238 83.1163C36.6814 83.4119 36.3365 83.8319 36.1328 84.3234C35.9291 84.8148 35.8756 85.3557 35.9792 85.8775C36.0828 86.3994 36.3388 86.8788 36.7148 87.2552C37.0908 87.6316 37.5699 87.8881 38.0917 87.9922C38.6134 88.0963 39.1543 88.0435 39.646 87.8403C40.1377 87.6371 40.5581 87.2926 40.8541 86.8506C41.1501 86.4085 41.3083 85.8885 41.3089 85.3565C41.3089 84.6427 41.0255 83.958 40.521 83.453C40.0165 82.9479 39.3322 82.6638 38.6183 82.6631ZM38.6183 86.6192C38.3679 86.6192 38.1231 86.5449 37.915 86.4057C37.7068 86.2665 37.5446 86.0687 37.4489 85.8373C37.3532 85.6059 37.3283 85.3513 37.3774 85.1057C37.4264 84.8602 37.5472 84.6347 37.7245 84.4578C37.9018 84.281 38.1275 84.1607 38.3732 84.1122C38.6189 84.0636 38.8734 84.0891 39.1046 84.1853C39.3358 84.2816 39.5332 84.4442 39.6719 84.6527C39.8106 84.8612 39.8844 85.1061 39.8838 85.3565C39.8808 85.6902 39.7461 86.0091 39.5091 86.244C39.2721 86.4789 38.952 86.6106 38.6183 86.6106V86.6192Z" fill="#F08648"/>
<path d="M33.4566 79.3364C33.0653 79.3364 32.6829 79.4524 32.3576 79.6698C32.0323 79.8871 31.7788 80.1961 31.6291 80.5575C31.4794 80.9189 31.4402 81.3167 31.5165 81.7004C31.5928 82.0841 31.7812 82.4365 32.0579 82.7131C32.3345 82.9898 32.687 83.1782 33.0707 83.2545C33.4544 83.3308 33.8521 83.2916 34.2135 83.1419C34.575 82.9922 34.8839 82.7387 35.1012 82.4134C35.3186 82.0881 35.4346 81.7057 35.4346 81.3145C35.4338 80.7901 35.2252 80.2874 34.8544 79.9166C34.4836 79.5458 33.9809 79.3372 33.4566 79.3364Z" fill="#F08648"/>
<path d="M64.0333 33.576C64.5653 33.5754 65.0852 33.4171 65.5273 33.1212C65.9694 32.8252 66.3138 32.4048 66.517 31.9131C66.7202 31.4214 66.7731 30.8805 66.669 30.3588C66.5648 29.837 66.3084 29.3579 65.932 28.9819C65.5556 28.6059 65.0761 28.3499 64.5543 28.2463C64.0324 28.1427 63.4916 28.1962 63.0001 28.3999C62.5087 28.6036 62.0886 28.9485 61.7931 29.3909C61.4976 29.8333 61.3398 30.3534 61.3398 30.8854C61.3406 31.5993 61.6247 32.2836 62.1297 32.7881C62.6348 33.2926 63.3194 33.576 64.0333 33.576ZM64.0333 29.6199C64.2834 29.6205 64.5278 29.6952 64.7356 29.8346C64.9433 29.974 65.1051 30.1718 65.2004 30.4031C65.2957 30.6344 65.3204 30.8887 65.2713 31.134C65.2221 31.3793 65.1014 31.6045 64.9243 31.7812C64.7472 31.9579 64.5217 32.0782 64.2763 32.1268C64.0309 32.1754 63.7766 32.1502 63.5455 32.0543C63.3144 31.9584 63.1169 31.7962 62.978 31.5882C62.8391 31.3801 62.7649 31.1356 62.7649 30.8854C62.7657 30.5495 62.8997 30.2276 63.1374 29.9904C63.3752 29.7532 63.6974 29.6199 64.0333 29.6199Z" fill="#F08648"/>
<path d="M69.1948 36.8911C69.5861 36.8911 69.9685 36.7751 70.2938 36.5578C70.6191 36.3404 70.8726 36.0315 71.0223 35.6701C71.172 35.3086 71.2112 34.9109 71.1349 34.5272C71.0585 34.1435 70.8701 33.791 70.5935 33.5144C70.3169 33.2378 69.9644 33.0494 69.5807 32.9731C69.197 32.8967 68.7993 32.9359 68.4379 33.0856C68.0764 33.2353 67.7675 33.4889 67.5502 33.8142C67.3328 34.1394 67.2168 34.5219 67.2168 34.9131C67.2168 35.4377 67.4252 35.9408 67.7961 36.3118C68.1671 36.6827 68.6702 36.8911 69.1948 36.8911Z" fill="#F08648"/>
<path d="M85.1394 74.1128C84.7637 74.1122 84.3963 74.2232 84.0837 74.4315C83.7711 74.6399 83.5273 74.9363 83.3833 75.2833C83.2393 75.6303 83.2015 76.0122 83.2746 76.3806C83.3478 76.7491 83.5286 77.0876 83.7943 77.3533C84.0599 77.6189 84.3984 77.7998 84.7669 77.8729C85.1354 77.9461 85.5173 77.9082 85.8643 77.7642C86.2112 77.6202 86.5077 77.3764 86.716 77.0638C86.9244 76.7512 87.0353 76.3839 87.0347 76.0082C87.034 75.5057 86.8341 75.0241 86.4788 74.6688C86.1235 74.3135 85.6418 74.1135 85.1394 74.1128Z" fill="#F08648"/>
<path d="M81.3459 77.2129C81.0363 77.2123 80.7335 77.3036 80.4758 77.4752C80.2181 77.6468 80.0171 77.891 79.8983 78.1769C79.7794 78.4627 79.748 78.7774 79.808 79.0812C79.8681 79.3849 80.0169 79.664 80.2356 79.8831C80.4543 80.1022 80.7332 80.2515 81.0368 80.3121C81.3404 80.3727 81.6551 80.3419 81.9412 80.2236C82.2273 80.1052 82.4719 79.9047 82.6439 79.6473C82.816 79.3899 82.9078 79.0872 82.9078 78.7776C82.9078 78.3631 82.7434 77.9656 82.4505 77.6722C82.1577 77.3788 81.7604 77.2136 81.3459 77.2129Z" fill="#F08648"/>
</svg>
