<svg width="118" height="118" viewBox="0 0 118 118" fill="none" xmlns="http://www.w3.org/2000/svg">
<rect x="1" y="1" width="116" height="116" rx="58" stroke="#F08648" stroke-width="2"/>
<path d="M74.1012 86.4324C73.5091 86.4324 73.0293 86.9118 73.0293 87.5044V89.3583C73.0293 91.5574 74.8039 93.2985 76.9701 93.2985H81.5452C83.7185 93.2985 85.486 91.5305 85.486 89.3583V87.1956C85.486 86.6031 85.006 86.1235 84.414 86.1235C83.8219 86.1235 83.3421 86.603 83.3421 87.1956V89.3583C83.3421 90.3487 82.536 91.1546 81.5452 91.1546H76.9701C75.9843 91.1546 75.1732 90.3668 75.1732 89.3583V87.5044C75.1732 86.9118 74.6932 86.4324 74.1012 86.4324Z" fill="#F08648"/>
<path d="M33.5856 86.1382C32.9935 86.1382 32.5137 86.6176 32.5137 87.2102V89.3583C32.5137 91.5574 34.2883 93.2985 36.4544 93.2985H41.0149C43.196 93.2985 44.9703 91.5305 44.9703 89.3583V87.5044C44.9703 86.912 44.4904 86.4324 43.8985 86.4324C43.3064 86.4324 42.8264 86.9118 42.8264 87.5044V89.3583C42.8264 90.3487 42.0135 91.1546 41.0149 91.1546H36.4544C35.4686 91.1546 34.6576 90.3668 34.6576 89.3583V87.2102C34.6576 86.6176 34.1776 86.1382 33.5856 86.1382Z" fill="#F08648"/>
<path d="M25 42.4733V50.9913C25 52.8244 26.4839 54.315 28.308 54.315H30.9141V79.3123C30.9141 81.988 33.091 84.1644 35.7661 84.1644H82.2292C84.9043 84.1644 87.0812 81.988 87.0812 79.3123V54.315H89.692C91.5162 54.315 93 52.8244 93 50.9913V42.4733C93 40.6497 91.5161 39.1653 89.692 39.1653H87.0812V34.6588C87.0812 29.1681 82.6138 24.7002 77.1226 24.7002H40.8724C35.3812 24.7002 30.9138 29.168 30.9138 34.6588V39.1653H28.308C26.4839 39.1653 25 40.6497 25 42.4733ZM87.086 41.3091H89.6922C90.3339 41.3091 90.8562 41.8315 90.8562 42.4731V50.9912C90.8562 51.6412 90.3339 52.171 89.6922 52.171H87.086V41.3091ZM84.9374 64.8545H33.058V53.243V40.2372V39.0815H84.9374V64.8545ZM82.2293 82.0204H35.7661C34.2728 82.0204 33.058 80.805 33.058 79.3123V66.9984H84.9374V79.3122C84.9374 80.8051 83.7225 82.0204 82.2293 82.0204ZM40.8727 26.8441H77.1229C81.4317 26.8441 84.9376 30.3499 84.9376 34.6588V36.9376H33.058V34.6586C33.058 30.3499 36.5638 26.8441 40.8727 26.8441ZM30.9141 52.1711H28.308C27.6663 52.1711 27.1439 51.6414 27.1439 50.9913V42.4733C27.1439 41.8316 27.6663 41.3092 28.308 41.3092H30.9141V52.1711Z" fill="#F08648"/>
<path d="M75.6625 69.5371C72.8836 69.5371 70.623 71.7983 70.623 74.5765C70.623 77.3549 72.8837 79.6159 75.6625 79.6159C78.4412 79.6159 80.7024 77.3547 80.7024 74.5765C80.7024 71.7982 78.4412 69.5371 75.6625 69.5371ZM75.6625 77.472C74.0661 77.472 72.767 76.1729 72.767 74.5765C72.767 72.9801 74.0661 71.681 75.6625 71.681C77.2594 71.681 78.5585 72.9801 78.5585 74.5765C78.5585 76.1729 77.2594 77.472 75.6625 77.472Z" fill="#F08648"/>
<path d="M42.3329 69.5371C39.5541 69.5371 37.293 71.7983 37.293 74.5765C37.293 77.3549 39.5542 79.6159 42.3329 79.6159C45.1117 79.6159 47.3723 77.3547 47.3723 74.5765C47.3723 71.7982 45.1118 69.5371 42.3329 69.5371ZM42.3329 77.472C40.736 77.472 39.4369 76.1729 39.4369 74.5765C39.4369 72.9801 40.736 71.681 42.3329 71.681C43.9293 71.681 45.2284 72.9801 45.2284 74.5765C45.2284 76.1729 43.9293 77.472 42.3329 77.472Z" fill="#F08648"/>
<path d="M52.4508 33.4905H65.5451C66.1372 33.4905 66.6171 33.011 66.6171 32.4186C66.6171 31.8261 66.1372 31.3467 65.5451 31.3467H52.4508C51.8588 31.3467 51.3789 31.8261 51.3789 32.4186C51.3789 33.011 51.8588 33.4905 52.4508 33.4905Z" fill="#F08648"/>
</svg>
