<svg width="118" height="118" viewBox="0 0 118 118" fill="none" xmlns="http://www.w3.org/2000/svg">
<rect x="1" y="1" width="116" height="116" rx="58" stroke="#F08648" stroke-width="2"/>
<path d="M86.4238 43.4289L79.3553 36.3604C78.5869 35.5921 77.3474 35.5921 76.5791 36.3604L31.5762 81.3633C30.8079 82.1316 30.8079 83.3711 31.5762 84.1394L38.6447 91.2079C39.0238 91.587 39.5257 91.7816 40.0277 91.7816C40.5297 91.7816 41.0316 91.587 41.4107 91.2079L86.4238 46.1949C87.1921 45.4368 87.1921 44.187 86.4238 43.4289ZM40.0482 89.8045L32.9797 82.7667L67.4412 48.2847L74.4893 55.3327L40.0482 89.8045ZM75.8927 53.9292L68.8447 46.8812L72.6043 43.1114L79.6523 50.1594L75.8927 53.9292ZM81.0558 48.7559L74.0078 41.7079L77.9518 37.7639L84.9998 44.8119L81.0558 48.7559Z" fill="#F08648"/>
<path d="M55.64 35.8785C48.3667 40.3348 43.5928 36.1654 43.3982 35.9912C42.9884 35.6224 42.3635 35.6532 41.9948 36.0527C41.626 36.4522 41.6567 37.0874 42.0562 37.4562C42.0972 37.4971 44.7812 39.8943 49.1452 39.8943C51.2965 39.8943 53.8576 39.3104 56.6952 37.5688C65.4438 32.0267 69.1522 37.0669 69.3161 37.2922C69.6234 37.743 70.238 37.8557 70.699 37.5484C71.1498 37.241 71.2727 36.6161 70.9551 36.1654C70.9039 36.1039 66.0687 29.2813 55.64 35.8785Z" fill="#F08648"/>
<path d="M43.2543 33.1129C45.4056 33.1129 47.9667 32.529 50.8043 30.7875C59.5529 25.2351 63.2613 30.2855 63.4252 30.5109C63.7325 30.9617 64.3472 31.0743 64.7979 30.767C65.2487 30.4597 65.3716 29.8348 65.054 29.384C65.0028 29.3123 60.1675 22.4897 49.7492 29.0972C42.4758 33.5534 37.702 29.384 37.5073 29.2099C37.0976 28.8411 36.4727 28.8718 36.1039 29.2714C35.7453 29.6811 35.7658 30.306 36.1756 30.6748C36.2166 30.7158 38.9006 33.1129 43.2543 33.1129Z" fill="#F08648"/>
</svg>
