<svg width="653" height="111" viewBox="0 0 653 111" fill="none" xmlns="http://www.w3.org/2000/svg">
<path d="M15.4066 100.979L3.59325 74.5554L10.2539 71.5776L22.0673 98.0011L15.4066 100.979ZM2.44889 81.6394L0.744949 75.8289L7.97525 72.5963L10.4241 78.0738L2.44889 81.6394ZM47.5915 87.5194L40.5878 70.2625C40.0463 68.9282 39.317 68.0672 38.3999 67.6797C37.4708 67.2624 36.3836 67.3065 35.1382 67.812L22.7293 72.8482L20.4729 67.2886L33.2377 62.108C36.6179 60.7361 39.4928 60.5018 41.8624 61.405C44.22 62.2785 46.0305 64.272 47.2941 67.3853L54.352 84.7757L47.5915 87.5194ZM26.5986 96.0394L25.0539 90.191L26.655 89.5412C27.2184 89.3125 27.6359 89.0222 27.9074 88.6703C28.167 88.2887 28.2954 87.8394 28.2928 87.3224C28.2902 86.8054 28.1566 86.2208 27.8918 85.5685L20.9964 68.5784L27.7568 65.8347L34.5801 82.6468C35.7353 85.4933 35.9466 87.9286 35.214 89.9527C34.5111 91.9647 32.8698 93.4942 30.2901 94.5412L26.5986 96.0394ZM18.6374 74.5088L17.1372 68.6424L24.2534 65.7543L26.5098 71.3138L18.6374 74.5088ZM62.4556 81.6989L52.508 54.518L59.3596 52.0105L69.3072 79.1914L62.4556 81.6989ZM50.8739 61.5053L49.5781 55.5903L57.0157 52.8683L59.0778 58.5029L50.8739 61.5053ZM93.9869 70.9839C91.8913 69.1115 89.881 67.3964 87.9559 65.8386C86.0513 64.2404 84.1462 62.7434 82.2405 61.3476C80.3553 59.9114 78.3938 58.5508 76.3561 57.2656C75.4987 56.7048 74.5354 56.0777 73.4662 55.3842C72.4174 54.6504 71.3584 53.9368 70.2892 53.2434C69.2504 52.54 68.2973 51.8927 67.43 51.3015C66.5626 50.7103 65.8565 50.2514 65.3117 49.9249L73.7955 47.1436C74.6025 47.6536 75.5152 48.2805 76.5336 49.0242C77.542 49.7376 78.5553 50.4661 79.5737 51.2099C80.6225 51.9437 81.5501 52.6162 82.3567 53.2274C84.4433 54.8669 86.5804 56.5068 88.7682 58.1468C90.946 59.7565 93.154 61.4068 95.3921 63.0977C97.6203 64.7582 99.8277 66.5097 102.015 68.3522L93.9869 70.9839ZM73.5529 77.6828L72.2402 69.9805C71.9656 68.2183 71.8627 66.5178 71.9315 64.8788C71.9904 63.2093 72.4082 61.6075 73.1849 60.0732C73.9616 58.5389 75.2739 57.1489 77.1218 55.9033L80.6397 59.7003C79.8371 60.3339 79.3122 61.0953 79.0649 61.9846C78.8176 62.8738 78.7471 63.8399 78.8532 64.8827C78.9494 65.8951 79.0857 66.9786 79.2621 68.1331L80.4859 75.41L73.5529 77.6828ZM88.6508 60.4079L85.1328 56.6109C86.0775 55.8971 86.6887 55.0906 86.9663 54.1913C87.2744 53.2821 87.3906 52.3011 87.3149 51.2483C87.2696 50.1855 87.123 49.1223 86.8753 48.0585L85.9281 43.1661L92.8155 40.9082L93.9428 46.1962C94.3291 47.888 94.4472 49.5836 94.2971 51.2829C94.1774 52.9723 93.6634 54.5888 92.7551 56.1326C91.8469 57.6764 90.4787 59.1015 88.6508 60.4079ZM131.518 60.1145L126.777 42.104C126.41 40.7114 125.797 39.7643 124.937 39.2627C124.069 38.7302 123.001 38.6309 121.732 38.9648L112.587 41.3718L111.849 35.3617L120.576 33.0647C124.073 32.1443 126.939 32.2834 129.173 33.482C131.4 34.6497 132.941 36.8583 133.796 40.1076L137.168 52.9192C137.196 53.9046 137.019 54.9275 136.636 55.9878C136.284 57.04 135.909 58.0653 135.51 59.0638L131.518 60.1145ZM117.035 63.9266L115.508 58.1242L140.528 51.5387L141.312 57.5365L117.035 63.9266ZM159.229 53.4856L155.195 35.3037C154.883 33.8978 154.308 32.9275 153.468 32.3927C152.621 31.8266 151.557 31.6857 150.276 31.9698L141.045 34.0177L140.542 27.9834L149.352 26.029C152.882 25.2459 155.74 25.4969 157.926 26.7819C160.106 28.0357 161.559 30.3027 162.287 33.583L165.156 46.5165C165.145 47.5023 164.928 48.5174 164.504 49.562C164.112 50.5997 163.696 51.6095 163.259 52.5916L159.229 53.4856ZM144.608 56.7291L143.309 50.8715L168.567 45.2683L169.116 51.2922L144.608 56.7291ZM175.988 49.9237L170.545 21.4961L177.711 20.1241L183.154 48.5518L175.988 49.9237ZM167.808 28.1292L167.481 22.0828L175.26 20.5935L176.388 26.4864L167.808 28.1292ZM203.021 45.778C198.499 46.4838 194.923 45.8761 192.291 43.9551C189.686 41.9975 188.055 38.9161 187.399 34.7111L187.332 34.2842C186.987 32.071 187.067 30.099 187.574 28.368C188.113 26.6322 188.913 25.3252 189.974 24.447L189.871 23.783L195.966 22.6857L195.826 23.3392C194.878 23.9082 194.291 24.9228 194.066 26.383C193.872 27.8384 193.938 29.6094 194.264 31.6961C194.733 34.6997 195.583 36.9313 196.815 38.3907C198.078 39.8453 199.848 40.3948 202.125 40.0395C204.433 39.6792 205.957 38.5506 206.697 36.6537C207.438 34.7568 207.556 32.1959 207.053 28.9709C206.687 26.6313 206.011 24.8908 205.023 23.7495C204.067 22.6033 202.561 22.1906 200.506 22.5114L184.666 24.9842L184.499 18.9375L199.628 16.5758C203.928 15.9045 207.27 16.565 209.653 18.5572C212.069 20.5444 213.607 23.6563 214.269 27.893C215.048 32.8885 214.499 36.9418 212.62 40.0528C210.773 43.1588 207.573 45.0672 203.021 45.778ZM223.361 13.2236L240.001 11.29L239.97 15.5944L234.235 41.0988L226.702 41.9742L232.207 18.2361L216.807 20.0256L215.333 7.34299L222.491 5.73798L223.361 13.2236ZM262.407 26.1939L261.256 9.48151L268.535 8.98011L269.686 25.6925L262.407 26.1939ZM257.742 15.7378L258.143 9.69592L265.326 9.20112L265.739 15.1869L257.742 15.7378ZM274.309 14.6566L274.07 8.6613L298.723 7.68085L298.146 13.7085L274.309 14.6566ZM287.786 37.0827L287.063 18.905C287.046 18.4574 287.089 17.9273 287.192 17.3147C287.295 16.6701 287.494 16.0537 287.791 15.4654C288.12 14.8759 288.582 14.4091 289.177 14.0652L294.98 13.8344C294.608 14.1375 294.384 14.5467 294.308 15.0621C294.265 15.5762 294.257 16.185 294.285 16.8885L295.077 36.7927L287.786 37.0827ZM302.476 36.5542L302.449 30.5543L310.993 30.5152C313.105 30.5055 314.653 29.7785 315.639 28.3339C316.656 26.8893 317.159 24.8709 317.147 22.279C317.134 19.495 316.612 17.3534 315.582 15.8541C314.583 14.3226 313.027 13.5617 310.915 13.5714L302.371 13.6105L303.112 7.607L310.888 7.57144C315.336 7.5511 318.718 8.83165 321.033 11.4131C323.381 13.9624 324.566 17.573 324.587 22.245C324.608 26.7569 323.456 30.2662 321.131 32.7729C318.838 35.2474 315.468 36.4948 311.02 36.5151L302.476 36.5542ZM349.102 8.22507L365.834 9.0256L365.103 13.2675L355.294 37.4984L347.718 37.136L357.013 14.6105L341.527 13.8696L342.137 1.11614L349.462 0.697675L349.102 8.22507ZM377.399 39.1549L376.542 32.8769L376.016 32.8357C375.388 33.878 374.774 34.7607 374.171 35.4839C373.601 36.2096 372.978 36.7868 372.303 37.2154C371.661 37.6145 370.949 37.8958 370.166 38.0592C369.386 38.1907 368.469 38.2153 367.416 38.1329L366.268 38.043L366.747 31.9177L367.895 32.0076C368.823 32.0481 369.696 31.972 370.513 31.7792C371.331 31.5864 372.075 31.3076 372.745 30.9428C373.448 30.5805 374.056 30.1947 374.569 29.7856C375.085 29.3445 375.487 28.9266 375.775 28.5318L376.52 19.0089C376.612 17.8285 376.389 16.9925 375.85 16.501C375.342 16.0119 374.419 15.7149 373.079 15.61L370.255 15.3891L371.493 9.41943L375.513 9.73404C377.586 9.89634 379.251 10.3636 380.506 11.136C381.796 11.8789 382.712 12.8974 383.252 14.1915C383.793 15.4857 383.992 17.042 383.85 18.8604L382.91 30.8717L383.949 38.512L377.399 39.1549ZM396.252 11.6389L412.904 13.462L411.914 17.6511L400.641 41.2363L393.102 40.411L403.758 18.4965L388.346 16.8093L389.736 4.11708L397.072 4.14764L396.252 11.6389ZM422.601 44.2574L422.134 37.9385L421.611 37.8648C420.921 38.8662 420.253 39.7092 419.607 40.3938C418.993 41.0828 418.335 41.6204 417.635 42.0064C416.97 42.3651 416.242 42.6018 415.45 42.7165C414.663 42.7994 413.746 42.7672 412.701 42.6199L411.56 42.4591L412.417 36.3752L413.558 36.536C414.481 36.6338 415.357 36.6118 416.185 36.4699C417.013 36.3281 417.773 36.0958 418.464 35.7732C419.188 35.455 419.819 35.1076 420.356 34.731C420.899 34.3227 421.326 33.9304 421.637 33.5542L422.97 24.0956C423.135 22.9232 422.964 22.075 422.456 21.551C421.98 21.0315 421.076 20.678 419.746 20.4904L416.941 20.0952L418.546 14.2136L422.538 14.7762C424.598 15.0665 426.23 15.6358 427.436 16.4843C428.677 17.3056 429.528 18.3788 429.988 19.7039C430.447 21.029 430.55 22.5946 430.295 24.4008L428.614 36.3309L429.178 44.0209L422.601 44.2574ZM451.323 48.8342L454.568 30.4951C454.819 29.0771 454.643 27.9574 454.041 27.1359C453.476 26.2885 452.548 25.7505 451.256 25.5219L436.556 22.9207L438.405 17.1547L452.679 19.6806C456.272 20.3162 458.831 21.6466 460.357 23.6715C461.89 25.665 462.363 28.316 461.777 31.6246L458.507 50.1055L451.323 48.8342ZM433.173 45.6224L435.891 30.2611L443.142 31.1543L440.357 46.8937L433.173 45.6224ZM488.912 27.049L505.212 30.9154L503.712 34.9502L489.611 56.9619L482.232 55.2115L495.514 34.7814L480.428 31.203L483.375 18.7798L490.652 19.7164L488.912 27.049ZM500.766 61.5391L502.378 55.7599L514.047 56.6243C515.226 56.6873 516.296 56.6038 517.257 56.3737C518.258 56.1214 519.199 55.6035 520.083 54.82C520.966 54.0366 521.816 52.8951 522.633 51.3955C523.489 49.8738 524.367 47.8596 525.266 45.3529L528.13 37.2319L535.158 39.1931L532.183 47.5323C531.535 49.3781 530.82 51.1055 530.039 52.7148C529.297 54.3018 528.4 55.7293 527.349 56.9973C526.328 58.2739 525.13 59.3516 523.755 60.2304C522.381 61.1092 520.76 61.7368 518.894 62.1131C517.029 62.4894 514.875 62.5862 512.435 62.4034L500.766 61.5391ZM508.603 58.9919L510.294 32.7528L517.415 33.843L516.101 51.7654C516.042 52.812 515.804 53.842 515.388 54.8556C514.981 55.8383 514.409 56.7583 513.671 57.6156C512.973 58.4507 512.162 59.1546 511.238 59.7273L508.603 58.9919ZM546.718 73.1457L555.88 45.69L562.8 47.9995L553.639 75.4552L546.718 73.1457ZM550.247 50.1356L552.92 44.7024L560.433 47.2094L558.534 52.9009L550.247 50.1356ZM575.191 83.1659L567.926 49.7646L575.946 52.7107L578.565 67.0192L581.767 81.1328L575.191 83.1659ZM558.577 77.1652L560.646 71.5332L580.335 78.766L581.767 81.1328L579.663 84.9111L558.577 77.1652ZM576.365 71.4779L576.066 66.3057C576.965 66.3633 577.754 66.21 578.434 65.8459C579.113 65.4818 579.72 64.9889 580.255 64.3673C580.79 63.7457 581.25 63.0966 581.635 62.4198C582.061 61.724 582.441 61.0623 582.774 60.4346L585.003 56.0374L591.851 58.5532L589.424 63.491C588.917 64.4982 588.274 65.5063 587.495 66.5153C586.715 67.5243 585.786 68.4276 584.709 69.2251C583.662 70.0337 582.429 70.6543 581.008 71.0871C579.629 71.5009 578.081 71.6312 576.365 71.4779ZM612.024 66.8523C615.391 68.255 617.599 70.1107 618.648 72.4195C619.709 74.6988 619.594 77.3892 618.302 80.4909L611.086 97.8161L604.351 95.0107L611.512 77.8185C612.065 76.4892 612.153 75.3643 611.773 74.4437C611.406 73.4936 610.603 72.7601 609.362 72.2434L603.247 69.6964C603.001 69.8712 602.687 70.2084 602.306 70.7082C601.966 71.1907 601.52 72.0966 600.966 73.4259L593.805 90.6181L587.07 87.8127L593.382 72.6588C593.874 71.4772 594.42 70.4568 595.021 69.5977C595.663 68.7213 596.496 68.011 597.52 67.4669L597.295 67.0091L599.528 61.6476L612.024 66.8523ZM593.676 65.7098L596.692 60.4664L609.143 65.6526L606.836 71.1913L593.676 65.7098ZM633.759 76.3064L648.95 83.3688L646.67 87.02L628.434 105.75L621.557 102.553L638.673 85.2075L624.614 78.6713L629.997 67.0934L636.936 69.4729L633.759 76.3064Z" fill="black"/>
</svg>
