<svg width="118" height="118" viewBox="0 0 118 118" fill="none" xmlns="http://www.w3.org/2000/svg">
<rect x="1" y="1" width="116" height="116" rx="58" stroke="#F08648" stroke-width="2"/>
<path d="M45.25 36.5V26.5C45.25 26.1685 45.3817 25.8505 45.6161 25.6161C45.8505 25.3817 46.1685 25.25 46.5 25.25C46.8315 25.25 47.1495 25.3817 47.3839 25.6161C47.6183 25.8505 47.75 26.1685 47.75 26.5V36.5C47.75 36.8315 47.6183 37.1495 47.3839 37.3839C47.1495 37.6183 46.8315 37.75 46.5 37.75C46.1685 37.75 45.8505 37.6183 45.6161 37.3839C45.3817 37.1495 45.25 36.8315 45.25 36.5ZM56.5 37.75C56.8315 37.75 57.1495 37.6183 57.3839 37.3839C57.6183 37.1495 57.75 36.8315 57.75 36.5V26.5C57.75 26.1685 57.6183 25.8505 57.3839 25.6161C57.1495 25.3817 56.8315 25.25 56.5 25.25C56.1685 25.25 55.8505 25.3817 55.6161 25.6161C55.3817 25.8505 55.25 26.1685 55.25 26.5V36.5C55.25 36.8315 55.3817 37.1495 55.6161 37.3839C55.8505 37.6183 56.1685 37.75 56.5 37.75ZM66.5 37.75C66.8315 37.75 67.1495 37.6183 67.3839 37.3839C67.6183 37.1495 67.75 36.8315 67.75 36.5V26.5C67.75 26.1685 67.6183 25.8505 67.3839 25.6161C67.1495 25.3817 66.8315 25.25 66.5 25.25C66.1685 25.25 65.8505 25.3817 65.6161 25.6161C65.3817 25.8505 65.25 26.1685 65.25 26.5V36.5C65.25 36.8315 65.3817 37.1495 65.6161 37.3839C65.8505 37.6183 66.1685 37.75 66.5 37.75ZM95.25 56.5V59C95.25 61.9837 94.0647 64.8452 91.9549 66.9549C89.8452 69.0647 86.9837 70.25 84 70.25H83.8719C81.9116 76.35 77.9809 81.6262 72.6969 85.25H84C84.3315 85.25 84.6495 85.3817 84.8839 85.6161C85.1183 85.8505 85.25 86.1685 85.25 86.5C85.25 86.8315 85.1183 87.1495 84.8839 87.3839C84.6495 87.6183 84.3315 87.75 84 87.75H29C28.6685 87.75 28.3505 87.6183 28.1161 87.3839C27.8817 87.1495 27.75 86.8315 27.75 86.5C27.75 86.1685 27.8817 85.8505 28.1161 85.6161C28.3505 85.3817 28.6685 85.25 29 85.25H40.3031C36.4417 82.6059 33.2812 79.0624 31.0943 74.9248C28.9074 70.7873 27.7597 66.1799 27.75 61.5V46.5C27.75 46.1685 27.8817 45.8505 28.1161 45.6161C28.3505 45.3817 28.6685 45.25 29 45.25H84C86.9837 45.25 89.8452 46.4353 91.9549 48.545C94.0647 50.6548 95.25 53.5163 95.25 56.5ZM82.75 61.5V47.75H30.25V61.5C30.2601 66.4778 31.6807 71.3509 34.3472 75.5544C37.0136 79.7578 40.8167 83.1196 45.3156 85.25H67.6844C72.1833 83.1196 75.9864 79.7578 78.6528 75.5544C81.3193 71.3509 82.7399 66.4778 82.75 61.5ZM92.75 56.5C92.7498 54.3961 91.9915 52.3627 90.6141 50.7723C89.2367 49.182 87.3323 48.1412 85.25 47.8406V61.5C85.2492 63.596 85.0186 65.6855 84.5625 67.7313C86.7811 67.5883 88.862 66.6063 90.3827 64.9846C91.9034 63.3629 92.7498 61.2232 92.75 59V56.5Z" fill="#F08648"/>
</svg>
