<svg width="1914" height="831" viewBox="0 0 1914 831" fill="none" xmlns="http://www.w3.org/2000/svg">
<circle cx="474.009" cy="474.009" r="477.046" transform="matrix(-0.95077 -0.309897 -0.309897 0.95077 1584.34 630.164)" stroke="black" stroke-width="6.07347" stroke-dasharray="12.15 20.24"/>
<circle cx="113.623" cy="113.623" r="116.659" transform="matrix(-0.707983 -0.70623 -0.70623 0.707983 531.953 505.361)" stroke="black" stroke-width="6.07347" stroke-dasharray="12.15 20.24"/>
<circle cx="52.9752" cy="52.9752" r="56.0119" transform="matrix(-0.707983 -0.70623 -0.70623 0.707983 1541.77 434.888)" stroke="black" stroke-width="6.07347" stroke-dasharray="12.15 20.24"/>
<path d="M883.338 636.827C868.845 632.103 853.266 640.023 848.542 654.517C846.908 659.529 846.787 664.671 847.927 669.449C859.502 670.68 871.504 671.867 883.929 672.988C889.355 673.478 894.712 673.917 899.997 674.31C900.382 673.443 900.728 672.547 901.028 671.625C905.752 657.131 897.832 641.551 883.338 636.827Z" fill="#E5BE34"/>
<circle cx="38.4593" cy="38.4593" r="38.4593" transform="matrix(-0.95077 -0.309897 -0.309897 0.95077 1039.56 551.313)" fill="#5CA25E"/>
<rect width="95.6934" height="95.6934" transform="matrix(-0.996539 -0.0831249 -0.0831249 0.996539 871.531 443.961)" fill="#1F63AB"/>
<rect width="60.4576" height="76.9995" transform="matrix(-0.996539 -0.0831249 -0.0831249 0.996539 1263.85 373.188)" fill="#1F63AB"/>
<path d="M1465.63 717.937L1366.31 760.721L1518.95 812.012L1465.63 717.937Z" fill="#A72608"/>
<circle cx="25.3912" cy="25.3912" r="25.3912" transform="matrix(-0.95077 -0.309897 -0.309897 0.95077 1000.12 343.869)" fill="#E5BE34"/>
<circle cx="41.8153" cy="41.8153" r="41.8153" transform="matrix(-0.707983 -0.70623 -0.70623 0.707983 311.508 517.866)" fill="#5CA25E"/>
<circle cx="56.5108" cy="56.5108" r="56.5108" transform="matrix(-0.95077 -0.309897 -0.309897 0.95077 604.824 715.03)" fill="#E5BE34"/>
<rect width="169.359" height="34.5629" transform="matrix(-0.952869 0.303383 0.303383 0.952869 654.899 640.427)" fill="#A72608"/>
<path d="M1136.71 432.577L1101.37 410.5L999.167 491.121L1071.79 536.492L1136.71 432.577Z" fill="#F08648"/>
<path d="M1546.41 748.713L1564.54 726.808L1477.94 616.194L1440.68 661.212L1546.41 748.713Z" fill="#5CA25E"/>
</svg>
