<svg width="1258" height="1258" viewBox="0 0 1258 1258" fill="none" xmlns="http://www.w3.org/2000/svg">
<path d="M628.558 10.015C641.515 10.015 654.468 10.4221 667.399 11.2356L628.558 628.581L628.558 10.015Z" fill="#0E2945"/>
<path d="M648.364 17.7252L651.318 17.7252L651.318 33.0029L646.989 33.0029L646.989 23.9127L644.876 25.7969L642.304 23.3016L648.364 17.7252Z" fill="white"/>
<path d="M589.718 11.2362C602.649 10.4227 615.602 10.0157 628.558 10.0156L628.558 628.581L589.718 11.2362Z" fill="#194778"/>
<path d="M602.364 23.422C602.695 19.37 605.317 17.6488 608.519 17.4473C612.204 17.2155 614.681 19.2793 614.857 22.0747C614.956 23.6503 614.407 25.4707 611.819 28.5421L611.249 29.2157L615.646 28.9391L615.878 32.624L603.324 33.4138L603.277 32.6768L607.657 27.2731C610.024 24.3433 610.583 23.4917 610.524 22.5514C610.476 21.789 609.904 21.2127 608.735 21.2862C607.515 21.363 606.68 22.283 606.579 23.9222L602.364 23.422Z" fill="white"/>
<path d="M551.031 14.8927C563.885 13.2688 576.787 12.0493 589.718 11.2357L628.558 628.581L551.031 14.8927Z" fill="#E5BE34"/>
<path d="M575.642 26.7152C577.215 26.9784 578.451 28.2338 578.697 30.179C579.035 32.8568 577.21 35.0637 572.688 35.6349C569.479 36.0402 567.059 34.7548 566.119 33.6159L568.712 30.9785C569.632 31.7605 571.158 32.0554 572.522 31.8831C573.81 31.7203 574.649 31.0497 574.519 30.0139C574.388 28.9782 573.355 28.7237 571.384 28.9726L569.717 29.1833L569.327 26.1013L570.136 25.9992C572.409 25.7119 573.157 25.1298 573.068 24.4225C572.969 23.6394 572.35 23.4096 571.086 23.5692C569.621 23.7543 568.542 24.5579 567.906 25.6136L565.146 23.678C565.952 21.9336 567.488 20.2767 570.595 19.8841C574.688 19.3671 576.809 20.9214 577.112 23.3213C577.304 24.837 576.677 25.9685 575.642 26.7152Z" fill="white"/>
<path d="M512.651 20.9715C525.378 18.5437 538.178 16.5164 551.032 14.8925L628.559 628.581L512.651 20.9715Z" fill="#A72608"/>
<path d="M540.513 33.2262L541.181 36.7279L539.53 37.0428L539.935 39.1688L535.858 39.9465L535.453 37.8205L527.924 39.2567L527.285 35.9051L533.346 24.8726L537.073 24.1617L538.862 33.5411L540.513 33.2262ZM534.161 30.3681L531.608 34.9248L534.91 34.295L534.161 30.3681Z" fill="white"/>
<path d="M474.727 29.4482C487.276 26.2261 499.923 23.3991 512.65 20.9713L628.558 628.581L474.727 29.4482Z" fill="#F08648"/>
<path d="M495.396 37.333C500.129 35.6973 502.566 37.3061 503.351 40.3643C504.187 43.6198 502.451 46.379 498.431 47.4112C496.137 48.0001 494.575 48.0594 493.264 47.7651L493.617 44.0204C494.65 44.2547 495.706 44.2727 496.816 43.9877C498.665 43.5128 499.672 42.6232 499.356 41.3901C498.824 39.3184 495.519 40.167 492.175 41.6827L490.658 33.318L499.932 30.937L500.85 34.5131L495.177 35.9696L495.396 37.333Z" fill="white"/>
<path d="M437.411 40.2902C449.733 36.2865 462.178 32.671 474.727 29.4488L628.558 628.581L437.411 40.2902Z" fill="#0E2945"/>
<path d="M460.222 46.1251C462.668 45.3304 465.504 46.2296 466.511 49.3293C467.542 52.5017 465.9 55.525 462.171 56.7367C458.417 57.9563 455.288 56.4832 454.257 53.3108C453.699 51.5914 453.832 49.9417 454.473 48.2073L456.798 42.0971L461.86 40.4526L461.899 40.5737L459.439 46.4332C459.697 46.3224 459.956 46.2117 460.222 46.1251ZM461.038 53.2495C462.225 52.864 462.821 51.7331 462.459 50.6192C462.097 49.5052 460.95 48.9409 459.739 49.3343C458.552 49.7199 457.932 50.8586 458.294 51.9725C458.656 53.0865 459.827 53.643 461.038 53.2495Z" fill="white"/>
<path d="M400.849 53.4539C412.895 48.6844 425.088 44.2946 437.411 40.2908L628.558 628.582L400.849 53.4539Z" fill="#194778"/>
<path d="M415.909 55.7833L426.704 51.5089L426.929 52.0771L426.978 67.8322L422.764 69.5007L422.737 57.0508L417.268 59.2161L415.909 55.7833Z" fill="white"/>
<path d="M365.185 68.8868C376.908 63.3703 388.802 58.2235 400.848 53.4539L628.558 628.582L365.185 68.8868Z" fill="#E5BE34"/>
<path d="M391.71 72.5523C393.519 72.6296 394.991 73.4848 395.717 75.0285C396.91 77.5628 395.359 80.4874 391.926 82.1028C388.471 83.729 385.183 83.0812 383.99 80.5468C383.264 79.0032 383.566 77.3132 384.66 75.8699C383.401 75.6462 382.369 74.9496 381.838 73.8207C380.797 71.6089 382.157 69.0556 385.129 67.657C388.078 66.2693 390.866 66.8711 391.906 69.0829C392.438 70.2118 392.34 71.4397 391.71 72.5523ZM386.561 70.6413C385.755 71.0208 385.29 71.8868 385.626 72.601C385.962 73.3152 386.926 73.5091 387.732 73.1296C388.585 72.7285 388.911 71.9275 388.575 71.2133C388.239 70.4991 387.414 70.2402 386.561 70.6413ZM390.486 78.9816C391.661 78.4287 392.154 77.3242 391.699 76.3565C391.244 75.3889 390.078 75.065 388.903 75.6179C387.682 76.1925 387.142 77.3187 387.598 78.2863C388.053 79.254 389.265 79.5562 390.486 78.9816Z" fill="white"/>
<path d="M330.561 86.5279C341.915 80.2861 353.462 74.4027 365.185 68.8861L628.557 628.581L330.561 86.5279Z" fill="#A72608"/>
<path d="M350.27 84.1424C353.729 82.241 357.078 83.1017 358.685 86.0248C359.556 87.609 359.735 89.2545 359.43 91.0784L358.291 97.516L353.627 100.08L353.566 99.9682L354.884 93.7515C354.651 93.9087 354.418 94.066 354.173 94.2009C351.919 95.4399 348.965 95.0879 347.395 92.2318C345.788 89.3088 346.834 86.0315 350.27 84.1424ZM354.046 90.958C355.139 90.3569 355.536 89.1221 354.971 88.0957C354.407 87.0692 353.152 86.7422 352.036 87.3555C350.943 87.9566 350.569 89.1791 351.133 90.2056C351.698 91.232 352.93 91.5713 354.046 90.958Z" fill="white"/>
<path d="M297.114 106.309C308.053 99.3667 319.208 92.7699 330.562 86.5281L628.558 628.581L297.114 106.309Z" fill="#F08648"/>
<path d="M310.687 106.828L313.181 105.245L321.367 118.145L317.712 120.464L312.841 112.789L312.067 115.512L308.558 114.783L310.687 106.828ZM329.887 113.1C326.125 115.487 322.062 114.266 319.524 110.267C316.987 106.268 317.611 102.072 321.373 99.6843C325.071 97.3376 329.112 98.5729 331.65 102.572C334.188 106.571 333.585 110.753 329.887 113.1ZM327.786 109.789C329.312 108.82 329.291 106.934 327.995 104.891C326.699 102.849 325.001 102.026 323.474 102.995C321.883 104.005 321.883 105.905 323.179 107.947C324.475 109.99 326.195 110.798 327.786 109.789Z" fill="white"/>
<path d="M264.975 128.15C275.457 120.535 286.176 113.251 297.115 106.308L628.559 628.581L264.975 128.15Z" fill="#0E2945"/>
<path d="M281.463 125.701L283.853 123.965L292.833 136.325L289.331 138.869L283.988 131.515L283.386 134.282L279.838 133.775L281.463 125.701ZM290.199 119.354L292.589 117.618L301.569 129.978L298.067 132.522L292.724 125.168L292.121 127.935L288.574 127.428L290.199 119.354Z" fill="white"/>
<path d="M234.27 151.967C244.253 143.709 254.493 135.766 264.975 128.15L628.559 628.581L234.27 151.967Z" fill="#194778"/>
<path d="M248.716 150.022L250.992 148.139L260.731 159.911L257.395 162.67L251.601 155.666L251.174 158.465L247.601 158.182L248.716 150.022ZM256.076 150.742C253.962 147.269 255.072 144.335 257.544 142.29C260.389 139.937 263.606 140.15 265.391 142.308C266.397 143.525 267.023 145.32 266.735 149.326L266.67 150.206L270.064 147.398L272.418 150.243L262.726 158.261L262.255 157.692L262.622 150.746C262.815 146.984 262.766 145.967 262.166 145.241C261.679 144.652 260.877 144.522 259.975 145.269C259.033 146.048 258.898 147.283 259.78 148.669L256.076 150.742Z" fill="white"/>
<path d="M205.121 177.665C214.565 168.796 224.286 160.226 234.269 151.967L628.558 628.58L205.121 177.665Z" fill="#E5BE34"/>
<path d="M219.283 174.942L221.436 172.92L231.894 184.057L228.739 187.02L222.516 180.394L222.265 183.214L218.683 183.155L219.283 174.942ZM235.221 169.72C236.649 169.008 238.387 169.297 239.729 170.727C241.577 172.694 241.397 175.553 238.074 178.673C235.717 180.886 233.003 181.269 231.574 180.9L232.121 177.243C233.325 177.335 234.733 176.676 235.735 175.735C236.682 174.846 236.966 173.81 236.252 173.049C235.537 172.288 234.552 172.689 233.104 174.049L231.879 175.199L229.752 172.935L230.346 172.377C232.017 170.808 232.28 169.898 231.792 169.378C231.251 168.803 230.615 168.981 229.687 169.853C228.61 170.863 228.21 172.148 228.315 173.376L224.945 173.432C224.572 171.547 224.84 169.304 227.124 167.16C230.131 164.336 232.76 164.347 234.416 166.11C235.462 167.224 235.62 168.508 235.221 169.72Z" fill="white"/>
<path d="M177.643 205.143C186.513 195.698 195.676 186.534 205.121 177.665L628.559 628.58L177.643 205.143Z" fill="#A72608"/>
<path d="M191.593 201.55L193.615 199.396L204.752 209.855L201.789 213.01L195.162 206.788L195.089 209.618L191.51 209.785L191.593 201.55ZM211.307 194.505L213.906 196.945L212.756 198.17L214.333 199.652L211.492 202.677L209.914 201.196L204.668 206.783L202.181 204.447L200.599 191.959L203.196 189.193L210.157 195.73L211.307 194.505ZM204.489 195.926L205.102 201.113L207.403 198.663L204.489 195.926Z" fill="white"/>
<path d="M151.944 234.292C160.203 224.309 168.773 214.588 177.642 205.143L628.557 628.581L151.944 234.292Z" fill="#F08648"/>
<path d="M166.609 228.661L168.492 226.385L180.264 236.124L177.504 239.459L170.5 233.665L170.605 236.494L167.043 236.885L166.609 228.661ZM176.952 224.109C179.819 220.003 182.737 219.872 185.169 221.885C187.759 224.027 187.976 227.28 185.331 230.478C183.821 232.303 182.592 233.269 181.359 233.802L179.443 230.565C180.416 230.147 181.281 229.541 182.012 228.658C183.229 227.187 183.521 225.875 182.54 225.063C180.892 223.7 178.717 226.329 176.903 229.521L170.759 223.645L176.862 216.268L179.707 218.622L175.974 223.134L176.952 224.109Z" fill="white"/>
<path d="M128.129 264.997C135.745 254.515 143.688 244.275 151.946 234.292L628.559 628.581L128.129 264.997Z" fill="#0E2945"/>
<path d="M141.428 259.807L143.164 257.418L155.524 266.398L152.98 269.9L145.626 264.557L145.908 267.374L142.377 267.988L141.428 259.807ZM153.086 252.079C154.598 249.998 157.421 249.059 160.057 250.975C162.756 252.935 163.205 256.346 160.9 259.518C158.58 262.711 155.183 263.359 152.484 261.398C151.022 260.335 150.16 258.922 149.659 257.142L147.949 250.832L151.077 246.527L151.18 246.602L152.634 252.788C152.778 252.547 152.922 252.305 153.086 252.079ZM157.934 257.363C158.667 256.354 158.485 255.088 157.537 254.4C156.59 253.711 155.33 253.929 154.582 254.959C153.848 255.968 154.016 257.255 154.963 257.943C155.911 258.631 157.185 258.393 157.934 257.363Z" fill="white"/>
<path d="M106.287 297.136C113.229 286.197 120.513 275.478 128.129 264.996L628.559 628.58L106.287 297.136Z" fill="#194778"/>
<path d="M120.063 289.818L121.646 287.324L134.545 295.51L132.226 299.165L124.551 294.294L125.009 297.089L121.524 297.923L120.063 289.818ZM122.91 285.332L129.132 275.528L129.648 275.856L138.948 288.573L136.519 292.4L129.179 282.344L126.028 287.31L122.91 285.332Z" fill="white"/>
<path d="M86.505 330.585C92.7467 319.231 99.3437 308.076 106.286 297.137L628.558 628.581L86.505 330.585Z" fill="#E5BE34"/>
<path d="M99.0494 323.77L100.472 321.182L113.86 328.542L111.775 332.335L103.809 327.956L104.442 330.716L101.017 331.767L99.0494 323.77ZM112.636 313.379C114.146 312.378 115.839 312.205 117.334 313.026C119.788 314.376 120.253 317.653 118.425 320.978C116.585 324.325 113.545 325.733 111.09 324.384C109.595 323.562 108.846 322.017 108.883 320.207C107.733 320.766 106.489 320.808 105.396 320.207C103.254 319.03 102.853 316.165 104.435 313.287C106.005 310.431 108.614 309.279 110.756 310.456C111.85 311.057 112.492 312.108 112.636 313.379ZM107.348 314.859C106.919 315.64 107.052 316.614 107.743 316.994C108.435 317.374 109.328 316.965 109.758 316.184C110.212 315.358 110.005 314.518 109.313 314.138C108.622 313.758 107.802 314.033 107.348 314.859ZM115.425 319.3C116.051 318.162 115.801 316.978 114.864 316.463C113.927 315.948 112.793 316.371 112.168 317.509C111.517 318.691 111.743 319.919 112.68 320.435C113.617 320.95 114.775 320.482 115.425 319.3Z" fill="white"/>
<path d="M68.8633 365.208C74.3798 353.485 80.2633 341.938 86.505 330.584L628.558 628.581L68.8633 365.208Z" fill="#A72608"/>
<path d="M81.0953 357.323L82.3529 354.651L96.1767 361.156L94.3336 365.072L86.1085 361.202L86.9136 363.916L83.5607 365.181L81.0953 357.323ZM85.8459 346.51C87.5263 342.939 90.7423 341.666 93.7605 343.087C95.3963 343.856 96.5076 345.083 97.333 346.738L100.195 352.615L97.9295 357.43L97.8143 357.376L95.227 351.572C95.1308 351.836 95.0346 352.1 94.9153 352.354C93.8203 354.681 91.2237 356.132 88.2746 354.745C85.2565 353.324 84.1763 350.058 85.8459 346.51ZM92.9068 349.805C93.438 348.676 93.0328 347.444 91.973 346.945C90.9132 346.446 89.7056 346.919 89.1636 348.071C88.6323 349.2 89.0484 350.409 90.1082 350.908C91.168 351.407 92.3647 350.957 92.9068 349.805Z" fill="white"/>
<path d="M53.4297 400.871C58.1992 388.825 63.3461 376.931 68.8625 365.208L628.558 628.581L53.4297 400.871Z" fill="#F08648"/>
<path d="M66.9698 401.868C63.4448 399.843 63.0036 396.738 64.1847 393.755C65.5438 390.322 68.4659 388.959 71.0701 389.99C72.5379 390.572 73.9515 391.843 75.6287 395.492L75.9956 396.295L77.6172 392.199L81.0501 393.558L76.4195 405.254L75.733 404.982L72.7084 398.718C71.0652 395.329 70.5326 394.461 69.6566 394.114C68.9464 393.833 68.1814 394.105 67.7502 395.194C67.3002 396.33 67.7771 397.478 69.2173 398.267L66.9698 401.868ZM84.6939 385.185C83.0535 389.328 79.0488 390.728 74.6453 388.984C70.2418 387.241 68.2805 383.479 69.9208 379.336C71.5331 375.264 75.5284 373.888 79.9319 375.632C84.3355 377.375 86.3061 381.113 84.6939 385.185ZM81.048 383.742C81.7135 382.061 80.5876 380.547 78.3384 379.656C76.0893 378.766 74.2323 379.099 73.5667 380.78C72.8731 382.531 73.9897 384.069 76.2388 384.959C78.4879 385.85 80.3543 385.493 81.048 383.742Z" fill="white"/>
<path d="M40.2669 437.433C44.2706 425.111 48.6605 412.917 53.43 400.871L628.558 628.58L40.2669 437.433Z" fill="#0E2945"/>
<path d="M54.7124 434.901C51.0672 433.101 50.4319 430.03 51.4233 426.979C52.5643 423.467 55.395 421.924 58.0588 422.789C59.5603 423.277 61.0508 424.458 62.9539 427.994L63.3705 428.772L64.7317 424.583L68.2431 425.724L64.3561 437.687L63.6538 437.459L60.2419 431.397C58.3892 428.118 57.8031 427.285 56.9071 426.993C56.1806 426.757 55.4341 427.077 55.0722 428.191C54.6945 429.353 55.2425 430.469 56.7294 431.166L54.7124 434.901ZM55.8992 414.275L56.8119 411.466L71.3419 416.187L70.0042 420.303L61.3589 417.494L62.4979 420.087L59.3299 421.761L55.8992 414.275Z" fill="white"/>
<path d="M29.4255 474.749C32.6476 462.2 36.2632 449.755 40.2668 437.433L628.558 628.58L29.4255 474.749Z" fill="#194778"/>
<path d="M43.2967 472.82C39.5456 471.253 38.7187 468.228 39.5166 465.12C40.4348 461.544 43.1631 459.826 45.876 460.522C47.4051 460.915 48.9668 461.999 51.0882 465.41L51.5528 466.16L52.6483 461.893L56.2244 462.811L53.0962 474.995L52.381 474.811L48.5952 468.976C46.5402 465.819 45.903 465.025 44.9904 464.79C44.2506 464.6 43.5257 464.966 43.2344 466.101C42.9304 467.285 43.5473 468.363 45.0751 468.966L43.2967 472.82ZM46.8414 459.015C43.0903 457.447 42.2634 454.422 43.0613 451.314C43.9795 447.738 46.7078 446.02 49.4207 446.717C50.9498 447.109 52.5115 448.194 54.6329 451.604L55.0975 452.354L56.193 448.087L59.7691 449.006L56.6409 461.189L55.9257 461.005L52.1399 455.17C50.0849 452.014 49.4477 451.219 48.5351 450.985C47.7953 450.795 47.0704 451.161 46.7791 452.295C46.4751 453.479 47.092 454.557 48.6198 455.16L46.8414 459.015Z" fill="white"/>
<path d="M20.9475 512.673C23.3752 499.946 26.2023 487.299 29.4243 474.75L628.557 628.581L20.9475 512.673Z" fill="#E5BE34"/>
<path d="M34.7088 509.679C30.8667 508.35 29.8515 505.383 30.4526 502.231C31.1445 498.605 33.7595 496.719 36.5108 497.243C38.0615 497.539 39.6883 498.524 42.0196 501.794L42.5303 502.513L43.3558 498.186L46.9825 498.878L44.6255 511.234L43.9001 511.096L39.7554 505.509C37.5063 502.488 36.8204 501.735 35.895 501.559C35.1446 501.415 34.4441 501.826 34.2247 502.977C33.9956 504.177 34.679 505.215 36.2416 505.72L34.7088 509.679ZM41.119 485.996C41.8555 484.581 43.4315 483.793 45.3574 484.16C48.0087 484.666 49.5434 487.084 48.6893 491.561C48.0834 494.738 46.1128 496.643 44.7393 497.185L43.0321 493.904C44.0602 493.27 44.8122 491.91 45.0698 490.56C45.3132 489.284 44.9347 488.279 43.9092 488.083C42.8837 487.888 42.3224 488.791 41.9503 490.742L41.6354 492.393L38.5839 491.811L38.7366 491.011C39.166 488.76 38.8435 487.869 38.1431 487.735C37.3678 487.587 36.9579 488.105 36.7193 489.356C36.4426 490.806 36.8734 492.081 37.6807 493.013L34.9871 495.039C33.5772 493.733 32.476 491.761 33.0628 488.684C33.8358 484.632 35.9695 483.095 38.3456 483.548C39.8463 483.835 40.7286 484.781 41.119 485.996Z" fill="white"/>
<path d="M14.8694 551.053C16.4933 538.199 18.5206 525.399 20.9483 512.672L628.558 628.58L14.8694 551.053Z" fill="#A72608"/>
<path d="M28.4345 547.048C24.5165 545.963 23.317 543.065 23.7191 539.882C24.1818 536.219 26.6732 534.173 29.452 534.524C31.0183 534.722 32.7037 535.602 35.2357 538.719L35.7907 539.405L36.3428 535.035L40.0058 535.498L38.4292 547.977L37.6966 547.885L33.2094 542.57C30.7749 539.696 30.0431 538.987 29.1084 538.869C28.3506 538.773 27.6773 539.227 27.5305 540.389C27.3773 541.602 28.1245 542.595 29.7157 543.001L28.4345 547.048ZM36.1576 520.248L39.6943 520.694L39.4837 522.362L41.631 522.633L41.1108 526.751L38.9635 526.479L38.0029 534.083L34.6178 533.656L25.9982 524.482L26.4737 520.718L35.947 521.915L36.1576 520.248ZM31.4766 525.405L35.0215 529.241L35.4428 525.906L31.4766 525.405Z" fill="white"/>
<path d="M11.2125 589.74C12.0261 576.81 13.2457 563.908 14.8695 551.053L628.558 628.58L11.2125 589.74Z" fill="#F08648"/>
<path d="M24.4708 585.328C20.4923 584.491 19.1132 581.674 19.3147 578.472C19.5465 574.787 21.9045 572.589 24.6999 572.764C26.2755 572.864 28.0128 573.636 30.7356 576.588L31.3325 577.238L31.6091 572.842L35.2939 573.074L34.5041 585.628L33.7672 585.581L28.955 580.559C26.3449 577.843 25.5701 577.182 24.6298 577.123C23.8674 577.075 23.224 577.57 23.1504 578.739C23.0737 579.959 23.8817 580.903 25.4954 581.208L24.4708 585.328ZM25.5093 565.982C25.4161 560.976 27.6993 559.155 30.8504 559.353C34.2049 559.564 36.2925 562.068 36.0319 566.211C35.8832 568.574 35.4569 570.078 34.7719 571.234L31.3195 569.741C31.8614 568.831 32.2049 567.832 32.2769 566.689C32.3968 564.783 31.862 563.55 30.5914 563.47C28.4567 563.336 28.2425 566.741 28.6508 570.39L20.2268 569.247L20.8279 559.692L24.5127 559.924L24.145 565.769L25.5093 565.982Z" fill="white"/>
<path d="M9.99096 628.581C9.99096 615.624 10.3981 602.671 11.2115 589.741L628.557 628.581L9.99096 628.581Z" fill="#0E2945"/>
<path d="M22.9466 623.176C18.9235 622.591 17.3702 619.866 17.3702 616.658C17.3702 612.966 19.5855 610.623 22.3864 610.623C23.9651 610.623 25.7475 611.285 28.6503 614.06L29.2869 614.672L29.2869 610.267L32.979 610.267L32.979 622.845L32.2406 622.845L27.1225 618.135C24.3471 615.588 23.5323 614.977 22.5901 614.977C21.8262 614.977 21.2151 615.512 21.2151 616.683C21.2151 617.905 22.0809 618.797 23.7105 619L22.9466 623.176ZM22.5901 600.914C22.5901 598.342 24.3216 595.923 27.5809 595.923C30.9165 595.923 33.2845 598.419 33.2845 602.34C33.2845 606.287 30.9165 608.808 27.5809 608.808C25.773 608.808 24.2452 608.171 22.7938 607.025L17.7013 602.926L17.7013 597.604L17.8286 597.604L22.6411 601.754C22.6156 601.474 22.5901 601.194 22.5901 600.914ZM29.6179 602.34C29.6179 601.092 28.7267 600.176 27.5554 600.176C26.3841 600.176 25.4929 601.092 25.4929 602.365C25.4929 603.613 26.3841 604.555 27.5554 604.555C28.7267 604.555 29.6179 603.613 29.6179 602.34Z" fill="white"/>
<path d="M11.2121 667.421C10.3986 654.49 9.99153 641.537 9.99147 628.581L628.557 628.581L11.2121 667.421Z" fill="#194778"/>
<path d="M23.7316 660.07C19.6796 659.738 17.9584 657.117 17.7569 653.915C17.5251 650.23 19.5889 647.753 22.3843 647.577C23.9599 647.478 25.7803 648.027 28.8516 650.614L29.5253 651.184L29.2487 646.788L32.9336 646.556L33.7234 659.11L32.9864 659.156L27.5827 654.776C24.6528 652.409 23.8013 651.851 22.861 651.91C22.0986 651.958 21.5223 652.53 21.5958 653.699C21.6726 654.918 22.5926 655.754 24.2318 655.855L23.7316 660.07ZM17.6006 646.159L16.8716 634.571L17.4815 634.532L32.4805 639.355L32.7651 643.878L20.9161 640.057L21.2855 645.927L17.6006 646.159Z" fill="white"/>
<path d="M14.8679 706.108C13.2441 693.254 12.0245 680.352 11.2109 667.421L628.556 628.581L14.8679 706.108Z" fill="#E5BE34"/>
<path d="M27.0399 699.094C22.9751 699.017 21.0927 696.508 20.6905 693.325C20.2278 689.662 22.132 687.061 24.9108 686.71C26.4771 686.512 28.3284 686.945 31.5561 689.335L32.2643 689.861L31.7122 685.491L35.3752 685.028L36.9517 697.508L36.2191 697.6L30.551 693.568C27.4783 691.39 26.5933 690.886 25.6586 691.004C24.9008 691.1 24.3615 691.707 24.5083 692.869C24.6615 694.081 25.6321 694.857 27.2744 694.855L27.0399 699.094ZM25.5799 674.331C26.2125 672.634 27.4806 671.498 29.1732 671.284C31.952 670.933 34.2543 673.312 34.7298 677.076C35.2085 680.865 33.5764 683.792 30.7976 684.143C29.105 684.357 27.5911 683.547 26.5564 682.061C25.9547 683.189 24.9734 683.955 23.7356 684.111C21.3104 684.417 19.3022 682.335 18.8905 679.077C18.482 675.843 19.9158 673.378 22.341 673.071C23.5788 672.915 24.7164 673.387 25.5799 674.331ZM22.1714 678.637C22.2831 679.521 22.963 680.23 23.7462 680.132C24.5293 680.033 25.0114 679.176 24.8997 678.292C24.7816 677.357 24.1208 676.799 23.3377 676.898C22.5546 676.997 22.0533 677.702 22.1714 678.637ZM31.3163 677.481C31.1535 676.193 30.2555 675.382 29.1945 675.516C28.1335 675.65 27.4652 676.659 27.628 677.947C27.7971 679.286 28.7015 680.147 29.7625 680.013C30.8236 679.879 31.4854 678.82 31.3163 677.481Z" fill="white"/>
<path d="M20.9492 744.489C18.5215 731.762 16.4942 718.963 14.8703 706.108L628.559 628.582L20.9492 744.489Z" fill="#A72608"/>
<path d="M32.6533 736.71C28.5917 736.889 26.5555 734.504 25.9543 731.352C25.2625 727.725 26.9995 725.009 29.7508 724.484C31.3016 724.189 33.1765 724.505 36.5479 726.687L37.2877 727.168L36.4623 722.841L40.089 722.149L42.446 734.505L41.7206 734.644L35.8106 730.975C32.6072 728.994 31.6923 728.547 30.7668 728.723C30.0165 728.866 29.5164 729.506 29.7359 730.657C29.9649 731.857 30.9823 732.57 32.6212 732.465L32.6533 736.71ZM23.3535 717.582C22.614 713.706 24.4677 710.786 27.7443 710.161C29.5201 709.822 31.1401 710.161 32.7805 711.014L38.551 714.087L39.5482 719.315L39.4232 719.338L33.9182 716.163C33.9957 716.434 34.0732 716.704 34.1257 716.979C34.6076 719.505 33.36 722.206 30.1585 722.817C26.882 723.442 24.0883 721.434 23.3535 717.582ZM31.0024 716.097C30.7686 714.872 29.7166 714.113 28.5661 714.333C27.4155 714.552 26.7167 715.645 26.9552 716.895C27.189 718.121 28.2362 718.854 29.3867 718.635C30.5373 718.415 31.2409 717.348 31.0024 716.097Z" fill="white"/>
<path d="M29.4253 782.412C26.2032 769.863 23.3763 757.216 20.9484 744.489L628.558 628.581L29.4253 782.412Z" fill="#F08648"/>
<path d="M40.2153 764.866C40.2793 763.272 41.3698 761.888 43.2688 761.4C45.8831 760.729 48.3014 762.264 49.4349 766.679C50.2391 769.811 49.2673 772.374 48.2551 773.449L45.3135 771.207C45.9741 770.196 46.0754 768.645 45.7335 767.314C45.4105 766.056 44.64 765.307 43.6288 765.567C42.6176 765.826 42.4946 766.883 42.9886 768.807L43.4065 770.435L40.3976 771.207L40.195 770.418C39.6251 768.198 38.9538 767.53 38.2633 767.707C37.4987 767.903 37.3484 768.546 37.665 769.78C38.0323 771.21 38.9648 772.18 40.092 772.679L38.5176 775.66C36.6858 775.078 34.8495 773.762 34.0706 770.729C33.0447 766.733 34.3209 764.434 36.6638 763.832C38.1436 763.453 39.3448 763.933 40.2153 764.866ZM45.5662 751.611C46.6744 755.927 44.2571 759.413 39.6698 760.591C35.0824 761.769 31.2847 759.878 30.1765 755.562C29.0874 751.32 31.511 747.859 36.0983 746.681C40.6856 745.503 44.477 747.369 45.5662 751.611ZM41.7681 752.586C41.3185 750.835 39.5178 750.272 37.1748 750.874C34.8318 751.475 33.525 752.836 33.9746 754.587C34.4432 756.412 36.2503 757 38.5932 756.398C40.9362 755.797 42.2367 754.411 41.7681 752.586Z" fill="white"/>
<path d="M40.274 819.727C36.2703 807.405 32.6547 794.96 29.4326 782.411L628.565 628.58L40.274 819.727Z" fill="#0E2945"/>
<path d="M49.2068 799.282C49.1706 797.688 50.1721 796.238 52.0368 795.632C54.6037 794.798 57.1136 796.178 58.5221 800.512C59.5214 803.588 58.7124 806.207 57.7697 807.343L54.6932 805.291C55.289 804.24 55.2927 802.686 54.8678 801.379C54.4665 800.144 53.6505 799.445 52.6576 799.767C51.6647 800.09 51.6083 801.153 52.2221 803.041L52.7414 804.64L49.787 805.6L49.5352 804.825C48.827 802.645 48.1151 802.02 47.437 802.24C46.6863 802.484 46.5767 803.135 46.9701 804.346C47.4265 805.751 48.4181 806.66 49.5744 807.088L48.1902 810.161C46.3256 809.696 44.4102 808.498 43.4424 805.519C42.1677 801.596 43.2969 799.221 45.5975 798.474C47.0505 798.002 48.2794 798.406 49.2068 799.282ZM39.5642 792.595L38.6514 789.785L53.1814 785.064L54.519 789.181L45.8737 791.99L48.3188 793.418L46.7403 796.635L39.5642 792.595Z" fill="white"/>
<path d="M53.4365 856.29C48.6669 844.243 44.2771 832.05 40.2733 819.728L628.564 628.58L53.4365 856.29Z" fill="#194778"/>
<path d="M61.5042 836.423C61.3679 834.834 62.2764 833.324 64.0993 832.602C66.6089 831.609 69.2004 832.828 70.8783 837.066C72.0687 840.073 71.4258 842.737 70.5563 843.931L67.357 842.075C67.8856 840.99 67.7918 839.438 67.2856 838.16C66.8076 836.952 65.9493 836.306 64.9786 836.691C64.008 837.075 64.0184 838.139 64.7495 839.986L65.3682 841.548L62.4799 842.692L62.1799 841.934C61.3363 839.803 60.5865 839.224 59.9236 839.486C59.1897 839.777 59.1212 840.434 59.5899 841.618C60.1335 842.991 61.1803 843.836 62.3611 844.19L61.1727 847.345C59.2825 846.997 57.2957 845.922 56.1427 843.01C54.6242 839.175 55.6021 836.733 57.8512 835.843C59.2717 835.28 60.5236 835.606 61.5042 836.423ZM58.3517 833.51C54.3955 834.447 51.9484 832.485 50.7673 829.502C49.4081 826.069 50.6055 823.076 53.2097 822.045C54.6776 821.464 56.5785 821.423 60.2991 822.935L61.116 823.269L59.4944 819.173L62.9272 817.814L67.5577 829.509L66.8711 829.781L60.3784 827.285C56.8605 825.94 55.878 825.671 55.002 826.018C54.2917 826.299 53.9204 827.021 54.3516 828.111C54.8015 829.247 55.9345 829.757 57.5247 829.346L58.3517 833.51Z" fill="white"/>
<path d="M68.8696 891.952C63.3531 880.229 58.2063 868.335 53.4367 856.289L628.565 628.58L68.8696 891.952Z" fill="#E5BE34"/>
<path d="M75.7518 871.785C75.516 870.207 76.3278 868.643 78.1019 867.809C80.5441 866.659 83.2071 867.714 85.1478 871.838C86.5246 874.764 86.0503 877.464 85.2574 878.709L81.9479 877.058C82.4074 875.942 82.2163 874.399 81.6309 873.155C81.0779 871.98 80.1808 871.389 79.2362 871.834C78.2915 872.278 78.3688 873.339 79.2144 875.137L79.93 876.657L77.1191 877.98L76.7722 877.243C75.7965 875.169 75.0118 874.638 74.3667 874.941C73.6525 875.277 73.6253 875.937 74.1674 877.089C74.7962 878.426 75.894 879.204 77.0947 879.483L76.1067 882.706C74.1985 882.478 72.148 881.529 70.8145 878.695C69.0582 874.963 69.8808 872.465 72.0696 871.435C73.452 870.785 74.7218 871.031 75.7518 871.785ZM69.8546 859.253C69.6188 857.675 70.4306 856.111 72.2047 855.276C74.6469 854.127 77.3099 855.182 79.2506 859.306C80.6275 862.232 80.1531 864.931 79.3602 866.177L76.0507 864.526C76.5102 863.409 76.3191 861.867 75.7337 860.623C75.1807 859.448 74.2836 858.857 73.339 859.302C72.3943 859.746 72.4716 860.807 73.3172 862.604L74.0328 864.125L71.2219 865.448L70.875 864.71C69.8993 862.637 69.1146 862.106 68.4695 862.409C67.7553 862.745 67.7281 863.405 68.2702 864.557C68.899 865.893 69.9968 866.671 71.1975 866.951L70.2095 870.173C68.3013 869.946 66.2508 868.997 64.9173 866.163C63.161 862.431 63.9836 859.933 66.1724 858.903C67.5548 858.253 68.8246 858.499 69.8546 859.253Z" fill="white"/>
<path d="M86.5109 926.576C80.2692 915.222 74.3857 903.675 68.8692 891.952L628.564 628.58L86.5109 926.576Z" fill="#A72608"/>
<path d="M92.1218 906.032C91.7874 904.473 92.4995 902.861 94.2176 901.916C96.5828 900.616 99.3068 901.501 101.503 905.495C103.06 908.329 102.757 911.053 102.043 912.346L98.6368 910.906C99.0252 909.763 98.7377 908.236 98.0753 907.031C97.4497 905.893 96.5172 905.359 95.6023 905.862C94.6875 906.365 94.8312 907.42 95.788 909.16L96.5976 910.633L93.8754 912.129L93.4829 911.415C92.3789 909.407 91.5624 908.926 90.9376 909.27C90.2459 909.65 90.2603 910.31 90.8736 911.426C91.5851 912.72 92.7295 913.428 93.9454 913.631L93.1617 916.909C91.243 916.802 89.137 915.984 87.6281 913.239C85.6409 909.624 86.3051 907.08 88.4249 905.915C89.7637 905.179 91.0465 905.345 92.1218 906.032ZM85.9354 889.705L89.0593 887.988L89.8689 889.461L91.7655 888.418L93.765 892.055L91.8684 893.098L95.5607 899.814L92.5707 901.458L80.2053 899.103L78.3775 895.778L86.745 891.178L85.9354 889.705ZM85.18 896.629L90.3024 897.649L88.6832 894.704L85.18 896.629Z" fill="white"/>
<path d="M106.292 960.024C99.3494 949.085 92.7525 937.93 86.5107 926.576L628.564 628.58L106.292 960.024Z" fill="#F08648"/>
<path d="M110.475 938.971C110.043 937.435 110.653 935.782 112.308 934.731C114.587 933.285 117.361 933.997 119.804 937.846C121.536 940.576 121.404 943.314 120.774 944.649L117.283 943.426C117.599 942.261 117.216 940.754 116.48 939.593C115.784 938.497 114.82 938.023 113.938 938.583C113.057 939.142 113.266 940.185 114.33 941.862L115.231 943.281L112.608 944.945L112.171 944.257C110.944 942.323 110.098 941.894 109.497 942.276C108.83 942.699 108.886 943.357 109.568 944.432C110.359 945.679 111.546 946.313 112.772 946.44L112.196 949.761C110.274 949.774 108.121 949.09 106.443 946.445C104.233 942.963 104.736 940.381 106.778 939.085C108.068 938.267 109.359 938.352 110.475 938.971ZM104.063 932.668C101.044 928.672 101.821 925.857 104.487 924.165C107.325 922.364 110.486 923.163 112.71 926.667C113.979 928.667 114.518 930.134 114.643 931.472L110.972 932.294C110.876 931.239 110.567 930.229 109.953 929.261C108.93 927.649 107.772 926.966 106.697 927.648C104.891 928.794 106.72 931.675 109.195 934.387L101.708 938.414L96.578 930.331L99.6953 928.352L102.833 933.297L104.063 932.668Z" fill="white"/>
<path d="M128.133 992.164C120.518 981.682 113.234 970.964 106.291 960.024L628.564 628.58L128.133 992.164Z" fill="#0E2945"/>
<path d="M130.922 970.799C130.395 969.294 130.9 967.606 132.486 966.453C134.669 964.867 137.483 965.403 140.162 969.091C142.063 971.707 142.103 974.448 141.557 975.82L137.997 974.818C138.239 973.635 137.762 972.156 136.954 971.044C136.191 969.993 135.199 969.581 134.354 970.194C133.51 970.808 133.784 971.836 134.952 973.443L135.94 974.802L133.426 976.628L132.947 975.969C131.6 974.115 130.73 973.74 130.153 974.159C129.515 974.623 129.612 975.277 130.36 976.307C131.228 977.501 132.452 978.06 133.684 978.109L133.317 981.46C131.4 981.594 129.208 981.046 127.367 978.512C124.943 975.175 125.283 972.568 127.24 971.146C128.476 970.248 129.77 970.252 130.922 970.799ZM122.216 962.585C120.705 960.505 120.684 957.53 123.321 955.614C126.019 953.654 129.402 954.281 131.707 957.453C134.026 960.646 133.592 964.077 130.894 966.038C129.431 967.101 127.821 967.484 125.973 967.41L119.444 967.086L116.316 962.781L116.419 962.706L122.752 963.235C122.566 963.024 122.381 962.812 122.216 962.585ZM128.74 959.608C128.007 958.599 126.747 958.381 125.799 959.069C124.852 959.758 124.67 961.023 125.418 962.053C126.151 963.063 127.426 963.301 128.374 962.613C129.321 961.924 129.489 960.638 128.74 959.608Z" fill="white"/>
<path d="M151.952 1022.87C143.693 1012.89 135.75 1002.65 128.135 992.164L628.565 628.58L151.952 1022.87Z" fill="#194778"/>
<path d="M152.727 1000.56C152.106 999.095 152.504 997.379 154.015 996.129C156.094 994.409 158.936 994.768 161.841 998.28C163.902 1000.77 164.114 1003.5 163.656 1004.91L160.04 1004.13C160.207 1002.94 159.639 1001.49 158.762 1000.43C157.934 999.429 156.919 999.08 156.114 999.746C155.31 1000.41 155.648 1001.42 156.914 1002.95L157.986 1004.24L155.592 1006.23L155.073 1005.6C153.612 1003.83 152.72 1003.51 152.17 1003.97C151.562 1004.47 151.7 1005.12 152.512 1006.1C153.453 1007.23 154.71 1007.72 155.942 1007.69L155.787 1011.05C153.882 1011.31 151.66 1010.9 149.663 1008.49C147.034 1005.31 147.21 1002.68 149.074 1001.14C150.251 1000.17 151.542 1000.09 152.727 1000.56ZM144.722 1002.03L137.321 993.087L137.792 992.698L152.761 987.783L155.65 991.275L143.818 995.148L147.567 999.68L144.722 1002.03Z" fill="white"/>
<path d="M177.65 1052.02C168.781 1042.57 160.21 1032.85 151.952 1022.87L628.565 628.58L177.65 1052.02Z" fill="#E5BE34"/>
<path d="M177.739 1030.47C177.027 1029.04 177.316 1027.31 178.745 1025.96C180.713 1024.12 183.571 1024.3 186.691 1027.62C188.905 1029.98 189.288 1032.69 188.919 1034.12L185.261 1033.57C185.353 1032.37 184.695 1030.96 183.753 1029.96C182.864 1029.01 181.829 1028.73 181.068 1029.44C180.307 1030.16 180.708 1031.14 182.067 1032.59L183.218 1033.81L180.953 1035.94L180.396 1035.35C178.827 1033.68 177.916 1033.41 177.397 1033.9C176.821 1034.44 176.999 1035.08 177.871 1036.01C178.882 1037.08 180.166 1037.48 181.395 1037.38L181.451 1040.75C179.566 1041.12 177.322 1040.85 175.178 1038.57C172.355 1035.56 172.365 1032.93 174.129 1031.28C175.242 1030.23 176.526 1030.07 177.739 1030.47ZM167.795 1020.18C167.31 1018.44 167.668 1016.77 168.912 1015.6C170.954 1013.69 174.214 1014.26 176.811 1017.02C179.426 1019.81 179.826 1023.13 177.784 1025.05C176.54 1026.22 174.84 1026.45 173.129 1025.86C173.305 1027.13 172.961 1028.32 172.052 1029.18C170.27 1030.85 167.422 1030.35 165.173 1027.95C162.942 1025.58 162.653 1022.74 164.435 1021.07C165.344 1020.21 166.542 1019.92 167.795 1020.18ZM167.569 1025.67C168.179 1026.32 169.146 1026.49 169.721 1025.95C170.297 1025.41 170.183 1024.43 169.573 1023.79C168.928 1023.1 168.066 1023.04 167.49 1023.58C166.915 1024.12 166.924 1024.98 167.569 1025.67ZM174.288 1019.36C173.399 1018.41 172.196 1018.28 171.417 1019.02C170.637 1019.75 170.689 1020.96 171.578 1021.9C172.502 1022.89 173.74 1023.05 174.519 1022.32C175.299 1021.59 175.212 1020.34 174.288 1019.36Z" fill="white"/>
<path d="M205.127 1079.5C195.682 1070.63 186.519 1061.46 177.65 1052.02L628.565 628.58L205.127 1079.5Z" fill="#A72608"/>
<path d="M203.948 1058.06C203.148 1056.68 203.327 1054.93 204.669 1053.5C206.517 1051.53 209.381 1051.53 212.704 1054.65C215.061 1056.87 215.614 1059.55 215.335 1061L211.65 1060.69C211.666 1059.48 210.921 1058.12 209.919 1057.17C208.972 1056.29 207.92 1056.07 207.206 1056.83C206.491 1057.59 206.953 1058.55 208.401 1059.91L209.626 1061.06L207.5 1063.32L206.906 1062.76C205.235 1061.19 204.31 1060.99 203.822 1061.51C203.282 1062.08 203.499 1062.71 204.428 1063.58C205.504 1064.59 206.811 1064.91 208.03 1064.73L208.298 1068.09C206.44 1068.58 204.184 1068.45 201.901 1066.31C198.894 1063.48 198.74 1060.86 200.396 1059.09C201.441 1057.98 202.713 1057.74 203.948 1058.06ZM191.332 1056.38C188.455 1053.68 188.238 1050.23 190.522 1047.8C191.759 1046.48 193.269 1045.8 195.098 1045.53L201.572 1044.62L205.452 1048.26L205.365 1048.36L199.045 1049.02C199.266 1049.2 199.488 1049.37 199.692 1049.56C201.567 1051.32 202.145 1054.24 199.914 1056.62C197.63 1059.05 194.19 1059.07 191.332 1056.38ZM196.647 1050.68C195.738 1049.83 194.441 1049.84 193.639 1050.69C192.837 1051.54 192.914 1052.84 193.842 1053.71C194.751 1054.56 196.03 1054.54 196.831 1053.69C197.633 1052.83 197.575 1051.56 196.647 1050.68Z" fill="white"/>
<path d="M234.277 1105.19C224.294 1096.93 214.573 1088.36 205.129 1079.5L628.566 628.58L234.277 1105.19Z" fill="#F08648"/>
<path d="M231.879 1080.81L234.151 1078.06L235.446 1079.14L236.825 1077.47L240.023 1080.11L238.644 1081.78L244.549 1086.67L242.374 1089.3L230.01 1091.66L227.087 1089.24L233.174 1081.88L231.879 1080.81ZM233.725 1087.53L238.863 1086.59L236.273 1084.45L233.725 1087.53ZM228.952 1070.56C232.386 1073.4 232.479 1077.64 229.46 1081.29C226.441 1084.94 222.258 1085.64 218.824 1082.8C215.45 1080.01 215.376 1075.78 218.395 1072.14C221.414 1068.49 225.578 1067.77 228.952 1070.56ZM226.453 1073.58C225.06 1072.43 223.272 1073.03 221.73 1074.89C220.188 1076.76 219.931 1078.63 221.324 1079.78C222.776 1080.98 224.583 1080.39 226.125 1078.53C227.667 1076.67 227.905 1074.78 226.453 1073.58Z" fill="white"/>
<path d="M264.981 1129.01C254.499 1121.4 244.259 1113.45 234.276 1105.19L628.565 628.581L264.981 1129.01Z" fill="#0E2945"/>
<path d="M258.641 1103.07L260.736 1100.19L262.096 1101.17L263.368 1099.42L266.726 1101.86L265.454 1103.61L271.654 1108.12L269.649 1110.88L257.458 1114.01L254.388 1111.78L260.001 1104.06L258.641 1103.07ZM260.906 1109.66L265.975 1108.4L263.255 1106.42L260.906 1109.66ZM247.857 1107.04L245.468 1105.3L254.448 1092.94L257.95 1095.49L252.606 1102.84L255.424 1102.56L256.038 1106.09L247.857 1107.04Z" fill="white"/>
<path d="M297.122 1150.85C286.182 1143.91 275.464 1136.63 264.982 1129.01L628.566 628.581L297.122 1150.85Z" fill="#194778"/>
<path d="M290.585 1126.26L292.495 1123.25L293.914 1124.16L295.073 1122.33L298.578 1124.55L297.418 1126.38L303.889 1130.49L302.061 1133.37L290.091 1137.26L286.887 1135.23L292.004 1127.17L290.585 1126.26ZM293.258 1132.7L298.238 1131.12L295.4 1129.32L293.258 1132.7ZM287.501 1129.4C284.851 1132.49 281.718 1132.34 279.01 1130.62C275.892 1128.64 275.101 1125.52 276.602 1123.15C277.448 1121.82 278.962 1120.67 282.861 1119.7L283.718 1119.49L279.999 1117.13L281.977 1114.02L292.597 1120.76L292.202 1121.38L285.482 1123.18C281.845 1124.16 280.892 1124.52 280.388 1125.31C279.978 1125.96 280.102 1126.76 281.091 1127.39C282.123 1128.04 283.34 1127.79 284.385 1126.52L287.501 1129.4Z" fill="white"/>
<path d="M330.567 1170.63C319.214 1164.39 308.059 1157.8 297.12 1150.85L628.564 628.58L330.567 1170.63Z" fill="#E5BE34"/>
<path d="M322.463 1146.48L324.18 1143.36L325.653 1144.17L326.696 1142.27L330.333 1144.27L329.29 1146.17L336.006 1149.86L334.363 1152.85L322.66 1157.49L319.336 1155.66L323.936 1147.29L322.463 1146.48ZM325.535 1152.73L330.406 1150.85L327.461 1149.23L325.535 1152.73ZM311.252 1143.11C310.134 1141.97 309.872 1140.23 310.816 1138.51C312.116 1136.15 314.891 1135.43 318.885 1137.63C321.718 1139.19 322.921 1141.65 323.012 1143.12L319.364 1143.73C319.08 1142.56 318.019 1141.42 316.814 1140.76C315.676 1140.14 314.603 1140.19 314.1 1141.1C313.597 1142.02 314.283 1142.83 316.023 1143.79L317.496 1144.6L315.999 1147.32L315.285 1146.93C313.277 1145.82 312.33 1145.85 311.987 1146.48C311.606 1147.17 311.972 1147.72 313.088 1148.33C314.382 1149.04 315.728 1149.03 316.863 1148.55L317.958 1151.74C316.28 1152.67 314.064 1153.11 311.319 1151.6C307.705 1149.62 306.902 1147.11 308.067 1144.99C308.803 1143.65 309.976 1143.11 311.252 1143.11Z" fill="white"/>
<path d="M365.192 1188.28C353.469 1182.76 341.922 1176.88 330.568 1170.63L628.564 628.581L365.192 1188.28Z" fill="#A72608"/>
<path d="M356.762 1165.24L358.28 1162.01L359.801 1162.73L360.722 1160.77L364.478 1162.53L363.556 1164.49L370.491 1167.76L369.038 1170.84L357.65 1176.21L354.217 1174.59L358.283 1165.95L356.762 1165.24ZM360.221 1171.28L364.964 1169.1L361.923 1167.66L360.221 1171.28ZM343.292 1158.9L344.81 1155.67L346.33 1156.39L347.252 1154.43L351.007 1156.2L350.086 1158.15L357.021 1161.42L355.568 1164.5L344.18 1169.87L340.747 1168.25L344.813 1159.61L343.292 1158.9ZM346.751 1164.94L351.494 1162.76L348.453 1161.33L346.751 1164.94Z" fill="white"/>
<path d="M400.855 1203.71C388.808 1198.94 376.915 1193.79 365.191 1188.28L628.564 628.581L400.855 1203.71Z" fill="#F08648"/>
<path d="M389.466 1180.64L390.778 1177.32L392.341 1177.94L393.138 1175.93L396.997 1177.46L396.2 1179.47L403.326 1182.29L402.07 1185.46L391.041 1191.53L387.514 1190.13L391.029 1181.26L389.466 1180.64ZM393.298 1186.45L397.894 1183.97L394.769 1182.74L393.298 1186.45ZM382.147 1182.56C377.357 1181.1 376.33 1178.37 377.493 1175.43C378.73 1172.31 381.757 1171.09 385.616 1172.62C387.817 1173.49 389.116 1174.36 390.004 1175.37L387.517 1178.2C386.819 1177.4 385.975 1176.76 384.91 1176.34C383.134 1175.64 381.797 1175.77 381.328 1176.95C380.541 1178.94 383.713 1180.19 387.309 1180.93L383.62 1188.59L374.718 1185.07L376.077 1181.64L381.522 1183.79L382.147 1182.56Z" fill="white"/>
<path d="M437.417 1216.87C425.095 1212.87 412.902 1208.48 400.855 1203.71L628.565 628.58L437.417 1216.87Z" fill="#0E2945"/>
<path d="M424.619 1194.57L425.721 1191.18L427.319 1191.7L427.988 1189.64L431.935 1190.92L431.266 1192.98L438.556 1195.35L437.501 1198.59L426.875 1205.34L423.267 1204.17L426.217 1195.09L424.619 1194.57ZM428.808 1200.13L433.24 1197.37L430.044 1196.33L428.808 1200.13ZM414.276 1196.11C411.83 1195.31 410.064 1192.92 411.072 1189.82C412.102 1186.64 415.207 1185.16 418.937 1186.37C422.69 1187.59 424.356 1190.63 423.325 1193.8C422.767 1195.52 421.689 1196.77 420.151 1197.8L414.678 1201.38L409.617 1199.73L409.656 1199.61L415.091 1196.32C414.816 1196.25 414.542 1196.19 414.276 1196.11ZM417.804 1189.86C416.617 1189.48 415.47 1190.04 415.108 1191.15C414.746 1192.27 415.342 1193.4 416.553 1193.79C417.74 1194.18 418.911 1193.62 419.273 1192.51C419.635 1191.39 419.015 1190.26 417.804 1189.86Z" fill="white"/>
<path d="M474.733 1227.71C462.184 1224.49 449.739 1220.88 437.417 1216.87L628.564 628.581L474.733 1227.71Z" fill="#194778"/>
<path d="M459.67 1206.03L460.556 1202.57L462.184 1202.99L462.722 1200.9L466.742 1201.93L466.204 1204.02L473.627 1205.93L472.779 1209.23L462.597 1216.64L458.923 1215.69L461.297 1206.44L459.67 1206.03ZM464.2 1211.32L468.45 1208.28L465.194 1207.44L464.2 1211.32ZM456.499 1215.07L445.253 1212.18L445.405 1211.59L454.626 1198.82L459.016 1199.94L451.721 1210.03L457.418 1211.49L456.499 1215.07Z" fill="white"/>
<path d="M512.657 1236.19C499.93 1233.76 487.282 1230.94 474.733 1227.71L628.564 628.581L512.657 1236.19Z" fill="#E5BE34"/>
<path d="M497.164 1215.66L497.832 1212.16L499.483 1212.48L499.888 1210.35L503.965 1211.13L503.559 1213.26L511.088 1214.69L510.449 1218.04L500.752 1226.07L497.025 1225.36L498.815 1215.98L497.164 1215.66ZM502.017 1220.66L506.068 1217.36L502.766 1216.73L502.017 1220.66ZM484.971 1216.03C483.552 1214.91 482.864 1213.35 483.184 1211.68C483.709 1208.92 486.682 1207.47 490.409 1208.18C494.161 1208.9 496.44 1211.35 495.915 1214.1C495.595 1215.78 494.357 1216.97 492.624 1217.49C493.511 1218.42 493.936 1219.59 493.703 1220.81C493.244 1223.21 490.644 1224.48 487.417 1223.86C484.216 1223.25 482.314 1221.13 482.772 1218.73C483.006 1217.5 483.807 1216.56 484.971 1216.03ZM488.013 1220.61C488.888 1220.77 489.773 1220.35 489.921 1219.57C490.069 1218.8 489.403 1218.07 488.528 1217.91C487.603 1217.73 486.867 1218.19 486.72 1218.96C486.572 1219.74 487.087 1220.43 488.013 1220.61ZM489.74 1211.55C488.464 1211.31 487.416 1211.91 487.216 1212.96C487.015 1214.01 487.768 1214.96 489.043 1215.2C490.369 1215.46 491.467 1214.86 491.668 1213.81C491.868 1212.76 491.065 1211.81 489.74 1211.55Z" fill="white"/>
<path d="M551.037 1242.27C538.183 1240.65 525.383 1238.62 512.656 1236.19L628.564 628.581L551.037 1242.27Z" fill="#A72608"/>
<path d="M534.497 1222.78L534.943 1219.25L536.611 1219.46L536.882 1217.31L541 1217.83L540.728 1219.98L548.332 1220.94L547.905 1224.32L538.731 1232.94L534.967 1232.47L536.164 1222.99L534.497 1222.78ZM539.654 1227.47L543.49 1223.92L540.155 1223.5L539.654 1227.47ZM526.176 1231.67C522.261 1231.17 520.057 1228.51 520.475 1225.2C520.701 1223.4 521.524 1221.97 522.843 1220.67L527.548 1216.13L532.828 1216.8L532.812 1216.93L528.091 1221.18C528.372 1221.19 528.654 1221.2 528.931 1221.23C531.483 1221.56 533.666 1223.58 533.257 1226.81C532.839 1230.12 530.067 1232.16 526.176 1231.67ZM527.128 1223.93C525.89 1223.78 524.843 1224.54 524.697 1225.7C524.55 1226.87 525.373 1227.87 526.636 1228.03C527.874 1228.18 528.895 1227.41 529.042 1226.25C529.189 1225.09 528.391 1224.09 527.128 1223.93Z" fill="white"/>
<path d="M589.724 1245.93C576.793 1245.11 563.891 1243.89 551.037 1242.27L628.564 628.581L589.724 1245.93Z" fill="#F08648"/>
<path d="M581.608 1232.61C576.602 1232.71 574.781 1230.42 574.979 1227.27C575.19 1223.92 577.695 1221.83 581.837 1222.09C584.2 1222.24 585.704 1222.67 586.86 1223.35L585.367 1226.8C584.457 1226.26 583.458 1225.92 582.315 1225.85C580.409 1225.73 579.176 1226.26 579.096 1227.53C578.962 1229.67 582.367 1229.88 586.016 1229.47L584.873 1237.9L575.318 1237.29L575.55 1233.61L581.395 1233.98L581.608 1232.61ZM566.132 1221.1C570.579 1221.38 573.148 1224.76 572.851 1229.49C572.553 1234.21 569.582 1237.24 565.135 1236.96C560.764 1236.69 558.221 1233.31 558.518 1228.58C558.815 1223.86 561.761 1220.83 566.132 1221.1ZM565.886 1225.02C564.082 1224.9 562.99 1226.44 562.838 1228.86C562.686 1231.27 563.577 1232.93 565.381 1233.05C567.261 1233.16 568.379 1231.63 568.53 1229.21C568.682 1226.8 567.767 1225.13 565.886 1225.02Z" fill="white"/>
<path d="M628.565 1247.15C615.609 1247.15 602.656 1246.74 589.725 1245.93L628.565 628.581L628.565 1247.15Z" fill="#0E2945"/>
<path d="M615.491 1234.37C610.5 1234.78 608.54 1232.61 608.54 1229.46C608.54 1226.09 610.908 1223.85 615.058 1223.85C617.426 1223.85 618.954 1224.18 620.151 1224.8L618.878 1228.34C617.936 1227.85 616.917 1227.57 615.771 1227.57C613.862 1227.57 612.665 1228.18 612.665 1229.46C612.665 1231.59 616.077 1231.59 619.693 1230.96L619.081 1239.44L609.507 1239.44L609.507 1235.74L615.364 1235.74L615.491 1234.37ZM601.462 1239.44L598.508 1239.44L598.508 1224.16L602.837 1224.16L602.837 1233.25L604.95 1231.37L607.522 1233.86L601.462 1239.44Z" fill="white"/>
<path d="M667.405 1245.93C654.474 1246.74 641.521 1247.15 628.565 1247.15L628.565 628.581L667.405 1245.93Z" fill="#194778"/>
<path d="M656.225 1233.83C651.27 1234.55 649.177 1232.51 648.979 1229.36C648.768 1226 650.99 1223.62 655.133 1223.36C657.496 1223.21 659.042 1223.44 660.274 1223.98L659.226 1227.59C658.255 1227.17 657.221 1226.95 656.078 1227.02C654.172 1227.14 653.016 1227.83 653.096 1229.1C653.23 1231.23 656.635 1231.02 660.204 1230.16L660.126 1238.66L650.571 1239.26L650.339 1235.57L656.184 1235.21L656.225 1233.83ZM648.247 1234.15C647.915 1238.2 645.294 1239.92 642.092 1240.12C638.407 1240.36 635.93 1238.29 635.754 1235.5C635.655 1233.92 636.203 1232.1 638.791 1229.03L639.361 1228.36L634.965 1228.63L634.733 1224.95L647.287 1224.16L647.333 1224.9L642.953 1230.3C640.586 1233.23 640.027 1234.08 640.087 1235.02C640.135 1235.78 640.707 1236.36 641.876 1236.29C643.095 1236.21 643.93 1235.29 644.031 1233.65L648.247 1234.15Z" fill="white"/>
<path d="M706.094 1242.27C693.239 1243.89 680.338 1245.11 667.407 1245.93L628.567 628.581L706.094 1242.27Z" fill="#E5BE34"/>
<path d="M694.133 1230.9C689.233 1231.93 687.016 1230.03 686.621 1226.9C686.199 1223.56 688.268 1221.04 692.386 1220.52C694.735 1220.23 696.292 1220.36 697.556 1220.82L696.737 1224.49C695.741 1224.13 694.696 1223.98 693.559 1224.12C691.664 1224.36 690.554 1225.12 690.713 1226.38C690.981 1228.5 694.366 1228.08 697.874 1226.99L698.33 1235.48L688.832 1236.68L688.369 1233.02L694.179 1232.28L694.133 1230.9ZM675.513 1231.2C673.94 1230.94 672.703 1229.68 672.457 1227.74C672.119 1225.06 673.945 1222.85 678.467 1222.28C681.675 1221.88 684.096 1223.16 685.035 1224.3L682.443 1226.94C681.523 1226.16 679.997 1225.86 678.633 1226.03C677.344 1226.2 676.505 1226.87 676.636 1227.9C676.767 1228.94 677.8 1229.19 679.77 1228.94L681.438 1228.73L681.827 1231.82L681.019 1231.92C678.745 1232.2 677.997 1232.79 678.087 1233.49C678.186 1234.28 678.805 1234.51 680.068 1234.35C681.533 1234.16 682.612 1233.36 683.249 1232.3L686.009 1234.24C685.202 1235.98 683.666 1237.64 680.559 1238.03C676.467 1238.55 674.345 1237 674.042 1234.6C673.851 1233.08 674.478 1231.95 675.513 1231.2Z" fill="white"/>
<path d="M744.473 1236.19C731.746 1238.62 718.946 1240.65 706.092 1242.27L628.565 628.581L744.473 1236.19Z" fill="#A72608"/>
<path d="M731.84 1225.59C727.014 1226.93 724.682 1225.17 724.091 1222.07C723.461 1218.77 725.367 1216.12 729.444 1215.34C731.77 1214.9 733.333 1214.94 734.623 1215.32L734.036 1219.03C733.02 1218.73 731.967 1218.65 730.841 1218.86C728.965 1219.22 727.904 1220.04 728.143 1221.3C728.544 1223.4 731.895 1222.76 735.328 1221.45L736.316 1229.9L726.912 1231.69L726.22 1228.06L731.972 1226.97L731.84 1225.59ZM709.44 1225.3L708.772 1221.8L710.423 1221.49L710.018 1219.36L714.095 1218.58L714.5 1220.71L722.029 1219.27L722.668 1222.62L716.607 1233.66L712.88 1234.37L711.091 1224.99L709.44 1225.3ZM715.792 1228.16L718.345 1223.6L715.043 1224.23L715.792 1228.16Z" fill="white"/>
<path d="M782.397 1227.71C769.848 1230.94 757.201 1233.76 744.474 1236.19L628.566 628.582L782.397 1227.71Z" fill="#F08648"/>
<path d="M768.139 1218.18C763.407 1219.82 760.969 1218.21 760.184 1215.15C759.348 1211.9 761.085 1209.14 765.105 1208.11C767.398 1207.52 768.961 1207.46 770.272 1207.75L769.919 1211.5C768.886 1211.26 767.83 1211.24 766.72 1211.53C764.87 1212 763.863 1212.89 764.18 1214.13C764.712 1216.2 768.016 1215.35 771.36 1213.83L772.877 1222.2L763.604 1224.58L762.686 1221L768.358 1219.55L768.139 1218.18ZM755.142 1221.52C750.41 1223.16 747.973 1221.55 747.187 1218.49C746.351 1215.23 748.088 1212.47 752.108 1211.44C754.402 1210.85 755.964 1210.79 757.275 1211.09L756.922 1214.83C755.889 1214.6 754.833 1214.58 753.723 1214.87C751.873 1215.34 750.866 1216.23 751.183 1217.46C751.715 1219.53 755.019 1218.69 758.363 1217.17L759.88 1225.54L750.607 1227.92L749.689 1224.34L755.361 1222.88L755.142 1221.52Z" fill="white"/>
<path d="M819.713 1216.87C807.391 1220.88 794.946 1224.49 782.397 1227.71L628.566 628.581L819.713 1216.87Z" fill="#0E2945"/>
<path d="M805.997 1207.89C801.377 1209.82 798.843 1208.37 797.868 1205.37C796.829 1202.17 798.389 1199.31 802.336 1198.03C804.588 1197.29 806.144 1197.14 807.471 1197.35L807.353 1201.11C806.308 1200.94 805.253 1200.99 804.163 1201.34C802.347 1201.93 801.397 1202.88 801.791 1204.09C802.452 1206.13 805.697 1205.07 808.939 1203.35L810.978 1211.6L801.872 1214.56L800.731 1211.05L806.301 1209.24L805.997 1207.89ZM790.433 1213.14C787.987 1213.93 785.152 1213.03 784.145 1209.93C783.114 1206.76 784.755 1203.74 788.485 1202.53C792.238 1201.31 795.367 1202.78 796.398 1205.95C796.957 1207.67 796.824 1209.32 796.182 1211.06L793.857 1217.17L788.796 1218.81L788.757 1218.69L791.217 1212.83C790.958 1212.94 790.7 1213.05 790.433 1213.14ZM789.618 1206.01C788.431 1206.4 787.835 1207.53 788.197 1208.64C788.559 1209.76 789.706 1210.32 790.917 1209.93C792.103 1209.54 792.724 1208.4 792.362 1207.29C792 1206.18 790.829 1205.62 789.618 1206.01Z" fill="white"/>
<path d="M856.275 1203.71C844.228 1208.48 832.035 1212.87 819.713 1216.87L628.565 628.581L856.275 1203.71Z" fill="#194778"/>
<path d="M840.811 1196.09C836.321 1198.31 833.701 1197.02 832.539 1194.08C831.301 1190.95 832.678 1188 836.537 1186.47C838.739 1185.6 840.281 1185.35 841.619 1185.47L841.738 1189.23C840.684 1189.13 839.634 1189.24 838.569 1189.67C836.793 1190.37 835.905 1191.38 836.374 1192.56C837.161 1194.55 840.334 1193.29 843.461 1191.37L846.014 1199.48L837.113 1203L835.754 1199.57L841.199 1197.42L840.811 1196.09ZM835.133 1203.79L824.337 1208.06L824.112 1207.49L824.064 1191.74L828.278 1190.07L828.305 1202.52L833.774 1200.35L835.133 1203.79Z" fill="white"/>
<path d="M891.938 1188.28C880.215 1193.79 868.321 1198.94 856.275 1203.71L628.566 628.581L891.938 1188.28Z" fill="#E5BE34"/>
<path d="M877.207 1181.09C872.865 1183.58 870.169 1182.46 868.825 1179.6C867.394 1176.56 868.582 1173.52 872.338 1171.76C874.481 1170.75 876.004 1170.4 877.347 1170.44L877.702 1174.18C876.644 1174.15 875.603 1174.33 874.566 1174.82C872.838 1175.63 872.015 1176.69 872.557 1177.84C873.468 1179.78 876.555 1178.33 879.556 1176.21L882.613 1184.14L873.95 1188.22L872.378 1184.88L877.677 1182.38L877.207 1181.09ZM859.263 1187.5C857.453 1187.43 855.982 1186.57 855.255 1185.03C854.063 1182.49 855.613 1179.57 859.046 1177.95C862.502 1176.33 865.79 1176.98 866.982 1179.51C867.709 1181.05 867.406 1182.74 866.313 1184.19C867.572 1184.41 868.603 1185.11 869.134 1186.24C870.175 1188.45 868.816 1191 865.844 1192.4C862.895 1193.79 860.107 1193.19 859.066 1190.97C858.535 1189.84 858.632 1188.62 859.263 1187.5ZM864.411 1189.42C865.218 1189.04 865.682 1188.17 865.346 1187.46C865.01 1186.74 864.047 1186.55 863.24 1186.93C862.388 1187.33 862.061 1188.13 862.397 1188.84C862.733 1189.56 863.559 1189.82 864.411 1189.42ZM860.487 1181.08C859.312 1181.63 858.818 1182.73 859.274 1183.7C859.729 1184.67 860.894 1184.99 862.069 1184.44C863.29 1183.86 863.83 1182.74 863.375 1181.77C862.919 1180.8 861.708 1180.5 860.487 1181.08Z" fill="white"/>
<path d="M926.562 1170.64C915.208 1176.88 903.661 1182.76 891.938 1188.28L628.566 628.582L926.562 1170.64Z" fill="#A72608"/>
<path d="M911.257 1164.47C907.08 1167.23 904.319 1166.28 902.798 1163.51C901.179 1160.57 902.174 1157.46 905.811 1155.46C907.887 1154.32 909.385 1153.87 910.728 1153.83L911.317 1157.55C910.259 1157.58 909.231 1157.82 908.227 1158.38C906.554 1159.3 905.799 1160.41 906.413 1161.52C907.443 1163.4 910.433 1161.75 913.295 1159.45L916.844 1167.18L908.454 1171.79L906.676 1168.56L911.808 1165.73L911.257 1164.47ZM901.197 1176.13C897.739 1178.03 894.389 1177.17 892.782 1174.25C891.911 1172.66 891.733 1171.02 892.038 1169.19L893.177 1162.76L897.84 1160.19L897.902 1160.3L896.583 1166.52C896.816 1166.36 897.049 1166.21 897.295 1166.07C899.548 1164.83 902.502 1165.18 904.072 1168.04C905.679 1170.96 904.633 1174.24 901.197 1176.13ZM897.421 1169.31C896.328 1169.92 895.932 1171.15 896.496 1172.18C897.06 1173.2 898.315 1173.53 899.431 1172.92C900.524 1172.32 900.898 1171.09 900.334 1170.07C899.77 1169.04 898.537 1168.7 897.421 1169.31Z" fill="white"/>
<path d="M960.009 1150.85C949.07 1157.8 937.915 1164.39 926.562 1170.64L628.565 628.582L960.009 1150.85Z" fill="#F08648"/>
<path d="M943.084 1146.67C940.912 1148.05 937.942 1147.89 936.196 1145.13C934.408 1142.32 935.246 1138.98 938.557 1136.88C941.89 1134.77 945.287 1135.41 947.074 1138.23C948.043 1139.76 948.324 1141.39 948.134 1143.23L947.402 1149.72L942.908 1152.58L942.84 1152.47L943.766 1146.18C943.543 1146.35 943.32 1146.52 943.084 1146.67ZM940.522 1139.98C939.469 1140.64 939.172 1141.89 939.8 1142.88C940.427 1143.87 941.679 1144.13 942.754 1143.45C943.807 1142.78 944.125 1141.52 943.498 1140.53C942.87 1139.54 941.597 1139.29 940.522 1139.98ZM925.582 1145.11C929.345 1142.73 933.407 1143.95 935.945 1147.95C938.483 1151.95 937.858 1156.14 934.096 1158.53C930.398 1160.88 926.357 1159.64 923.819 1155.64C921.282 1151.64 921.884 1147.46 925.582 1145.11ZM927.683 1148.42C926.157 1149.39 926.178 1151.28 927.474 1153.32C928.77 1155.37 930.468 1156.19 931.995 1155.22C933.586 1154.21 933.586 1152.31 932.29 1150.27C930.994 1148.22 929.274 1147.42 927.683 1148.42Z" fill="white"/>
<path d="M992.145 1128.99C981.663 1136.61 970.945 1143.89 960.006 1150.84L628.561 628.563L992.145 1128.99Z" fill="#0E2945"/>
<path d="M971.731 1128.25C969.65 1129.76 966.675 1129.79 964.76 1127.15C962.799 1124.45 963.426 1121.07 966.598 1118.76C969.791 1116.44 973.222 1116.88 975.183 1119.58C976.246 1121.04 976.629 1122.65 976.555 1124.5L976.232 1131.03L971.926 1134.15L971.851 1134.05L972.381 1127.72C972.169 1127.9 971.957 1128.09 971.731 1128.25ZM968.753 1121.73C967.744 1122.46 967.526 1123.72 968.215 1124.67C968.903 1125.62 970.169 1125.8 971.199 1125.05C972.208 1124.32 972.446 1123.04 971.758 1122.1C971.069 1121.15 969.783 1120.98 968.753 1121.73ZM965.685 1138.69L963.295 1140.42L954.315 1128.06L957.817 1125.52L963.16 1132.87L963.763 1130.11L967.31 1130.61L965.685 1138.69Z" fill="white"/>
<path d="M1022.85 1105.18C1012.87 1113.44 1002.63 1121.38 992.146 1128.99L628.562 628.563L1022.85 1105.18Z" fill="#194778"/>
<path d="M1004.63 1103.9C1002.64 1105.54 999.677 1105.75 997.599 1103.24C995.473 1100.67 995.886 1097.25 998.908 1094.75C1001.95 1092.24 1005.4 1092.46 1007.53 1095.03C1008.68 1096.42 1009.16 1098 1009.2 1099.85L1009.29 1106.39L1005.19 1109.78L1005.11 1109.68L1005.24 1103.33C1005.04 1103.53 1004.84 1103.72 1004.63 1103.9ZM1001.24 1097.58C1000.28 1098.37 1000.15 1099.65 1000.89 1100.55C1001.64 1101.45 1002.91 1101.55 1003.89 1100.74C1004.86 1099.95 1005.01 1098.66 1004.27 1097.76C1003.52 1096.85 1002.23 1096.77 1001.24 1097.58ZM1000.3 1107.02C1002.41 1110.49 1001.3 1113.43 998.829 1115.47C995.984 1117.83 992.767 1117.61 990.982 1115.45C989.975 1114.24 989.349 1112.44 989.638 1108.44L989.703 1107.56L986.308 1110.36L983.955 1107.52L993.647 1099.5L994.118 1100.07L993.751 1107.02C993.558 1110.78 993.606 1111.8 994.207 1112.52C994.694 1113.11 995.495 1113.24 996.398 1112.49C997.339 1111.72 997.474 1110.48 996.592 1109.09L1000.3 1107.02Z" fill="white"/>
<path d="M1052 1079.48C1042.55 1088.35 1032.83 1096.92 1022.85 1105.18L628.562 628.563L1052 1079.48Z" fill="#E5BE34"/>
<path d="M1033.49 1079.57C1031.62 1081.34 1028.67 1081.73 1026.44 1079.35C1024.15 1076.92 1024.35 1073.49 1027.21 1070.8C1030.09 1068.1 1033.54 1068.1 1035.83 1070.53C1037.07 1071.85 1037.65 1073.4 1037.81 1075.24L1038.3 1081.76L1034.42 1085.4L1034.34 1085.31L1034.07 1078.96C1033.88 1079.17 1033.69 1079.38 1033.49 1079.57ZM1029.72 1073.48C1028.81 1074.33 1028.75 1075.61 1029.55 1076.46C1030.35 1077.31 1031.63 1077.34 1032.56 1076.47C1033.47 1075.61 1033.55 1074.32 1032.75 1073.46C1031.94 1072.61 1030.65 1072.6 1029.72 1073.48ZM1020.1 1089.11C1018.68 1089.82 1016.94 1089.53 1015.6 1088.1C1013.75 1086.13 1013.93 1083.27 1017.25 1080.15C1019.61 1077.94 1022.32 1077.56 1023.75 1077.93L1023.2 1081.58C1022 1081.49 1020.59 1082.15 1019.59 1083.09C1018.64 1083.98 1018.36 1085.02 1019.07 1085.78C1019.79 1086.54 1020.77 1086.14 1022.22 1084.78L1023.45 1083.63L1025.57 1085.89L1024.98 1086.45C1023.31 1088.02 1023.05 1088.93 1023.53 1089.45C1024.07 1090.02 1024.71 1089.85 1025.64 1088.97C1026.71 1087.96 1027.12 1086.68 1027.01 1085.45L1030.38 1085.39C1030.75 1087.28 1030.48 1089.52 1028.2 1091.67C1025.19 1094.49 1022.56 1094.48 1020.91 1092.72C1019.86 1091.6 1019.71 1090.32 1020.1 1089.11Z" fill="white"/>
<path d="M1079.48 1052C1070.61 1061.45 1061.45 1070.61 1052 1079.48L628.564 628.564L1079.48 1052Z" fill="#A72608"/>
<path d="M1061.03 1053.25C1059.27 1055.12 1056.35 1055.7 1053.97 1053.47C1051.54 1051.18 1051.52 1047.74 1054.21 1044.89C1056.91 1042.01 1060.36 1041.79 1062.79 1044.08C1064.11 1045.31 1064.79 1046.82 1065.06 1048.65L1065.97 1055.13L1062.33 1059.01L1062.23 1058.92L1061.57 1052.6C1061.39 1052.82 1061.22 1053.04 1061.03 1053.25ZM1056.88 1047.4C1056.03 1048.31 1056.05 1049.58 1056.9 1050.39C1057.76 1051.19 1059.03 1051.13 1059.91 1050.2C1060.76 1049.29 1060.75 1048 1059.9 1047.19C1059.05 1046.39 1057.75 1046.47 1056.88 1047.4ZM1044.13 1064.43L1041.53 1061.99L1042.68 1060.77L1041.1 1059.29L1043.95 1056.26L1045.52 1057.74L1050.77 1052.16L1053.26 1054.49L1054.84 1066.98L1052.24 1069.74L1045.28 1063.21L1044.13 1064.43ZM1050.95 1063.01L1050.34 1057.83L1048.04 1060.28L1050.95 1063.01Z" fill="white"/>
<path d="M1105.18 1022.85C1096.92 1032.84 1088.35 1042.56 1079.48 1052L628.563 628.563L1105.18 1022.85Z" fill="#F08648"/>
<path d="M1086.95 1025.11C1085.31 1027.1 1082.44 1027.86 1079.93 1025.78C1077.36 1023.65 1077.12 1020.22 1079.62 1017.2C1082.14 1014.16 1085.57 1013.73 1088.14 1015.85C1089.53 1017 1090.3 1018.47 1090.69 1020.28L1092 1026.68L1088.61 1030.78L1088.51 1030.7L1087.45 1024.43C1087.29 1024.67 1087.13 1024.9 1086.95 1025.11ZM1082.45 1019.54C1081.65 1020.5 1081.76 1021.77 1082.66 1022.52C1083.56 1023.27 1084.83 1023.13 1085.64 1022.15C1086.44 1021.18 1086.35 1019.89 1085.45 1019.14C1084.55 1018.4 1083.26 1018.56 1082.45 1019.54ZM1079.79 1033.49C1076.93 1037.6 1074.01 1037.73 1071.58 1035.71C1068.99 1033.57 1068.77 1030.32 1071.41 1027.12C1072.92 1025.3 1074.15 1024.33 1075.39 1023.8L1077.3 1027.03C1076.33 1027.45 1075.46 1028.06 1074.73 1028.94C1073.52 1030.41 1073.22 1031.72 1074.21 1032.54C1075.85 1033.9 1078.03 1031.27 1079.84 1028.08L1085.99 1033.95L1079.88 1041.33L1077.04 1038.98L1080.77 1034.47L1079.79 1033.49Z" fill="white"/>
<path d="M1128.99 992.148C1121.38 1002.63 1113.43 1012.87 1105.18 1022.85L628.563 628.564L1128.99 992.148Z" fill="#0E2945"/>
<path d="M1110.93 995.57C1109.42 997.651 1106.6 998.59 1103.96 996.675C1101.26 994.714 1100.81 991.303 1103.12 988.131C1105.44 984.938 1108.83 984.29 1111.53 986.251C1113 987.314 1113.86 988.727 1114.36 990.507L1116.07 996.817L1112.94 1001.12L1112.84 1001.05L1111.38 994.861C1111.24 995.102 1111.1 995.344 1110.93 995.57ZM1106.08 990.286C1105.35 991.295 1105.53 992.561 1106.48 993.249C1107.43 993.938 1108.69 993.72 1109.44 992.69C1110.17 991.681 1110 990.395 1109.05 989.706C1108.11 989.018 1106.83 989.256 1106.08 990.286ZM1102.59 1007.06C1101.08 1009.14 1098.25 1010.08 1095.62 1008.16C1092.92 1006.2 1092.47 1002.79 1094.77 999.616C1097.09 996.423 1100.49 995.775 1103.19 997.736C1104.65 998.798 1105.51 1000.21 1106.01 1001.99L1107.72 1008.3L1104.6 1012.61L1104.49 1012.53L1103.04 1006.35C1102.9 1006.59 1102.75 1006.83 1102.59 1007.06ZM1097.74 1001.77C1097.01 1002.78 1097.19 1004.05 1098.14 1004.73C1099.08 1005.42 1100.34 1005.2 1101.09 1004.17C1101.83 1003.17 1101.66 1001.88 1100.71 1001.19C1099.76 1000.5 1098.49 1000.74 1097.74 1001.77Z" fill="white"/>
<path d="M1150.84 960.008C1143.89 970.947 1136.61 981.666 1128.99 992.148L628.564 628.564L1150.84 960.008Z" fill="#194778"/>
<path d="M1132.44 965.48C1131.06 967.652 1128.3 968.766 1125.55 967.02C1122.74 965.232 1122.07 961.857 1124.17 958.546C1126.29 955.213 1129.64 954.354 1132.46 956.141C1133.98 957.11 1134.93 958.466 1135.54 960.211L1137.65 966.401L1134.79 970.895L1134.69 970.826L1132.85 964.743C1132.72 964.993 1132.59 965.244 1132.44 965.48ZM1127.27 960.511C1126.6 961.564 1126.86 962.815 1127.85 963.443C1128.84 964.071 1130.08 963.774 1130.77 962.699C1131.44 961.646 1131.19 960.373 1130.2 959.745C1129.21 959.118 1127.95 959.436 1127.27 960.511ZM1133.72 972.583L1127.5 982.387L1126.98 982.059L1117.68 969.342L1120.11 965.515L1127.45 975.571L1130.61 970.605L1133.72 972.583Z" fill="white"/>
<path d="M1170.62 926.56C1164.37 937.914 1157.78 949.069 1150.84 960.008L628.563 628.564L1170.62 926.56Z" fill="#E5BE34"/>
<path d="M1153.13 932.22C1151.89 934.473 1149.21 935.759 1146.35 934.189C1143.43 932.582 1142.55 929.254 1144.44 925.818C1146.34 922.36 1149.63 921.291 1152.56 922.898C1154.14 923.769 1155.17 925.063 1155.89 926.766L1158.38 932.812L1155.82 937.476L1155.71 937.414L1153.49 931.459C1153.38 931.717 1153.26 931.974 1153.13 932.22ZM1147.66 927.585C1147.06 928.678 1147.39 929.91 1148.42 930.475C1149.45 931.039 1150.67 930.665 1151.28 929.549C1151.88 928.456 1151.56 927.201 1150.53 926.637C1149.5 926.073 1148.27 926.469 1147.66 927.585ZM1143.3 945.922C1141.79 946.923 1140.1 947.096 1138.6 946.274C1136.15 944.925 1135.68 941.647 1137.51 938.323C1139.35 934.976 1142.39 933.567 1144.85 934.917C1146.34 935.739 1147.09 937.284 1147.05 939.094C1148.2 938.535 1149.45 938.492 1150.54 939.093C1152.68 940.271 1153.08 943.136 1151.5 946.014C1149.93 948.87 1147.32 950.022 1145.18 948.844C1144.09 948.243 1143.44 947.193 1143.3 945.922ZM1148.59 944.442C1149.02 943.661 1148.88 942.687 1148.19 942.307C1147.5 941.926 1146.61 942.336 1146.18 943.117C1145.72 943.942 1145.93 944.782 1146.62 945.163C1147.31 945.543 1148.13 945.267 1148.59 944.442ZM1140.51 940.001C1139.88 941.139 1140.14 942.323 1141.07 942.838C1142.01 943.353 1143.14 942.93 1143.77 941.792C1144.42 940.609 1144.19 939.381 1143.26 938.866C1142.32 938.351 1141.16 938.819 1140.51 940.001Z" fill="white"/>
<path d="M1188.26 891.937C1182.74 903.66 1176.86 915.207 1170.62 926.561L628.564 628.564L1188.26 891.937Z" fill="#A72608"/>
<path d="M1171.12 898.774C1170.02 901.101 1167.42 902.552 1164.48 901.165C1161.46 899.744 1160.38 896.478 1162.05 892.93C1163.73 889.359 1166.94 888.086 1169.96 889.507C1171.6 890.276 1172.71 891.503 1173.53 893.158L1176.4 899.035L1174.13 903.851L1174.02 903.796L1171.43 897.992C1171.33 898.256 1171.24 898.52 1171.12 898.774ZM1165.36 894.491C1164.83 895.62 1165.25 896.829 1166.31 897.328C1167.37 897.827 1168.57 897.377 1169.11 896.225C1169.64 895.096 1169.23 893.864 1168.17 893.365C1167.11 892.866 1165.91 893.339 1165.36 894.491ZM1170.56 912.16C1168.88 915.731 1165.66 917.004 1162.64 915.584C1161.01 914.814 1159.9 913.588 1159.07 911.933L1156.21 906.055L1158.47 901.24L1158.59 901.294L1161.18 907.099C1161.27 906.834 1161.37 906.57 1161.49 906.317C1162.58 903.99 1165.18 902.538 1168.13 903.926C1171.15 905.346 1172.23 908.612 1170.56 912.16ZM1163.5 908.866C1162.97 909.995 1163.37 911.227 1164.43 911.725C1165.49 912.224 1166.7 911.751 1167.24 910.599C1167.77 909.47 1167.36 908.261 1166.3 907.763C1165.24 907.264 1164.04 907.714 1163.5 908.866Z" fill="white"/>
<path d="M1203.69 856.273C1198.92 868.32 1193.78 880.213 1188.26 891.936L628.564 628.564L1203.69 856.273Z" fill="#F08648"/>
<path d="M1194.5 858.542L1190.23 869.337L1189.66 869.112L1178.14 858.363L1179.81 854.149L1188.9 862.651L1191.07 857.183L1194.5 858.542ZM1172.71 871.245C1174.35 867.102 1178.36 865.702 1182.76 867.446C1187.16 869.189 1189.13 872.951 1187.49 877.094C1185.87 881.166 1181.88 882.542 1177.47 880.798C1173.07 879.055 1171.1 875.317 1172.71 871.245ZM1176.36 872.688C1175.69 874.369 1176.82 875.883 1179.07 876.774C1181.32 877.664 1183.17 877.331 1183.84 875.65C1184.53 873.898 1183.42 872.361 1181.17 871.47C1178.92 870.58 1177.05 870.936 1176.36 872.688Z" fill="white"/>
<path d="M1216.85 819.713C1212.85 832.035 1208.46 844.228 1203.69 856.275L628.564 628.565L1216.85 819.713Z" fill="#0E2945"/>
<path d="M1206.95 825.243L1203.36 836.286L1202.78 836.097L1190.61 826.092L1192.01 821.781L1201.62 829.696L1203.44 824.102L1206.95 825.243ZM1201.46 842.125L1200.55 844.934L1186.02 840.213L1187.36 836.096L1196 838.906L1194.86 836.313L1198.03 834.639L1201.46 842.125Z" fill="white"/>
<path d="M1227.7 782.396C1224.48 794.945 1220.86 807.39 1216.86 819.712L628.565 628.565L1227.7 782.396Z" fill="#194778"/>
<path d="M1218.91 785.624L1216.02 796.87L1215.43 796.718L1202.65 787.497L1203.78 783.107L1213.87 790.403L1215.33 784.706L1218.91 785.624ZM1210.75 796.298C1214.5 797.865 1215.33 800.891 1214.53 803.998C1213.61 807.574 1210.89 809.292 1208.17 808.596C1206.64 808.203 1205.08 807.119 1202.96 803.708L1202.5 802.958L1201.4 807.225L1197.82 806.307L1200.95 794.123L1201.67 794.307L1205.45 800.142C1207.51 803.299 1208.15 804.093 1209.06 804.328C1209.8 804.518 1210.52 804.152 1210.81 803.017C1211.12 801.833 1210.5 800.755 1208.97 800.152L1210.75 796.298Z" fill="white"/>
<path d="M1236.17 744.473C1233.75 757.199 1230.92 769.847 1227.7 782.396L628.564 628.565L1236.17 744.473Z" fill="#E5BE34"/>
<path d="M1227.32 749.718L1225.15 761.123L1224.55 761.009L1211.22 752.608L1212.07 748.156L1222.59 754.804L1223.7 749.026L1227.32 749.718ZM1216.12 770.536C1215.38 771.951 1213.81 772.739 1211.88 772.372C1209.23 771.866 1207.7 769.448 1208.55 764.971C1209.16 761.794 1211.13 759.889 1212.5 759.347L1214.21 762.628C1213.18 763.262 1212.43 764.622 1212.17 765.972C1211.93 767.248 1212.3 768.253 1213.33 768.449C1214.36 768.645 1214.92 767.741 1215.29 765.79L1215.6 764.139L1218.65 764.721L1218.5 765.521C1218.07 767.772 1218.4 768.663 1219.1 768.797C1219.87 768.945 1220.28 768.427 1220.52 767.176C1220.8 765.726 1220.37 764.451 1219.56 763.519L1222.25 761.493C1223.66 762.799 1224.76 764.772 1224.18 767.848C1223.4 771.9 1221.27 773.437 1218.89 772.984C1217.39 772.697 1216.51 771.751 1216.12 770.536Z" fill="white"/>
<path d="M1242.25 706.092C1240.63 718.946 1238.6 731.746 1236.17 744.472L628.564 628.565L1242.25 706.092Z" fill="#A72608"/>
<path d="M1233.75 711.844L1232.3 723.363L1231.69 723.287L1217.86 715.739L1218.43 711.243L1229.35 717.217L1230.09 711.381L1233.75 711.844ZM1221.27 734.486L1217.73 734.04L1217.94 732.372L1215.8 732.101L1216.32 727.983L1218.46 728.255L1219.42 720.651L1222.81 721.078L1231.43 730.252L1230.95 734.016L1221.48 732.819L1221.27 734.486ZM1225.95 729.329L1222.41 725.493L1221.98 728.828L1225.95 729.329Z" fill="white"/>
<path d="M1245.91 667.405C1245.1 680.336 1243.88 693.238 1242.25 706.092L628.566 628.565L1245.91 667.405Z" fill="#F08648"/>
<path d="M1237.78 673.934L1237.05 685.522L1236.44 685.484L1222.16 678.82L1222.44 674.296L1233.72 679.573L1234.09 673.702L1237.78 673.934ZM1231.62 691.038C1231.72 696.045 1229.43 697.866 1226.28 697.667C1222.93 697.456 1220.84 694.952 1221.1 690.81C1221.25 688.447 1221.67 686.943 1222.36 685.787L1225.81 687.279C1225.27 688.189 1224.93 689.188 1224.85 690.332C1224.73 692.238 1225.27 693.471 1226.54 693.55C1228.67 693.685 1228.89 690.279 1228.48 686.631L1236.9 687.773L1236.3 697.328L1232.62 697.097L1232.99 691.252L1231.62 691.038Z" fill="white"/>
<path d="M1247.13 628.565C1247.13 641.521 1246.72 654.474 1245.91 667.405L628.564 628.565L1247.13 628.565Z" fill="#0E2945"/>
<path d="M1239.42 635.336L1239.42 646.947L1238.81 646.947L1224.14 641.193L1224.14 636.66L1235.73 641.218L1235.73 635.336L1239.42 635.336ZM1234.53 654.531C1234.53 657.103 1232.8 659.521 1229.54 659.521C1226.21 659.521 1223.84 657.026 1223.84 653.105C1223.84 649.158 1226.21 646.637 1229.54 646.637C1231.35 646.637 1232.88 647.274 1234.33 648.42L1239.42 652.519L1239.42 657.841L1239.29 657.841L1234.48 653.69C1234.51 653.971 1234.53 654.251 1234.53 654.531ZM1227.5 653.105C1227.5 654.353 1228.39 655.269 1229.57 655.269C1230.74 655.269 1231.63 654.353 1231.63 653.079C1231.63 651.832 1230.74 650.89 1229.57 650.89C1228.39 650.89 1227.5 651.832 1227.5 653.105Z" fill="white"/>
<path d="M1245.91 589.725C1246.72 602.655 1247.13 615.608 1247.13 628.565L628.565 628.565L1245.91 589.725Z" fill="#194778"/>
<path d="M1238.65 597.096L1239.38 608.684L1238.77 608.722L1223.77 603.9L1223.48 599.377L1235.33 603.198L1234.96 597.328L1238.65 597.096ZM1239.44 609.741L1240.17 621.329L1239.56 621.367L1224.56 616.545L1224.28 612.021L1236.13 615.843L1235.76 609.972L1239.44 609.741Z" fill="white"/>
<path d="M1242.25 551.038C1243.88 563.892 1245.1 576.794 1245.91 589.725L628.565 628.565L1242.25 551.038Z" fill="#E5BE34"/>
<path d="M1235.49 558.975L1236.94 570.494L1236.33 570.571L1221.06 566.7L1220.49 562.203L1232.56 565.273L1231.82 559.437L1235.49 558.975ZM1231.43 581.895C1230.79 583.591 1229.52 584.727 1227.83 584.941C1225.05 585.292 1222.75 582.913 1222.28 579.149C1221.8 575.36 1223.43 572.433 1226.21 572.082C1227.9 571.868 1229.41 572.678 1230.45 574.164C1231.05 573.036 1232.03 572.27 1233.27 572.114C1235.69 571.808 1237.7 573.89 1238.11 577.148C1238.52 580.382 1237.09 582.847 1234.66 583.154C1233.43 583.31 1232.29 582.838 1231.43 581.895ZM1234.83 577.588C1234.72 576.704 1234.04 575.995 1233.26 576.094C1232.48 576.192 1231.99 577.049 1232.11 577.933C1232.22 578.868 1232.88 579.426 1233.67 579.327C1234.45 579.228 1234.95 578.523 1234.83 577.588ZM1225.69 578.744C1225.85 580.032 1226.75 580.843 1227.81 580.709C1228.87 580.575 1229.54 579.566 1229.38 578.278C1229.21 576.939 1228.3 576.078 1227.24 576.212C1226.18 576.346 1225.52 577.405 1225.69 578.744Z" fill="white"/>
<path d="M1236.17 512.656C1238.6 525.383 1240.63 538.183 1242.25 551.037L628.564 628.564L1236.17 512.656Z" fill="#A72608"/>
<path d="M1229.59 519.32L1231.77 530.725L1231.17 530.84L1215.69 527.935L1214.84 523.483L1227.07 525.789L1225.97 520.012L1229.59 519.32ZM1233.44 537.831C1234.18 541.708 1232.32 544.628 1229.05 545.253C1227.27 545.592 1225.65 545.253 1224.01 544.399L1218.24 541.327L1217.24 536.099L1217.37 536.075L1222.87 539.25C1222.79 538.98 1222.72 538.71 1222.66 538.435C1222.18 535.908 1223.43 533.208 1226.63 532.597C1229.91 531.972 1232.7 533.979 1233.44 537.831ZM1225.79 539.316C1226.02 540.542 1227.07 541.3 1228.22 541.081C1229.38 540.861 1230.07 539.769 1229.84 538.518C1229.6 537.293 1228.55 536.559 1227.4 536.779C1226.25 536.998 1225.55 538.066 1225.79 539.316Z" fill="white"/>
<path d="M1227.7 474.734C1230.92 487.283 1233.75 499.931 1236.17 512.657L628.565 628.565L1227.7 474.734Z" fill="#F08648"/>
<path d="M1217.21 492.632C1216.79 494.395 1215.68 495.68 1214.03 496.104C1211.31 496.801 1208.73 494.73 1207.79 491.055C1206.84 487.356 1208.09 484.248 1210.8 483.551C1212.45 483.127 1214.06 483.74 1215.27 485.085C1215.73 483.89 1216.6 483.008 1217.81 482.697C1220.18 482.09 1222.43 483.903 1223.25 487.085C1224.06 490.242 1222.95 492.867 1220.58 493.475C1219.37 493.785 1218.18 493.459 1217.21 492.632ZM1220.05 487.933C1219.83 487.069 1219.06 486.451 1218.3 486.647C1217.54 486.843 1217.16 487.753 1217.39 488.617C1217.62 489.529 1218.35 490 1219.11 489.804C1219.88 489.607 1220.28 488.845 1220.05 487.933ZM1211.12 490.225C1211.45 491.483 1212.44 492.174 1213.47 491.908C1214.51 491.642 1215.05 490.558 1214.72 489.3C1214.39 487.993 1213.38 487.252 1212.35 487.518C1211.31 487.784 1210.79 488.918 1211.12 490.225ZM1211.57 505.577C1210.46 501.261 1212.88 497.775 1217.46 496.597C1222.05 495.419 1225.85 497.31 1226.96 501.626C1228.05 505.868 1225.62 509.329 1221.04 510.507C1216.45 511.685 1212.66 509.819 1211.57 505.577ZM1215.37 504.602C1215.82 506.353 1217.62 506.916 1219.96 506.314C1222.3 505.713 1223.61 504.352 1223.16 502.601C1222.69 500.776 1220.88 500.188 1218.54 500.79C1216.2 501.392 1214.9 502.777 1215.37 504.602Z" fill="white"/>
<path d="M1216.86 437.418C1220.86 449.74 1224.48 462.185 1227.7 474.735L628.566 628.566L1216.86 437.418Z" fill="#0E2945"/>
<path d="M1208.2 458.058C1207.9 459.844 1206.86 461.197 1205.24 461.724C1202.58 462.589 1199.87 460.684 1198.7 457.076C1197.52 453.444 1198.57 450.263 1201.24 449.397C1202.86 448.87 1204.5 449.382 1205.79 450.648C1206.17 449.427 1206.99 448.491 1208.18 448.105C1210.5 447.35 1212.87 449.019 1213.88 452.143C1214.89 455.242 1213.94 457.933 1211.62 458.688C1210.43 459.074 1209.23 458.823 1208.2 458.058ZM1210.74 453.19C1210.47 452.342 1209.67 451.772 1208.91 452.016C1208.16 452.26 1207.85 453.192 1208.13 454.04C1208.42 454.936 1209.17 455.36 1209.92 455.116C1210.67 454.872 1211.03 454.086 1210.74 453.19ZM1201.98 456.038C1202.38 457.273 1203.41 457.901 1204.43 457.571C1205.44 457.24 1205.91 456.124 1205.51 454.889C1205.09 453.606 1204.04 452.93 1203.03 453.26C1202.01 453.59 1201.56 454.755 1201.98 456.038ZM1217.62 464.729L1218.54 467.538L1204.01 472.259L1202.67 468.142L1211.31 465.333L1208.87 463.906L1210.45 460.689L1217.62 464.729Z" fill="white"/>
<path d="M1203.69 400.856C1208.46 412.902 1212.85 425.096 1216.86 437.418L628.565 628.565L1203.69 400.856Z" fill="#194778"/>
<path d="M1195.97 421.033C1195.78 422.834 1194.83 424.249 1193.25 424.877C1190.64 425.908 1187.82 424.177 1186.42 420.65C1185.02 417.099 1185.87 413.858 1188.47 412.827C1190.06 412.199 1191.73 412.607 1193.1 413.789C1193.4 412.546 1194.16 411.561 1195.32 411.102C1197.59 410.202 1200.06 411.719 1201.27 414.773C1202.47 417.803 1201.69 420.548 1199.42 421.447C1198.26 421.907 1197.04 421.732 1195.97 421.033ZM1198.2 416.015C1197.87 415.186 1197.04 414.668 1196.3 414.959C1195.57 415.249 1195.31 416.199 1195.64 417.027C1195.99 417.903 1196.77 418.28 1197.5 417.989C1198.24 417.698 1198.55 416.891 1198.2 416.015ZM1189.63 419.408C1190.11 420.616 1191.18 421.177 1192.17 420.784C1193.17 420.39 1193.56 419.247 1193.08 418.04C1192.59 416.785 1191.5 416.176 1190.5 416.569C1189.51 416.963 1189.13 418.153 1189.63 419.408ZM1198.79 423.675C1202.75 422.739 1205.2 424.7 1206.38 427.683C1207.74 431.116 1206.54 434.11 1203.94 435.141C1202.47 435.722 1200.57 435.763 1196.85 434.251L1196.03 433.917L1197.65 438.013L1194.22 439.372L1189.59 427.676L1190.27 427.405L1196.77 429.9C1200.29 431.246 1201.27 431.514 1202.14 431.168C1202.85 430.886 1203.23 430.164 1202.79 429.075C1202.34 427.939 1201.21 427.429 1199.62 427.839L1198.79 423.675Z" fill="white"/>
<path d="M1188.26 365.192C1193.78 376.915 1198.93 388.809 1203.69 400.855L628.567 628.565L1188.26 365.192Z" fill="#E5BE34"/>
<path d="M1181.9 385.985C1181.82 387.794 1180.97 389.266 1179.42 389.992C1176.89 391.185 1173.96 389.634 1172.35 386.201C1170.72 382.745 1171.37 379.458 1173.9 378.265C1175.45 377.539 1177.14 377.841 1178.58 378.935C1178.8 377.676 1179.5 376.644 1180.63 376.113C1182.84 375.072 1185.4 376.432 1186.79 379.404C1188.18 382.353 1187.58 385.14 1185.37 386.181C1184.24 386.712 1183.01 386.615 1181.9 385.985ZM1183.81 380.836C1183.43 380.03 1182.56 379.565 1181.85 379.901C1181.14 380.237 1180.94 381.201 1181.32 382.007C1181.72 382.859 1182.52 383.186 1183.24 382.85C1183.95 382.514 1184.21 381.689 1183.81 380.836ZM1175.47 384.761C1176.02 385.936 1177.13 386.429 1178.09 385.974C1179.06 385.518 1179.39 384.353 1178.83 383.178C1178.26 381.957 1177.13 381.417 1176.16 381.873C1175.2 382.328 1174.89 383.54 1175.47 384.761ZM1187.56 398.501C1187.8 400.079 1186.99 401.643 1185.21 402.478C1182.77 403.627 1180.11 402.573 1178.17 398.448C1176.79 395.522 1177.26 392.823 1178.06 391.577L1181.37 393.228C1180.91 394.345 1181.1 395.887 1181.68 397.131C1182.24 398.306 1183.13 398.897 1184.08 398.453C1185.02 398.008 1184.95 396.947 1184.1 395.15L1183.39 393.629L1186.2 392.307L1186.54 393.044C1187.52 395.117 1188.3 395.649 1188.95 395.345C1189.66 395.009 1189.69 394.349 1189.15 393.197C1188.52 391.861 1187.42 391.083 1186.22 390.804L1187.21 387.581C1189.12 387.809 1191.17 388.757 1192.5 391.591C1194.26 395.324 1193.43 397.821 1191.25 398.851C1189.86 399.502 1188.59 399.255 1187.56 398.501Z" fill="white"/>
<path d="M1170.62 330.568C1176.86 341.922 1182.74 353.469 1188.26 365.192L628.566 628.565L1170.62 330.568Z" fill="#A72608"/>
<path d="M1165.57 351.703C1165.6 353.514 1164.84 355.036 1163.35 355.858C1160.89 357.208 1157.88 355.844 1156.05 352.519C1154.21 349.172 1154.65 345.85 1157.1 344.501C1158.6 343.679 1160.3 343.875 1161.81 344.875C1161.96 343.605 1162.59 342.532 1163.68 341.931C1165.82 340.753 1168.46 341.95 1170.04 344.828C1171.61 347.684 1171.18 350.504 1169.04 351.682C1167.95 352.283 1166.72 352.262 1165.57 351.703ZM1167.15 346.445C1166.72 345.664 1165.83 345.254 1165.13 345.635C1164.44 346.015 1164.31 346.989 1164.74 347.77C1165.19 348.595 1166.01 348.871 1166.7 348.491C1167.4 348.11 1167.6 347.271 1167.15 346.445ZM1159.07 350.886C1159.7 352.023 1160.83 352.447 1161.77 351.931C1162.71 351.416 1162.96 350.233 1162.33 349.095C1161.68 347.912 1160.52 347.444 1159.58 347.96C1158.65 348.475 1158.42 349.703 1159.07 350.886ZM1171.52 368.03L1168.4 369.747L1167.59 368.274L1165.69 369.317L1163.69 365.68L1165.59 364.637L1161.89 357.921L1164.88 356.277L1177.25 358.632L1179.08 361.957L1170.71 366.557L1171.52 368.03ZM1172.27 361.106L1167.15 360.086L1168.77 363.032L1172.27 361.106Z" fill="white"/>
<path d="M1150.84 297.12C1157.78 308.06 1164.38 319.215 1170.62 330.568L628.565 628.565L1150.84 297.12Z" fill="#F08648"/>
<path d="M1146.98 318.306C1147.13 320.11 1146.46 321.678 1145.02 322.592C1142.66 324.093 1139.56 322.921 1137.53 319.718C1135.48 316.493 1135.71 313.15 1138.08 311.649C1139.52 310.735 1141.23 310.823 1142.8 311.727C1142.87 310.45 1143.43 309.339 1144.48 308.671C1146.55 307.361 1149.25 308.39 1151.01 311.163C1152.76 313.915 1152.51 316.756 1150.44 318.066C1149.39 318.734 1148.16 318.792 1146.98 318.306ZM1148.23 312.958C1147.75 312.206 1146.83 311.853 1146.17 312.276C1145.5 312.699 1145.43 313.679 1145.91 314.432C1146.41 315.227 1147.25 315.451 1147.91 315.028C1148.58 314.605 1148.73 313.754 1148.23 312.958ZM1140.45 317.897C1141.14 318.994 1142.3 319.345 1143.2 318.772C1144.1 318.199 1144.28 317.002 1143.58 315.905C1142.86 314.766 1141.68 314.372 1140.77 314.945C1139.87 315.518 1139.72 316.758 1140.45 317.897ZM1153.16 324.623C1156.18 328.618 1155.4 331.433 1152.73 333.125C1149.89 334.926 1146.73 334.127 1144.51 330.623C1143.24 328.623 1142.7 327.156 1142.58 325.818L1146.25 324.997C1146.34 326.051 1146.65 327.062 1147.27 328.029C1148.29 329.641 1149.45 330.324 1150.52 329.642C1152.33 328.496 1150.5 325.615 1148.03 322.903L1155.51 318.876L1160.64 326.96L1157.52 328.938L1154.39 323.993L1153.16 324.623Z" fill="white"/>
<path d="M1129 264.979C1136.61 275.461 1143.9 286.18 1150.84 297.119L628.566 628.563L1129 264.979Z" fill="#0E2945"/>
<path d="M1126.48 286.374C1126.74 288.166 1126.18 289.772 1124.8 290.774C1122.53 292.421 1119.37 291.446 1117.14 288.376C1114.89 285.286 1114.91 281.935 1117.18 280.289C1118.56 279.286 1120.28 279.267 1121.9 280.07C1121.88 278.792 1122.37 277.648 1123.38 276.915C1125.36 275.478 1128.12 276.335 1130.06 278.992C1131.97 281.629 1131.9 284.48 1129.92 285.917C1128.92 286.65 1127.69 286.785 1126.48 286.374ZM1127.39 280.959C1126.87 280.238 1125.93 279.943 1125.29 280.407C1124.65 280.871 1124.64 281.854 1125.17 282.575C1125.72 283.337 1126.57 283.508 1127.21 283.044C1127.85 282.58 1127.95 281.721 1127.39 280.959ZM1119.93 286.377C1120.7 287.427 1121.88 287.705 1122.74 287.076C1123.61 286.448 1123.71 285.242 1122.94 284.191C1122.15 283.1 1120.94 282.781 1120.08 283.409C1119.21 284.038 1119.14 285.285 1119.93 286.377ZM1135.07 294.779C1136.58 296.86 1136.61 299.835 1133.97 301.751C1131.27 303.711 1127.89 303.084 1125.58 299.912C1123.26 296.719 1123.7 293.288 1126.4 291.327C1127.86 290.264 1129.47 289.881 1131.32 289.955L1137.85 290.278L1140.97 294.584L1140.87 294.659L1134.54 294.13C1134.72 294.341 1134.91 294.553 1135.07 294.779ZM1128.55 297.757C1129.28 298.766 1130.54 298.984 1131.49 298.295C1132.44 297.607 1132.62 296.341 1131.87 295.311C1131.14 294.302 1129.86 294.064 1128.92 294.752C1127.97 295.441 1127.8 296.727 1128.55 297.757Z" fill="white"/>
<path d="M1105.18 234.275C1113.44 244.258 1121.38 254.498 1129 264.98L628.565 628.564L1105.18 234.275Z" fill="#194778"/>
<path d="M1104.97 256.945C1105.34 258.717 1104.88 260.355 1103.57 261.443C1101.41 263.228 1098.19 262.454 1095.77 259.53C1093.34 256.587 1093.15 253.242 1095.31 251.456C1096.62 250.369 1098.33 250.241 1100 250.942C1099.91 249.667 1100.32 248.494 1101.29 247.699C1103.17 246.141 1105.98 246.823 1108.07 249.354C1110.15 251.865 1110.26 254.715 1108.38 256.273C1107.42 257.068 1106.2 257.279 1104.97 256.945ZM1105.54 251.483C1104.97 250.797 1104.02 250.562 1103.41 251.065C1102.8 251.568 1102.85 252.549 1103.42 253.236C1104.02 253.962 1104.88 254.079 1105.49 253.576C1106.1 253.073 1106.14 252.209 1105.54 251.483ZM1098.44 257.359C1099.27 258.359 1100.46 258.562 1101.28 257.881C1102.11 257.199 1102.13 255.99 1101.3 254.989C1100.44 253.949 1099.22 253.707 1098.39 254.389C1097.57 255.07 1097.58 256.319 1098.44 257.359ZM1112.29 254.965L1119.69 263.911L1119.22 264.301L1104.25 269.216L1101.36 265.723L1113.19 261.85L1109.44 257.318L1112.29 254.965Z" fill="white"/>
<path d="M1079.48 205.126C1088.35 214.571 1096.92 224.292 1105.18 234.275L628.565 628.564L1079.48 205.126Z" fill="#E5BE34"/>
<path d="M1079.73 226.741C1080.22 228.485 1079.86 230.149 1078.62 231.317C1076.58 233.234 1073.32 232.664 1070.72 229.898C1068.1 227.114 1067.7 223.787 1069.75 221.869C1070.99 220.701 1072.69 220.467 1074.4 221.061C1074.22 219.794 1074.57 218.598 1075.48 217.744C1077.26 216.071 1080.11 216.574 1082.36 218.969C1084.59 221.345 1084.88 224.182 1083.09 225.855C1082.19 226.71 1080.99 226.996 1079.73 226.741ZM1079.96 221.253C1079.35 220.604 1078.38 220.429 1077.81 220.97C1077.23 221.51 1077.35 222.486 1077.96 223.136C1078.6 223.823 1079.46 223.886 1080.04 223.346C1080.61 222.805 1080.61 221.94 1079.96 221.253ZM1073.24 227.563C1074.13 228.51 1075.33 228.638 1076.11 227.906C1076.89 227.174 1076.84 225.965 1075.95 225.018C1075.03 224.035 1073.79 223.87 1073.01 224.602C1072.23 225.334 1072.32 226.58 1073.24 227.563ZM1089.45 237.089C1089.94 238.834 1089.58 240.498 1088.34 241.665C1086.29 243.583 1083.03 243.012 1080.44 240.246C1077.82 237.462 1077.42 234.135 1079.46 232.218C1080.71 231.05 1082.41 230.815 1084.12 231.409C1083.94 230.143 1084.29 228.946 1085.2 228.092C1086.98 226.419 1089.83 226.923 1092.07 229.317C1094.31 231.693 1094.59 234.53 1092.81 236.204C1091.9 237.058 1090.71 237.345 1089.45 237.089ZM1089.68 231.602C1089.07 230.952 1088.1 230.778 1087.53 231.318C1086.95 231.858 1087.06 232.835 1087.67 233.484C1088.32 234.171 1089.18 234.234 1089.76 233.694C1090.33 233.154 1090.32 232.289 1089.68 231.602ZM1082.96 237.912C1083.85 238.858 1085.05 238.986 1085.83 238.254C1086.61 237.522 1086.56 236.313 1085.67 235.367C1084.75 234.383 1083.51 234.218 1082.73 234.95C1081.95 235.682 1082.04 236.928 1082.96 237.912Z" fill="white"/>
<path d="M1052 177.648C1061.45 186.517 1070.61 195.681 1079.48 205.126L628.565 628.563L1052 177.648Z" fill="#A72608"/>
<path d="M1053.65 199.234C1054.24 200.944 1053.99 202.627 1052.82 203.871C1050.9 205.913 1047.61 205.548 1044.85 202.951C1042.06 200.336 1041.45 197.041 1043.37 194.999C1044.54 193.755 1046.22 193.414 1047.97 193.9C1047.71 192.647 1047.98 191.432 1048.83 190.522C1050.51 188.74 1053.38 189.064 1055.77 191.313C1058.15 193.544 1058.62 196.357 1056.94 198.139C1056.09 199.049 1054.91 199.41 1053.65 199.234ZM1053.53 193.743C1052.88 193.133 1051.9 193.02 1051.36 193.595C1050.82 194.17 1050.99 195.138 1051.64 195.748C1052.33 196.393 1053.2 196.401 1053.74 195.826C1054.28 195.251 1054.21 194.388 1053.53 193.743ZM1047.22 200.462C1048.16 201.351 1049.37 201.403 1050.1 200.624C1050.84 199.844 1050.71 198.641 1049.76 197.752C1048.78 196.829 1047.53 196.742 1046.8 197.521C1046.07 198.301 1046.23 199.539 1047.22 200.462ZM1065.81 200.771C1068.69 203.472 1068.9 206.924 1066.62 209.356C1065.38 210.674 1063.87 211.352 1062.04 211.625L1055.57 212.531L1051.69 208.888L1051.78 208.796L1058.1 208.129C1057.87 207.955 1057.65 207.782 1057.45 207.59C1055.57 205.83 1055 202.912 1057.23 200.536C1059.51 198.104 1062.95 198.086 1065.81 200.771ZM1060.49 206.468C1061.4 207.322 1062.7 207.317 1063.5 206.464C1064.3 205.61 1064.23 204.315 1063.3 203.444C1062.39 202.589 1061.11 202.612 1060.31 203.465C1059.51 204.319 1059.57 205.596 1060.49 206.468Z" fill="white"/>
<path d="M1022.85 151.95C1032.84 160.209 1042.56 168.779 1052 177.648L628.565 628.563L1022.85 151.95Z" fill="#F08648"/>
<path d="M1026.34 164.445C1029.38 166.961 1029.81 170.392 1027.69 172.962C1026.54 174.355 1025.07 175.127 1023.26 175.514L1016.86 176.825L1012.76 173.433L1012.84 173.335L1019.1 172.272C1018.87 172.114 1018.64 171.955 1018.42 171.776C1016.44 170.137 1015.68 167.261 1017.76 164.749C1019.89 162.179 1023.32 161.945 1026.34 164.445ZM1021.39 170.465C1022.35 171.26 1023.65 171.174 1024.4 170.271C1025.14 169.369 1024.98 168.082 1024 167.27C1023.04 166.475 1021.77 166.577 1021.02 167.48C1020.27 168.382 1020.41 169.653 1021.39 170.465ZM1028.11 186.53C1024.68 183.69 1024.58 179.449 1027.6 175.799C1030.62 172.15 1034.8 171.447 1038.24 174.288C1041.61 177.079 1041.69 181.304 1038.67 184.953C1035.65 188.603 1031.49 189.322 1028.11 186.53ZM1030.61 183.509C1032 184.661 1033.79 184.058 1035.33 182.194C1036.87 180.33 1037.13 178.461 1035.74 177.309C1034.29 176.108 1032.48 176.695 1030.94 178.559C1029.4 180.422 1029.16 182.308 1030.61 183.509Z" fill="white"/>
<path d="M992.149 128.134C1002.63 135.749 1012.87 143.692 1022.85 151.951L628.565 628.564L992.149 128.134Z" fill="#0E2945"/>
<path d="M998.667 142.022C1001.86 144.342 1002.51 147.739 1000.55 150.438C999.485 151.9 998.072 152.762 996.291 153.263L989.982 154.973L985.676 151.845L985.751 151.742L991.937 150.288C991.696 150.144 991.454 150 991.228 149.836C989.147 148.324 988.208 145.501 990.124 142.865C992.084 140.166 995.495 139.717 998.667 142.022ZM994.108 148.34C995.118 149.074 996.404 148.907 997.092 147.959C997.781 147.011 997.542 145.737 996.512 144.988C995.503 144.255 994.237 144.437 993.549 145.385C992.86 146.332 993.078 147.592 994.108 148.34ZM1009.37 150.173L1011.76 151.909L1002.78 164.269L999.274 161.725L1004.62 154.37L1001.8 154.653L1001.19 151.122L1009.37 150.173Z" fill="white"/>
<path d="M960.01 106.291C970.949 113.233 981.667 120.518 992.149 128.133L628.565 628.563L960.01 106.291Z" fill="#194778"/>
<path d="M966.401 119.117C969.733 121.232 970.592 124.582 968.805 127.398C967.836 128.925 966.48 129.874 964.735 130.485L958.545 132.588L954.052 129.737L954.12 129.629L960.203 127.79C959.953 127.661 959.703 127.533 959.466 127.383C957.295 126.004 956.18 123.246 957.927 120.495C959.714 117.678 963.09 117.016 966.401 119.117ZM962.247 125.709C963.301 126.378 964.574 126.13 965.201 125.141C965.829 124.152 965.511 122.895 964.436 122.213C963.382 121.544 962.131 121.806 961.503 122.795C960.876 123.783 961.172 125.027 962.247 125.709ZM970.136 128.062C972.786 124.979 975.919 125.127 978.627 126.846C981.745 128.825 982.536 131.95 981.035 134.315C980.189 135.648 978.675 136.798 974.776 137.762L973.919 137.972L977.638 140.332L975.66 143.45L965.04 136.71L965.435 136.086L972.155 134.289C975.792 133.31 976.745 132.949 977.249 132.154C977.659 131.509 977.535 130.707 976.546 130.079C975.514 129.424 974.297 129.677 973.252 130.944L970.136 128.062Z" fill="white"/>
<path d="M926.562 86.5099C937.915 92.7516 949.07 99.3485 960.01 106.291L628.565 628.563L926.562 86.5099Z" fill="#E5BE34"/>
<path d="M933.724 98.8969C937.182 100.798 938.251 104.088 936.644 107.011C935.773 108.595 934.479 109.627 932.776 110.347L926.73 112.835L922.066 110.271L922.128 110.159L928.083 107.942C927.825 107.829 927.568 107.717 927.322 107.582C925.069 106.343 923.783 103.66 925.353 100.804C926.96 97.8808 930.288 97.0078 933.724 98.8969ZM929.993 105.737C931.086 106.338 932.341 106.011 932.905 104.985C933.469 103.958 933.073 102.723 931.958 102.11C930.864 101.509 929.632 101.848 929.067 102.875C928.503 103.901 928.877 105.124 929.993 105.737ZM945.587 113.874C946.705 115.012 946.968 116.754 946.023 118.473C944.723 120.838 941.949 121.55 937.954 119.354C935.121 117.796 933.918 115.334 933.827 113.86L937.475 113.25C937.759 114.424 938.821 115.559 940.025 116.221C941.163 116.847 942.237 116.798 942.74 115.883C943.242 114.968 942.556 114.155 940.816 113.198L939.343 112.389L940.84 109.666L941.554 110.059C943.562 111.163 944.509 111.131 944.852 110.507C945.233 109.815 944.867 109.265 943.751 108.652C942.457 107.94 941.112 107.956 939.976 108.436L938.881 105.248C940.559 104.311 942.775 103.873 945.52 105.382C949.134 107.369 949.937 109.873 948.772 111.993C948.036 113.332 946.863 113.879 945.587 113.874Z" fill="white"/>
<path d="M891.937 68.8681C903.661 74.3847 915.208 80.2682 926.561 86.5099L628.565 628.563L891.937 68.8681Z" fill="#A72608"/>
<path d="M899.669 80.6887C903.24 82.3692 904.513 85.5852 903.093 88.6033C902.323 90.2391 901.096 91.3505 899.442 92.1759L893.564 95.0383L888.749 92.7724L888.803 92.6572L894.607 90.0699C894.343 89.9737 894.079 89.8775 893.825 89.7582C891.498 88.6632 890.047 86.0666 891.435 83.1175C892.855 80.0993 896.121 79.0191 899.669 80.6887ZM896.375 87.7497C897.503 88.2809 898.735 87.8757 899.234 86.8158C899.733 85.756 899.26 84.5485 898.108 84.0064C896.979 83.4752 895.77 83.8913 895.271 84.9511C894.773 86.0109 895.223 87.2076 896.375 87.7497ZM913.972 98.3097L912.454 101.535L910.933 100.82L910.012 102.778L906.256 101.011L907.178 99.0525L900.243 95.7892L901.696 92.7019L913.084 87.3389L916.517 88.9543L912.451 97.5941L913.972 98.3097ZM910.513 92.264L905.77 94.4501L908.811 95.8812L910.513 92.264Z" fill="white"/>
<path d="M856.275 53.4348C868.321 58.2043 880.215 63.3512 891.938 68.8677L628.565 628.563L856.275 53.4348Z" fill="#F08648"/>
<path d="M864.643 64.7114C868.313 66.1643 869.785 69.2941 868.557 72.3955C867.892 74.0764 866.737 75.2625 865.138 76.1902L859.451 79.416L854.503 77.4569L854.55 77.3386L860.181 74.3919C859.911 74.3125 859.641 74.233 859.381 74.1299C856.99 73.1832 855.378 70.6828 856.578 67.6525C857.806 64.5511 860.998 63.2679 864.643 64.7114ZM861.799 71.9653C862.959 72.4246 864.163 71.9428 864.594 70.8538C865.025 69.7647 864.477 68.5893 863.294 68.1206C862.134 67.6613 860.953 68.1525 860.522 69.2415C860.091 70.3306 860.615 71.4966 861.799 71.9653ZM874.359 74.3365C879.149 75.7949 880.175 78.529 879.013 81.4647C877.776 84.5897 874.749 85.8014 870.89 84.2735C868.688 83.4018 867.39 82.5316 866.502 81.5228L868.988 78.7007C869.686 79.4973 870.53 80.1327 871.596 80.5545C873.371 81.2575 874.709 81.1299 875.178 79.9462C875.965 77.9575 872.793 76.7014 869.196 75.9622L872.886 68.3035L881.788 71.8279L880.428 75.2608L874.983 73.1049L874.359 74.3365Z" fill="white"/>
<path d="M819.715 40.2732C832.037 44.277 844.23 48.6668 856.277 53.4363L628.567 628.564L819.715 40.2732Z" fill="#0E2945"/>
<path d="M828.635 50.9575C832.389 52.1771 834.055 55.2082 833.024 58.3806C832.465 60.1 831.388 61.3563 829.849 62.3826L824.377 65.9591L819.316 64.3146L819.355 64.1935L824.789 60.8991C824.515 60.8368 824.241 60.7744 823.975 60.6879C821.529 59.8932 819.763 57.4989 820.77 54.3992C821.801 51.2268 824.906 49.7458 828.635 50.9575ZM826.252 58.3757C827.438 58.7612 828.61 58.2048 828.972 57.0908C829.334 55.9768 828.713 54.8381 827.502 54.4447C826.316 54.0592 825.169 54.6235 824.807 55.7374C824.445 56.8514 825.041 57.9822 826.252 58.3757ZM841.383 60.5612C843.829 61.3559 845.594 63.7502 844.587 66.8499C843.556 70.0223 840.451 71.5033 836.722 70.2916C832.969 69.0719 831.303 66.0408 832.334 62.8684C832.892 61.1491 833.97 59.8928 835.508 58.8665L840.981 55.29L846.042 56.9345L846.003 57.0556L840.568 60.35C840.842 60.4123 841.117 60.4746 841.383 60.5612ZM837.855 66.8044C839.042 67.1899 840.189 66.6256 840.551 65.5116C840.913 64.3977 840.316 63.2668 839.106 62.8734C837.919 62.4878 836.748 63.0443 836.386 64.1583C836.024 65.2722 836.644 66.4109 837.855 66.8044Z" fill="white"/>
<path d="M782.398 29.4314C794.947 32.6535 807.392 36.2691 819.714 40.2728L628.567 628.564L782.398 29.4314Z" fill="#194778"/>
<path d="M792.35 39.6314C796.173 40.6129 798.025 43.5334 797.196 46.7643C796.746 48.5153 795.75 49.8368 794.279 50.9576L789.042 54.8707L783.887 53.5472L783.919 53.4239L789.136 49.7948C788.858 49.7498 788.58 49.7048 788.309 49.6352C785.818 48.9956 783.906 46.7169 784.716 43.5601C785.546 40.3292 788.552 38.6562 792.35 39.6314ZM790.437 47.1845C791.645 47.4948 792.779 46.8659 793.071 45.7314C793.362 44.5969 792.671 43.4994 791.438 43.1828C790.229 42.8725 789.12 43.5078 788.829 44.6423C788.537 45.7768 789.204 46.8679 790.437 47.1845ZM800.069 41.9289L811.316 44.8164L811.164 45.4083L801.942 58.1831L797.552 57.0559L804.848 46.9678L799.151 45.505L800.069 41.9289Z" fill="white"/>
<path d="M744.476 20.9546C757.203 23.3824 769.85 26.2095 782.4 29.4315L628.568 628.564L744.476 20.9546Z" fill="#E5BE34"/>
<path d="M755.073 30.5139C758.95 31.2535 760.982 34.0519 760.357 37.3285C760.019 39.1043 759.107 40.4857 757.71 41.6967L752.728 45.9309L747.501 44.9337L747.525 44.8087L752.503 40.8591C752.224 40.8317 751.944 40.8042 751.668 40.7517C749.142 40.2698 747.091 38.1157 747.701 34.9142C748.326 31.6376 751.221 29.7791 755.073 30.5139ZM753.638 38.1723C754.864 38.4061 755.956 37.7072 756.176 36.5567C756.395 35.4061 755.637 34.3542 754.386 34.1156C753.16 33.8818 752.093 34.5855 751.874 35.736C751.654 36.8866 752.388 37.9337 753.638 38.1723ZM771.218 40.9296C772.636 42.0556 773.324 43.6125 773.004 45.2883C772.48 48.0397 769.506 49.4944 765.779 48.7834C762.028 48.0678 759.749 45.6111 760.273 42.8598C760.593 41.184 761.831 39.9944 763.564 39.4696C762.677 38.5486 762.252 37.3789 762.486 36.1533C762.944 33.7521 765.544 32.4855 768.771 33.101C771.973 33.7117 773.874 35.8372 773.416 38.2383C773.182 39.4639 772.382 40.3999 771.218 40.9296ZM768.176 36.3573C767.3 36.1903 766.415 36.6177 766.267 37.3931C766.119 38.1684 766.785 38.8916 767.66 39.0586C768.586 39.2351 769.321 38.7791 769.469 38.0038C769.617 37.2284 769.101 36.5339 768.176 36.3573ZM766.449 45.4116C767.724 45.6549 768.773 45.0513 768.973 44.0008C769.173 42.9503 768.421 42.0032 767.145 41.7599C765.82 41.507 764.721 42.1011 764.521 43.1516C764.32 44.2021 765.123 45.1587 766.449 45.4116Z" fill="white"/>
<path d="M706.093 14.875C718.947 16.4989 731.747 18.5262 744.474 20.9539L628.566 628.563L706.093 14.875Z" fill="#A72608"/>
<path d="M717.309 23.7552C721.224 24.2499 723.429 26.9152 723.011 30.2245C722.784 32.0181 721.961 33.4541 720.642 34.7504L715.937 39.289L710.657 38.622L710.673 38.4957L715.394 34.2414C715.113 34.2315 714.832 34.2217 714.554 34.1866C712.002 33.8643 709.819 31.8433 710.228 28.6097C710.646 25.3004 713.418 23.2638 717.309 23.7552ZM716.358 31.4886C717.595 31.645 718.642 30.8789 718.789 29.7168C718.935 28.5548 718.112 27.5525 716.849 27.393C715.611 27.2366 714.59 28.0059 714.443 29.1679C714.297 30.33 715.094 31.329 716.358 31.4886ZM731.736 25.5777C735.651 26.0724 737.855 28.7377 737.437 32.0471C737.211 33.8407 736.388 35.2766 735.069 36.5729L730.364 41.1116L725.084 40.4446L725.1 40.3183L729.821 36.0639C729.539 36.0541 729.258 36.0442 728.981 36.0091C726.429 35.6868 724.246 33.6658 724.655 30.4322C725.073 27.1229 727.845 25.0863 731.736 25.5777ZM730.784 33.3111C732.022 33.4675 733.069 32.7014 733.215 31.5394C733.362 30.3773 732.539 29.3751 731.276 29.2155C730.038 29.0591 729.017 29.8284 728.87 30.9905C728.723 32.1525 729.521 33.1516 730.784 33.3111Z" fill="white"/>
<path d="M667.406 11.218C680.337 12.0316 693.239 13.2512 706.093 14.875L628.566 628.563L667.406 11.218Z" fill="#F08648"/>
<path d="M672.726 21.4189L675.177 21.5731L674.379 34.2475L670.788 34.0216L671.263 26.4803L669.411 27.9332L667.408 25.7288L672.726 21.4189ZM682.574 35.0176C678.877 34.785 676.742 31.9785 676.989 28.0494C677.236 24.1204 679.706 21.6036 683.403 21.8362C687.036 22.0648 689.15 24.8699 688.903 28.799C688.656 32.7281 686.207 35.2462 682.574 35.0176ZM682.778 31.7645C684.278 31.8588 685.186 30.5799 685.312 28.5731C685.438 26.5663 684.698 25.1836 683.198 25.0893C681.635 24.9909 680.706 26.2686 680.58 28.2754C680.454 30.2822 681.215 31.6661 682.778 31.7645ZM696.286 35.8803C692.589 35.6477 690.454 32.8412 690.701 28.9121C690.948 24.9831 693.418 22.4663 697.115 22.6989C700.748 22.9275 702.862 25.7326 702.615 29.6617C702.368 33.5908 699.919 36.1089 696.286 35.8803ZM696.49 32.6272C697.99 32.7215 698.898 31.4425 699.024 29.4358C699.15 27.429 698.41 26.0463 696.91 25.952C695.347 25.8536 694.418 27.1313 694.292 29.1381C694.166 31.1448 694.927 32.5288 696.49 32.6272Z" fill="white"/>
</svg>
