<svg width="640" height="678" viewBox="0 0 640 678" fill="none" xmlns="http://www.w3.org/2000/svg">
<circle cx="356.859" cy="304.982" r="235.638" stroke="black" stroke-width="3" stroke-dasharray="6 10"/>
<path d="M350.839 216.194C348.502 215.55 346.065 214.841 344.311 213.166C343.742 212.626 343.232 211.85 343.473 211.104C343.795 210.111 345.12 209.953 346.16 210.034C357.307 210.885 370.575 217.621 379.817 223.679C370.076 221.832 360.398 218.83 350.839 216.194Z" fill="#E5BE34"/>
<path d="M522.142 241.31C522.142 241.31 475.134 215.146 406.106 196.32C337.078 177.494 268.069 171.04 268.069 171.04C268.069 171.04 341.641 225.985 391.272 236.253C440.905 246.524 522.142 241.31 522.142 241.31Z" fill="#2B264C"/>
<path d="M442.372 407.85L327.996 220.82L254.621 197.082C254.621 197.082 235.199 233.769 228.726 254.63C222.253 275.491 223.692 294.195 218.655 299.23C213.62 304.264 171.896 340.233 171.896 340.233C180.044 356.168 193.142 367.892 210.668 371.523C211.913 382.72 212.065 394.103 212.273 405.48C217.147 407.526 227.825 412.369 227.825 415.515C227.825 418.562 217.698 418.193 212.581 417.811C212.95 428.37 213.718 438.868 215.822 449.139C218.258 461.032 223.284 473.771 234.215 479.049C239.427 481.566 245.365 482.046 251.148 482.242C270.75 482.91 290.441 480.795 309.453 475.974L371.659 586.691L495.604 500.644L442.372 407.85Z" fill="#E48B73"/>
<path d="M522.142 241.31C532.103 259.257 536.258 280.368 533.841 300.749C533.65 302.368 533.062 304.364 531.449 304.597C530.617 304.719 529.813 304.286 529.117 303.815C525.256 301.195 522.664 296.788 522.245 292.141C525.231 310.535 521.76 329.547 514.968 346.901C508.176 364.255 498.168 380.151 487.698 395.567C482.907 402.619 477.962 409.686 474.907 417.645C471.852 425.604 470.845 434.705 474.056 442.603C469.958 442.888 465.778 440.876 463.446 437.496C466.293 441.239 468.922 447.16 465.165 449.991C462.684 451.862 459.163 450.734 456.297 449.536C448.637 446.345 440.864 443.088 434.383 437.904C425.886 431.107 420.189 421.462 415.301 411.743C404.082 389.44 396.107 365.508 391.702 340.935C380.682 339.621 368.379 338.784 357.36 337.47C357.526 323.173 357.714 308.472 359.35 294.27C351.291 293.918 343.133 287.345 339.57 280.11C336.008 272.872 335.151 264.647 334.386 256.615C325.665 256.768 315.898 254.412 309.863 248.116C303.825 241.82 300.565 232.952 301.081 224.247C293.042 228.949 282.931 228.874 274.277 225.428C265.624 221.982 258.727 214.395 256.121 205.452C250.388 210.788 244.761 217.436 240.517 224.014C240.242 224.438 240.367 224.153 240.109 224.588C233.758 214.969 235.055 201.654 241.165 191.882C247.275 182.107 257.421 175.47 268.064 171.043C268.064 171.043 310.31 202.347 392.822 221.237C475.334 240.126 522.142 241.31 522.142 241.31Z" fill="#131324"/>
<path d="M446.871 324.637C445.887 341.126 437.52 357.033 424.494 367.188C420.416 370.365 415.778 373.045 410.669 373.838C399.148 375.626 387.89 366.996 383.446 356.221C378.999 345.44 380.05 333.178 382.653 321.815C386.013 307.125 393.489 291.379 407.833 286.752C430.959 279.292 448.091 304.214 446.871 324.637Z" fill="#E48B73"/>
<path d="M395.876 360.82C400.817 358.863 405.188 355.495 408.338 351.214C408.97 350.355 409.574 349.407 409.66 348.345C409.826 346.31 408.119 344.664 406.558 343.35C403.403 340.688 400.248 338.027 397.091 335.366C396.461 334.833 395.807 334.268 395.516 333.497C395.2 332.646 395.383 331.704 395.572 330.817C397.967 319.514 400.894 307.308 409.862 300.023C412.282 298.057 415.154 296.513 418.256 296.197C422.864 295.729 427.408 298.055 430.657 301.354C433.908 304.652 436.068 308.847 438.094 313.008C438.094 313.008 442.483 336.419 427.261 351.988C412.038 367.557 395.876 360.82 395.876 360.82Z" fill="#E48B73"/>
<path d="M438.094 313.008C435.511 308.978 432.963 304.855 429.47 301.95C426.088 299.045 421.611 297.379 417.732 298.288C413.837 299.233 410.278 302.224 407.658 305.701C404.98 309.177 403.037 313.288 401.617 317.649C400.084 321.976 399.045 326.556 397.978 331.18C397.833 331.762 397.739 332.209 397.728 332.453C397.736 332.735 397.686 332.608 397.764 332.777C397.911 333.093 399.1 334.066 399.932 334.823C401.728 336.397 403.494 338.005 405.246 339.627L407.894 342.058C408.811 342.92 409.818 343.871 410.547 345.266C411.34 346.591 411.473 348.723 410.702 350.112C409.99 351.512 409.141 352.354 408.304 353.289C404.861 356.903 400.525 359.581 395.871 360.821C400.087 358.525 403.719 355.423 406.361 351.678C407.009 350.755 407.73 349.751 407.985 348.958C408.232 348.16 408.093 347.65 407.628 346.946C406.685 345.596 404.503 344.185 402.66 342.693C400.764 341.238 398.881 339.768 397.027 338.266C396.092 337.429 395.244 337.068 393.933 335.477C393.295 334.681 392.916 333.345 392.949 332.433C392.943 331.48 393.11 330.753 393.212 330.168C394.146 325.464 395.178 320.698 396.75 315.988C398.38 311.323 400.564 306.654 403.866 302.662C405.512 300.664 407.442 298.92 409.582 297.404C411.739 295.907 414.262 294.74 417.028 294.357C419.803 293.958 422.623 294.465 425.015 295.577C427.418 296.688 429.495 298.28 431.211 300.154C434.604 303.96 436.517 308.495 438.094 313.008Z" fill="#131324"/>
<path d="M308.766 476.362C332.385 464.09 353.257 446.566 369.438 425.431C358.266 451.958 341.261 476.589 320.445 496.472" fill="#131324"/>
<path d="M615.471 644.669C615.471 644.669 519.27 496.276 487.204 484.918C455.138 473.56 388.998 523.665 345.574 559.074C315.234 583.813 281.305 620.661 263.615 640.619C255.413 649.872 249.146 660.6 244.777 672.167L206 774.844L615.471 644.669Z" fill="#2B264C"/>
<path d="M398.634 204.345C406.164 204.345 412.268 210.449 412.269 217.979C412.269 220.582 411.537 223.015 410.271 225.085C404.646 223.891 398.828 222.611 392.821 221.236C390.197 220.636 387.615 220.022 385.072 219.397C385.024 218.931 385 218.458 385 217.979C385 210.449 391.104 204.345 398.634 204.345Z" fill="#E5BE34"/>
<circle cx="360.372" cy="158.479" r="23.1346" fill="#5CA25E"/>
<rect x="472.594" y="70.8442" width="83.2846" height="83.2846" transform="rotate(13.2848 472.594 70.8442)" fill="#1F63AB"/>
<rect x="288.441" y="25.8203" width="29.8631" height="38.0341" transform="rotate(13.2848 288.441 25.8203)" fill="#1F63AB"/>
<path d="M219.062 71.5594L320.16 125.02L154.927 166.246L219.062 71.5594Z" fill="#A72608"/>
<circle cx="453.456" cy="38.3624" r="12.542" fill="#E5BE34"/>
<circle cx="601.572" cy="296.133" r="37.8252" fill="#A72608"/>
<rect x="547.356" y="200.444" width="113.36" height="23.1345" transform="rotate(35.7139 547.356 200.444)" fill="#F08648"/>
<rect x="542.072" y="375.993" width="113.36" height="23.1345" transform="rotate(35.7139 542.072 375.993)" fill="#1F63AB"/>
<path d="M349.232 14.1216L376.912 7.25045L426.325 81.3963L369.438 95.5177L349.232 14.1216Z" fill="#F08648"/>
<path d="M98.6431 155.199L88.6659 140.974L146.799 77.8059L167.304 107.04L98.6431 155.199Z" fill="#5CA25E"/>
<path d="M85.948 242.533L38.8192 152.089L187.686 235.414L85.948 242.533Z" fill="#E5BE34"/>
<path d="M192.787 256.844L325.045 274.844L317.751 329.431L177.045 300.344L192.787 256.844Z" fill="#1F63AB"/>
</svg>
